{
.appVersion = "926";
classes = (
{
code = " one.numr two.numr three.numr ";
name = sups2;
},
{
code = " one two three ";
name = sups1;
},
{
code = " zero one two three four five six seven eight nine ";
name = ordn1;
}
);
copyright = "Copyright (c) 2010-2016, Sorkin Type Co (www.sorkintype.com) with Reserved Font Name 'Merriweather'";
customParameters = (
{
name = glyphOrder;
value = (
A,
Aacute,
Abreve,
Acircumflex,
Adieresis,
Agrave,
Amacron,
Aogonek,
Aring,
Atilde,
AE,
AEacute,
B,
Bdotaccent,
C,
Cacute,
Ccaron,
Ccedilla,
Ccircumflex,
Cdotaccent,
D,
DZ,
DZcaron,
Eth,
Dcaron,
Dcroat,
Ddotaccent,
Dz,
Dzcaron,
E,
Eacute,
Ebreve,
Ecaron,
Ecircumflex,
Edieresis,
Edotaccent,
Egrave,
Emacron,
Eogonek,
F,
Fdotaccent,
G,
Gacute,
Gbreve,
Gcaron,
Gcircumflex,
Gcommaaccent,
Gdotaccent,
Gmacron,
H,
Hbar,
Hcircumflex,
I,
IJ,
Iacute,
Ibreve,
Icircumflex,
Idieresis,
Idotaccent,
Igrave,
Imacron,
Iogonek,
Itilde,
J,
Jcircumflex,
K,
Kcommaaccent,
L,
LJ,
Lacute,
Lcaron,
Lcommaaccent,
Ldot,
Lj,
Lslash,
M,
Mdotaccent,
N,
NJ,
Nacute,
Ncaron,
Ncommaaccent,
Ndotaccent,
Eng,
Nj,
Ntilde,
O,
Oacute,
Obreve,
Ocircumflex,
Odieresis,
Ograve,
Ohungarumlaut,
Omacron,
Oslash,
Oslashacute,
Otilde,
OE,
P,
Pdotaccent,
Thorn,
Q,
R,
Racute,
Rcaron,
Rcommaaccent,
S,
Sacute,
Scaron,
Scedilla,
Scircumflex,
Scommaaccent,
Sdotaccent,
Germandbls,
Schwa,
T,
Tbar,
Tcaron,
Tcedilla,
Tcommaaccent,
Tdotaccent,
U,
Uacute,
Ubreve,
Ucircumflex,
Udieresis,
Ugrave,
Uhungarumlaut,
Umacron,
Uogonek,
Uring,
Utilde,
V,
W,
Wacute,
Wcircumflex,
Wdieresis,
Wgrave,
X,
Y,
Yacute,
Ycircumflex,
Ydieresis,
Ydotaccent,
Ygrave,
Z,
Zacute,
Zcaron,
Zdotaccent,
a,
aacute,
abreve,
acaron,
acircumflex,
adieresis,
agrave,
amacron,
aogonek,
aring,
atilde,
ae,
aeacute,
b,
bdotaccent,
c,
cacute,
ccaron,
ccedilla,
ccircumflex,
cdotaccent,
d,
eth,
dcaron,
dcroat,
ddotaccent,
dz,
dzcaron,
e,
eacute,
ebreve,
ecaron,
ecircumflex,
edieresis,
edotaccent,
egrave,
emacron,
eogonek,
f,
fdotaccent,
g,
gbreve,
gcircumflex,
gcommaaccent,
gdotaccent,

glyphs = (
{
glyphname = A;
lastChange = "2016-10-13 21:43:13 +0000";
layers = (
{
anchors = (
{
name = btm;
position = "{651, -168}";
},
{
name = top;
position = "{832, 1700}";
}
);
layerId = "8869C5F7-E59C-494D-926F-BD4E51EFDE49";
paths = (
{
closed = 1;
nodes = (
"27 93 LINE",
"-112 69 LINE",
"-120 0 LINE",
"351 0 LINE",
"356 69 LINE",
"173 94 LINE",
"347 460 LINE",
"938 460 LINE",
"1000 93 LINE",
"815 69 LINE",
"811 0 LINE",
"1314 0 LINE",
"1319 69 LINE",
"1150 96 LINE",
"888 1522 LINE",
"735 1522 LINE"
);
},
{
closed = 1;
nodes = (
"789 1391 LINE",
"802 1273 LINE",
"922 557 LINE",
"393 557 LINE"
);
}
);
width = 1342;
},
{
anchors = (
{
name = btm;
position = "{635, -168}";
},
{
name = top;
position = "{811, 1700}";
}
);
layerId = "ECCAD73A-D96E-4C88-9DA5-23DA0E7E9E34";
paths = (
{
closed = 1;
nodes = (
"-15 135 LINE",
"-153 106 LINE",
"-161 0 LINE",
"397 0 LINE",
"405 106 LINE",
"217 136 LINE",
"335 416 LINE",
"822 416 LINE",
"862 135 LINE",
"705 106 LINE",
"700 0 LINE",
"1389 0 LINE",
"1395 106 LINE",
"1234 138 LINE",
"987 1522 LINE",
"640 1522 LINE"
);
},
{
closed = 1;
nodes = (
"714 1308 LINE",
"723 1117 LINE",
"801 567 LINE",
"399 567 LINE"
);
}
);
width = 1351;
}
);
unicode = 0041;
},
{
glyphname = Aogonek;
lastChange = "2016-10-13 21:43:13 +0000";
layers = (
{
layerId = "8869C5F7-E59C-494D-926F-BD4E51EFDE49";
paths = (
{
closed = 1;
nodes = (
"27 93 LINE",
"-112 69 LINE",
"-120 0 LINE",
"351 0 LINE",
"356 69 LINE",
"173 94 LINE",
"347 460 LINE",
"938 460 LINE",
"1000 93 LINE",
"815 69 LINE",
"811 0 LINE",
"1030 0 LINE",
"958 -40 OFFCURVE",
"871 -86 OFFCURVE",
"808 -175 CURVE SMOOTH",
"788 -203 OFFCURVE",
"775 -248 OFFCURVE",
"773 -287 CURVE SMOOTH",
"771 -346 OFFCURVE",
"812 -416 OFFCURVE",
"919 -416 CURVE SMOOTH",
"1035 -416 OFFCURVE",
"1117 -368 OFFCURVE",
"1169 -322 CURVE",
"1148 -245 LINE",
"1099 -287 OFFCURVE",
"1044 -313 OFFCURVE",
"989 -313 CURVE SMOOTH",
"950 -313 OFFCURVE",
"918 -286 OFFCURVE",
"921 -226 CURVE",
"923 -148 OFFCURVE",
"1024 -71 OFFCURVE",
"1121 0 CURVE",
"1314 0 LINE",
"1319 69 LINE",
"1150 96 LINE",
"888 1522 LINE",
"735 1522 LINE"
);
},
{
closed = 1;
nodes = (
"789 1391 LINE",
"802 1273 LINE",
"922 557 LINE",
"393 557 LINE"
);
}
);
width = 1342;
},
{
layerId = "ECCAD73A-D96E-4C88-9DA5-23DA0E7E9E34";
paths = (
{
closed = 1;
nodes = (
"-15 135 LINE",
"-153 106 LINE",
"-161 0 LINE",
"397 0 LINE",
"405 106 LINE",
"217 136 LINE",
"335 416 LINE",
"822 416 LINE",
"862 135 LINE",
"705 106 LINE",
"700 0 LINE",
"939 0 LINE",
"871 -34 OFFCURVE",
"797 -81 OFFCURVE",
"728 -182 CURVE SMOOTH",
"702 -220 OFFCURVE",
"683 -273 OFFCURVE",
"683 -306 CURVE SMOOTH",
"683 -411 OFFCURVE",
"747 -480 OFFCURVE",
"876 -480 CURVE SMOOTH",
"1021 -480 OFFCURVE",
"1139 -409 OFFCURVE",
"1220 -326 CURVE",
"1184 -212 LINE",
"1128 -256 OFFCURVE",
"1086 -287 OFFCURVE",
"1031 -287 CURVE SMOOTH",
"992 -287 OFFCURVE",
"964 -272 OFFCURVE",
"964 -215 CURVE SMOOTH",
"964 -152 OFFCURVE",
"1048 -74 OFFCURVE",
"1158 0 CURVE",
"1389 0 LINE",
"1395 106 LINE",
"1234 138 LINE",
"987 1522 LINE",
"640 1522 LINE"
);
},
{
closed = 1;
nodes = (
"714 1308 LINE",
"723 1117 LINE",
"801 567 LINE",
"399 567 LINE"
);
}
);
width = 1351;
}
);
unicode = 0104;
},
{
glyphname = Aring;
lastChange = "2016-10-13 21:43:13 +0000";
layers = (
{
layerId = "8869C5F7-E59C-494D-926F-BD4E51EFDE49";
paths = (
{
closed = 1;
nodes = (
"27 93 LINE",
"-112 69 LINE",
"-120 0 LINE",
"351 0 LINE",
"356 69 LINE",
"173 94 LINE",
"347 460 LINE",
"938 460 LINE",
"1000 93 LINE",
"815 69 LINE",
"811 0 LINE",
"1314 0 LINE",
"1319 69 LINE",
"1150 96 LINE",
"890 1511 LINE",
"1021 1536 OFFCURVE",
"1148 1627 OFFCURVE",
"1148 1784 CURVE SMOOTH",
"1148 1907 OFFCURVE",
"1047 1997 OFFCURVE",
"885 1997 CURVE SMOOTH",
"734 1997 OFFCURVE",
"547 1900 OFFCURVE",
"547 1731 CURVE SMOOTH",
"547 1623 OFFCURVE",
"611 1540 OFFCURVE",
"730 1513 CURVE"
);
},
{
closed = 1;
nodes = (
"789 1391 LINE",
"802 1273 LINE",
"922 557 LINE",
"393 557 LINE"
);
},
{
closed = 1;
nodes = (
"827 1569 CURVE SMOOTH",
"715 1569 OFFCURVE",
"648 1644 OFFCURVE",
"648 1740 CURVE SMOOTH",
"648 1862 OFFCURVE",
"765 1931 OFFCURVE",
"873 1931 CURVE SMOOTH",
"976 1931 OFFCURVE",
"1047 1863 OFFCURVE",
"1047 1776 CURVE SMOOTH",
"1047 1633 OFFCURVE",
"936 1569 OFFCURVE"
);
}
);
width = 1342;
},
{
layerId = "ECCAD73A-D96E-4C88-9DA5-23DA0E7E9E34";
paths = (
{
closed = 1;
nodes = (
"-15 135 LINE",
"-153 106 LINE",
"-161 0 LINE",
"397 0 LINE",
"405 106 LINE",
"217 136 LINE",
"335 416 LINE",
"822 416 LINE",
"862 135 LINE",
"705 106 LINE",
"700 0 LINE",
"1389 0 LINE",
"1395 106 LINE",
"1234 138 LINE",
"987 1522 LINE",
"986 1522 LINE",
"1098 1564 OFFCURVE",
"1185 1649 OFFCURVE",
"1185 1791 CURVE SMOOTH",
"1185 1940 OFFCURVE",
"1047 2014 OFFCURVE",
"872 2014 CURVE SMOOTH",
"717 2014 OFFCURVE",
"476 1956 OFFCURVE",
"476 1721 CURVE SMOOTH",
"476 1615 OFFCURVE",
"539 1548 OFFCURVE",
"637 1515 CURVE"
);
},
{
closed = 1;
nodes = (
"714 1308 LINE",
"723 1117 LINE",
"801 567 LINE",
"399 567 LINE"
);
},
{
closed = 1;
nodes = (
"817 1630 CURVE SMOOTH",
"750 1630 OFFCURVE",
"670 1673 OFFCURVE",
"670 1744 CURVE SMOOTH",
"670 1852 OFFCURVE",
"771 1878 OFFCURVE",
"847 1878 CURVE SMOOTH",
"916 1878 OFFCURVE",
"992 1836 OFFCURVE",
"992 1763 CURVE SMOOTH",
"992 1648 OFFCURVE",
"894 1630 OFFCURVE"
);
}
);
width = 1351;
}
);
unicode = 00C5;
},
{
glyphname = AE;
lastChange = "2016-10-13 21:43:13 +0000";
layers = (
{
anchors = (
{
name = top;
position = "{1205, 1700}";
}
);
layerId = "8869C5F7-E59C-494D-926F-BD4E51EFDE49";
paths = (
{
closed = 1;
nodes = (
"697 0 LINE",
"1685 0 LINE",
"1757 299 LINE",
"1677 324 LINE",
"1582 113 LINE",
"989 94 LINE",
"1067 734 LINE",
"1511 721 LINE",
"1521 853 LINE",
"1076 834 LINE",
"1153 1434 LINE",
"1634 1423 LINE",
"1668 1228 LINE",
"1750 1228 LINE",
"1757 1522 LINE",
"429 1522 LINE",
"418 1442 LINE",
"729 1423 LINE",
"17 93 LINE",
"-149 69 LINE",
"-162 0 LINE",
"394 0 LINE",
"399 69 LINE",
"173 94 LINE",
"379 500 LINE",
"884 500 LINE",
"835 93 LINE",
"705 69 LINE"
);
},
{
closed = 1;
nodes = (
"994 1416 LINE",
"895 597 LINE",
"429 597 LINE",
"848 1421 LINE"
);
}
);
width = 1818;
},
{
anchors = (
{
name = top;
position = "{1271, 1700}";
}
);
layerId = "ECCAD73A-D96E-4C88-9DA5-23DA0E7E9E34";
paths = (
{
closed = 1;
nodes = (
"650 0 LINE",
"1894 0 LINE",
"1964 454 LINE",
"1751 468 LINE",
"1634 171 LINE",
"1171 136 LINE",
"1249 712 LINE",
"1688 680 LINE",
"1723 909 LINE",
"1268 868 LINE",
"1341 1402 LINE",
"1680 1376 LINE",
"1714 1152 LINE",
"1936 1152 LINE",
"1972 1522 LINE",
"409 1522 LINE",
"394 1402 LINE",
"686 1376 LINE",
"-41 136 LINE",
"-198 106 LINE",
"-206 0 LINE",
"421 0 LINE",
"429 106 LINE",
"239 136 LINE",
"386 416 LINE",
"860 416 LINE",
"824 136 LINE",
"664 106 LINE"
);
},
{
closed = 1;
nodes = (
"989 1402 LINE",
"880 567 LINE",
"465 567 LINE",
"904 1402 LINE"
);
}
);
width = 2012;
}
);
unicode = 00C6;
},
{
glyphname = B;
lastChange = "2016-10-13 21:43:13 +0000";
layers = (
{
anchors = (
{
name = btm;
position = "{692, -168}";
},
{
name = top;
position = "{692, 1700}";
}
);
layerId = "8869C5F7-E59C-494D-926F-BD4E51EFDE49";
paths = (
{
closed = 1;
nodes = (
"27 0 LINE",
"243 0 LINE SMOOTH",
"314 0 OFFCURVE",
"433 -14 OFFCURVE",
"510 -14 CURVE SMOOTH",
"867 -14 OFFCURVE",
"1184 127 OFFCURVE",
"1178 490 CURVE SMOOTH",
"1175 665 OFFCURVE",
"1036 785 OFFCURVE",
"871 806 CURVE",
"1067 862 OFFCURVE",
"1190 1000 OFFCURVE",
"1186 1218 CURVE SMOOTH",
"1183 1388 OFFCURVE",
"1052 1537 OFFCURVE",
"743 1537 CURVE SMOOTH",
"644 1537 OFFCURVE",
"553 1524 OFFCURVE",
"463 1522 CURVE",
"224 1522 LINE",
"215 1441 LINE",
"351 1422 LINE",
"184 94 LINE",
"34 69 LINE"
);
},
{
closed = 1;
nodes = (
"693 738 CURVE SMOOTH",
"899 738 OFFCURVE",
"1015 650 OFFCURVE",
"1017 472 CURVE SMOOTH",
"1021 185 OFFCURVE",
"812 84 OFFCURVE",
"544 84 CURVE SMOOTH",
"502 84 OFFCURVE",
"374 90 OFFCURVE",
"335 103 CURVE",
"413 733 LINE",
"466 736 OFFCURVE",
"552 738 OFFCURVE"
);
},
{
closed = 1;
nodes = (
"708 1443 CURVE SMOOTH",
"941 1443 OFFCURVE",
"1035 1359 OFFCURVE",
"1037 1198 CURVE SMOOTH",
"1040 955 OFFCURVE",
"874 840 OFFCURVE",
"664 840 CURVE SMOOTH",
"590 840 OFFCURVE",
"498 837 OFFCURVE",
"427 840 CURVE",
"500 1431 LINE",
"556 1438 OFFCURVE",
"667 1443 OFFCURVE"
);
}
);
width = 1278;
},
{
anchors = (
{
name = btm;
position = "{778, -168}";
},
{
name = top;
position = "{778, 1700}";
}
);
layerId = "ECCAD73A-D96E-4C88-9DA5-23DA0E7E9E34";
paths = (
{
closed = 1;
nodes = (
"-13 0 LINE",
"284 0 LINE SMOOTH",
"375 0 OFFCURVE",
"507 -20 OFFCURVE",
"604 -20 CURVE SMOOTH",
"1083 -20 OFFCURVE",
"1336 124 OFFCURVE",
"1336 500 CURVE SMOOTH",
"1336 662 OFFCURVE",
"1199 808 OFFCURVE",
"968 803 CURVE",
"1224 865 OFFCURVE",
"1352 992 OFFCURVE",
"1344 1210 CURVE SMOOTH",
"1338 1375 OFFCURVE",
"1258 1538 OFFCURVE",
"866 1538 CURVE SMOOTH",
"736 1538 OFFCURVE",
"624 1523 OFFCURVE",
"507 1522 CURVE",
"171 1522 LINE",
"158 1412 LINE",
"303 1386 LINE",
"136 136 LINE",
"-4 106 LINE"
);
},
{
closed = 1;
nodes = (
"674 719 CURVE SMOOTH",
"881 719 OFFCURVE",
"963 636 OFFCURVE",
"969 466 CURVE SMOOTH",
"978 217 OFFCURVE",
"867 105 OFFCURVE",
"647 105 CURVE SMOOTH",
"605 105 OFFCURVE",
"522 115 OFFCURVE",
"470 128 CURVE",
"549 714 LINE",
"573 717 OFFCURVE",
"598 719 OFFCURVE"
);
},
{
closed = 1;
nodes = (
"787 1412 CURVE SMOOTH",
"930 1412 OFFCURVE",
"1008 1332 OFFCURVE",
"1014 1184 CURVE",
"1022 946 OFFCURVE",
"866 856 OFFCURVE",
"692 856 CURVE SMOOTH",
"644 856 OFFCURVE",
"610 854 OFFCURVE",
"568 856 CURVE",
"641 1398 LINE",
"687 1408 OFFCURVE",
"756 1412 OFFCURVE"
);
}
);
width = 1405;
}
);
unicode = 0042;
},
{
glyphname = C;
lastChange = "2016-10-13 21:43:13 +0000";
layers = (
{
anchors = (
{
name = btm;
position = "{618, -168}";
},
{
name = top;
position = "{800, 1700}";
}
);
layerId = "8869C5F7-E59C-494D-926F-BD4E51EFDE49";
paths = (
{
closed = 1;
nodes = (
"90 627 CURVE SMOOTH",
"95 317 OFFCURVE",
"239 -16 OFFCURVE",
"610 -16 CURVE SMOOTH",
"816 -16 OFFCURVE",
"980 46 OFFCURVE",
"1058 70 CURVE",
"1099 401 LINE",
"1006 402 LINE",
"943 178 LINE",
"889 112 OFFCURVE",
"743 79 OFFCURVE",
"639 79 CURVE SMOOTH",
"358 79 OFFCURVE",
"254 373 OFFCURVE",
"249 643 CURVE SMOOTH",
"242 991 OFFCURVE",
"419 1442 OFFCURVE",
"809 1442 CURVE SMOOTH",
"955 1442 OFFCURVE",
"1018 1416 OFFCURVE",
"1062 1389 CURVE",
"1070 1114 LINE",
"1160 1114 LINE",
"1221 1477 LINE",
"1178 1490 LINE",
"1116 1507 OFFCURVE",
"1005 1538 OFFCURVE",
"826 1538 CURVE SMOOTH",
"428 1538 OFFCURVE",
"80 1175 OFFCURVE"
);
}
);
width = 1232;
},
{
anchors = (
{
name = btm;
position = "{720, -168}";
},
{
name = top;
position = "{921, 1700}";
}
);
layerId = "ECCAD73A-D96E-4C88-9DA5-23DA0E7E9E34";
paths = (
{
closed = 1;
nodes = (
"60 637 CURVE SMOOTH",
"60 287 OFFCURVE",
"225 -16 OFFCURVE",
"677 -16 CURVE SMOOTH",
"975 -16 OFFCURVE",
"1109 73 OFFCURVE",
"1186 136 CURVE",
"1229 420 LINE",
"1028 419 LINE",
"1007 343 OFFCURVE",
"984 260 OFFCURVE",
"948 219 CURVE",
"872 145 OFFCURVE",
"775 145 OFFCURVE",
"731 145 CURVE SMOOTH",
"541 145 OFFCURVE",
"460 320 OFFCURVE",
"451 657 CURVE SMOOTH",
"442 991 OFFCURVE",
"574 1412 OFFCURVE",
"892 1412 CURVE SMOOTH",
"927 1412 OFFCURVE",
"959 1405 OFFCURVE",
"987 1394 CURVE",
"1027 1084 LINE",
"1280 1084 LINE",
"1341 1484 LINE",
"1308 1493 LINE",
"1234 1510 OFFCURVE",
"1172 1541 OFFCURVE",
"949 1541 CURVE SMOOTH",
"412 1541 OFFCURVE",
"60 1208 OFFCURVE"
);
}
);
width = 1300;
}
);
unicode = 0043;
},
{
glyphname = D;
lastChange = "2016-10-13 21:43:13 +0000";
layers = (
{
anchors = (
{
name = btm;
position = "{819, -168}";
},
{
name = top;
position = "{794, 1700}";
}
);
layerId = "8869C5F7-E59C-494D-926F-BD4E51EFDE49";
paths = (
{
closed = 1;
nodes = (
"26 0 LINE",
"250 0 LINE SMOOTH",
"306 0 OFFCURVE",
"415 -5 OFFCURVE",
"460 -9 CURVE SMOOTH",
"491 -12 OFFCURVE",
"545 -15 OFFCURVE",
"573 -16 CURVE SMOOTH",
"1043 -28 OFFCURVE",
"1359 393 OFFCURVE",
"1352 922 CURVE",
"1348 1293 OFFCURVE",
"1184 1538 OFFCURVE",
"777 1538 CURVE SMOOTH",
"675 1538 OFFCURVE",
"582 1523 OFFCURVE",
"488 1522 CURVE",
"224 1522 LINE",
"215 1441 LINE",
"351 1422 LINE",
"183 94 LINE",
"33 69 LINE"
);
},
{
closed = 1;
nodes = (
"733 1444 CURVE SMOOTH",
"1063 1444 OFFCURVE",
"1192 1286 OFFCURVE",
"1198 909 CURVE",
"1202 504 OFFCURVE",
"1015 101 OFFCURVE",
"615 79 CURVE",
"547 79 OFFCURVE",
"417 91 OFFCURVE",
"335 106 CURVE",
"501 1425 LINE",
"565 1434 OFFCURVE",
"663 1444 OFFCURVE"
);
}
);
width = 1421;
},
{
anchors = (
{
name = btm;
position = "{920, -168}";
},
{
name = top;
position = "{892, 1700}";
}
);
layerId = "ECCAD73A-D96E-4C88-9DA5-23DA0E7E9E34";
paths = (
{
closed = 1;
nodes = (
"-35 0 LINE",
"333 0 LINE",
"396 -1 OFFCURVE",
"482 -5 OFFCURVE",
"526 -9 CURVE",
"545 -12 OFFCURVE",
"582 -16 OFFCURVE",
"601 -16 CURVE SMOOTH",
"1237 -16 OFFCURVE",
"1497 371 OFFCURVE",
"1497 921 CURVE SMOOTH",
"1497 1271 OFFCURVE",
"1327 1540 OFFCURVE",
"844 1538 CURVE SMOOTH",
"726 1538 OFFCURVE",
"600 1523 OFFCURVE",
"487 1522 CURVE",
"170 1522 LINE",
"159 1412 LINE",
"303 1386 LINE",
"135 136 LINE",
"-23 106 LINE"
);
},
{
closed = 1;
nodes = (
"811 1412 CURVE SMOOTH",
"1023 1412 OFFCURVE",
"1120 1266 OFFCURVE",
"1120 886 CURVE SMOOTH",
"1120 547 OFFCURVE",
"992 111 OFFCURVE",
"622 111 CURVE SMOOTH",
"583 111 OFFCURVE",
"525 122 OFFCURVE",
"486 136 CURVE",
"652 1386 LINE",
"671 1397 OFFCURVE",
"731 1412 OFFCURVE"
);
}
);
width = 1507;
}
);
unicode = 0044;
},
{
glyphname = Eth;
lastChange = "2016-10-13 21:43:13 +0000";
layers = (
{
layerId = "8869C5F7-E59C-494D-926F-BD4E51EFDE49";
paths = (
{
closed = 1;
nodes = (
"96 731 LINE",
"256 731 LINE",
"176 96 LINE",
"26 71 LINE",
"19 2 LINE",
"243 2 LINE SMOOTH",
"299 2 OFFCURVE",
"408 -3 OFFCURVE",
"453 -7 CURVE SMOOTH",
"484 -10 OFFCURVE",
"538 -13 OFFCURVE",
"566 -14 CURVE SMOOTH",
"1036 -26 OFFCURVE",
"1352 395 OFFCURVE",
"1345 924 CURVE",
"1341 1295 OFFCURVE",
"1177 1540 OFFCURVE",
"770 1540 CURVE SMOOTH",
"668 1540 OFFCURVE",
"575 1525 OFFCURVE",
"481 1524 CURVE",
"217 1524 LINE",
"208 1443 LINE",
"344 1424 LINE",
"270 836 LINE",
"108 836 LINE"
);
},
{
closed = 1;
nodes = (
"835 731 LINE",
"847 836 LINE",
"419 836 LINE",
"494 1427 LINE",
"558 1436 OFFCURVE",
"656 1446 OFFCURVE",
"726 1446 CURVE SMOOTH",
"1056 1446 OFFCURVE",
"1185 1288 OFFCURVE",
"1191 911 CURVE",
"1195 506 OFFCURVE",
"1008 103 OFFCURVE",
"608 81 CURVE",
"540 81 OFFCURVE",
"410 93 OFFCURVE",
"328 108 CURVE",
"406 731 LINE"
);
}
);
width = 1418;
},
{
layerId = "ECCAD73A-D96E-4C88-9DA5-23DA0E7E9E34";
paths = (
{
closed = 1;
nodes = (
"74 702 LINE",
"211 702 LINE",
"135 138 LINE",
"-23 108 LINE",
"-35 2 LINE",
"308 2 LINE SMOOTH",
"371 2 OFFCURVE",
"476 -3 OFFCURVE",
"526 -7 CURVE",
"545 -10 OFFCURVE",
"582 -14 OFFCURVE",
"601 -14 CURVE SMOOTH",
"1237 -14 OFFCURVE",
"1497 373 OFFCURVE",
"1497 923 CURVE SMOOTH",
"1497 1273 OFFCURVE",
"1327 1542 OFFCURVE",
"844 1540 CURVE SMOOTH",
"720 1540 OFFCURVE",
"587 1524 OFFCURVE",
"470 1524 CURVE SMOOTH",
"170 1524 LINE",
"159 1414 LINE",
"303 1388 LINE",
"234 872 LINE",
"100 872 LINE"
);
},
{
closed = 1;
nodes = (
"853 702 LINE",
"879 872 LINE",
"583 872 LINE",
"652 1388 LINE",
"671 1399 OFFCURVE",
"731 1414 OFFCURVE",
"811 1414 CURVE SMOOTH",
"1023 1414 OFFCURVE",
"1120 1268 OFFCURVE",
"1120 888 CURVE SMOOTH",
"1120 549 OFFCURVE",
"992 113 OFFCURVE",
"622 113 CURVE SMOOTH",
"583 113 OFFCURVE",
"525 124 OFFCURVE",
"486 138 CURVE",
"561 702 LINE"
);
}
);
width = 1506;
}
);
unicode = 00D0;
},
{
glyphname = Dcroat;
lastChange = "2016-10-13 21:43:13 +0000";
layers = (
{
layerId = "8869C5F7-E59C-494D-926F-BD4E51EFDE49";
paths = (
{
closed = 1;
nodes = (
"98 731 LINE",
"256 731 LINE",
"176 96 LINE",
"26 71 LINE",
"19 2 LINE",
"243 2 LINE SMOOTH",
"299 2 OFFCURVE",
"408 -3 OFFCURVE",
"453 -7 CURVE SMOOTH",
"484 -10 OFFCURVE",
"538 -13 OFFCURVE",
"566 -14 CURVE SMOOTH",
"1036 -26 OFFCURVE",
"1352 395 OFFCURVE",
"1345 924 CURVE",
"1341 1295 OFFCURVE",
"1177 1540 OFFCURVE",
"770 1540 CURVE SMOOTH",
"668 1540 OFFCURVE",
"575 1525 OFFCURVE",
"481 1524 CURVE",
"217 1524 LINE",
"208 1443 LINE",
"344 1424 LINE",
"270 836 LINE",
"109 836 LINE"
);
},
{
closed = 1;
nodes = (
"837 731 LINE",
"848 836 LINE",
"419 836 LINE",
"494 1427 LINE",
"558 1436 OFFCURVE",
"656 1446 OFFCURVE",
"726 1446 CURVE SMOOTH",
"1056 1446 OFFCURVE",
"1185 1288 OFFCURVE",
"1191 911 CURVE",
"1195 506 OFFCURVE",
"1008 103 OFFCURVE",
"608 81 CURVE",
"540 81 OFFCURVE",
"410 93 OFFCURVE",
"328 108 CURVE",
"406 731 LINE"
);
}
);
width = 1418;
},
{
layerId = "ECCAD73A-D96E-4C88-9DA5-23DA0E7E9E34";
paths = (
{
closed = 1;
nodes = (
"74 702 LINE",
"211 702 LINE",
"135 138 LINE",
"-23 108 LINE",
"-35 2 LINE",
"308 2 LINE SMOOTH",
"371 2 OFFCURVE",
"476 -3 OFFCURVE",
"526 -7 CURVE",
"545 -10 OFFCURVE",
"582 -14 OFFCURVE",
"601 -14 CURVE SMOOTH",
"1237 -14 OFFCURVE",
"1497 373 OFFCURVE",
"1497 923 CURVE SMOOTH",
"1497 1273 OFFCURVE",
"1327 1542 OFFCURVE",
"844 1540 CURVE SMOOTH",
"720 1540 OFFCURVE",
"587 1524 OFFCURVE",
"470 1524 CURVE SMOOTH",
"170 1524 LINE",
"159 1414 LINE",
"303 1388 LINE",
"234 872 LINE",
"100 872 LINE"
);
},
{
closed = 1;
nodes = (
"853 702 LINE",
"879 872 LINE",
"583 872 LINE",
"652 1388 LINE",
"671 1399 OFFCURVE",
"731 1414 OFFCURVE",
"811 1414 CURVE SMOOTH",
"1023 1414 OFFCURVE",
"1120 1268 OFFCURVE",
"1120 888 CURVE SMOOTH",
"1120 549 OFFCURVE",
"992 113 OFFCURVE",
"622 113 CURVE SMOOTH",
"583 113 OFFCURVE",
"525 124 OFFCURVE",
"486 138 CURVE",
"561 702 LINE"
);
}
);
width = 1516;
}
);
unicode = 0110;
},
{
glyphname = E;
lastChange = "2016-10-13 21:43:13 +0000";
layers = (
{
anchors = (
{
name = btm;
position = "{665, -168}";
},
{
name = top;
position = "{757, 1700}";
}
);
layerId = "8869C5F7-E59C-494D-926F-BD4E51EFDE49";
paths = (
{
closed = 1;
nodes = (
"26 0 LINE",
"1058 0 LINE",
"1147 316 LINE",
"1066 341 LINE",
"955 113 LINE",
"334 94 LINE",
"419 734 LINE",
"901 721 LINE",
"910 846 LINE",
"429 840 LINE",
"505 1435 LINE",
"1017 1424 LINE",
"1051 1212 LINE",
"1134 1212 LINE",
"1141 1522 LINE",
"223 1522 LINE",
"214 1441 LINE",
"350 1422 LINE",
"184 93 LINE",
"33 69 LINE"
);
}
);
width = 1222;
},
{
anchors = (
{
name = btm;
position = "{749, -168}";
},
{
name = top;
position = "{818, 1700}";
}
);
layerId = "ECCAD73A-D96E-4C88-9DA5-23DA0E7E9E34";
paths = (
{
closed = 1;
nodes = (
"-37 0 LINE",
"1207 0 LINE",
"1277 454 LINE",
"1064 468 LINE",
"947 171 LINE",
"484 136 LINE",
"562 712 LINE",
"1003 683 LINE",
"1040 914 LINE",
"581 868 LINE",
"654 1402 LINE",
"993 1376 LINE",
"1027 1152 LINE",
"1249 1152 LINE",
"1285 1522 LINE",
"167 1522 LINE",
"156 1412 LINE",
"301 1386 LINE",
"137 136 LINE",
"-23 106 LINE"
);
}
);
width = 1305;
}
);
unicode = 0045;
},
{
glyphname = Eogonek;
lastChange = "2016-10-13 21:43:13 +0000";
layers = (
{
layerId = "8869C5F7-E59C-494D-926F-BD4E51EFDE49";
paths = (
{
closed = 1;
nodes = (
"26 0 LINE",
"885 0 LINE",
"814 -40 OFFCURVE",
"727 -85 OFFCURVE",
"664 -174 CURVE SMOOTH",
"644 -203 OFFCURVE",
"631 -248 OFFCURVE",
"629 -287 CURVE SMOOTH",
"627 -346 OFFCURVE",
"668 -416 OFFCURVE",
"775 -416 CURVE SMOOTH",
"891 -416 OFFCURVE",
"973 -368 OFFCURVE",
"1025 -322 CURVE",
"1004 -245 LINE",
"955 -287 OFFCURVE",
"900 -313 OFFCURVE",
"845 -313 CURVE SMOOTH",
"806 -313 OFFCURVE",
"774 -286 OFFCURVE",
"777 -226 CURVE",
"779 -148 OFFCURVE",
"880 -71 OFFCURVE",
"977 0 CURVE",
"1058 0 LINE",
"1147 316 LINE",
"1066 341 LINE",
"955 113 LINE",
"334 94 LINE",
"419 734 LINE",
"901 721 LINE",
"910 846 LINE",
"429 840 LINE",
"505 1435 LINE",
"1017 1424 LINE",
"1051 1212 LINE",
"1134 1212 LINE",
"1141 1522 LINE",
"223 1522 LINE",
"214 1441 LINE",
"350 1422 LINE",
"184 93 LINE",
"33 69 LINE"
);
}
);
width = 1217;
},
{
layerId = "ECCAD73A-D96E-4C88-9DA5-23DA0E7E9E34";
paths = (
{
closed = 1;
nodes = (
"-37 0 LINE",
"900 0 LINE",
"832 -34 OFFCURVE",
"758 -81 OFFCURVE",
"689 -182 CURVE SMOOTH",
"663 -220 OFFCURVE",
"644 -273 OFFCURVE",
"644 -306 CURVE SMOOTH",
"644 -411 OFFCURVE",
"708 -480 OFFCURVE",
"837 -480 CURVE SMOOTH",
"982 -480 OFFCURVE",
"1100 -409 OFFCURVE",
"1181 -326 CURVE",
"1145 -212 LINE",
"1089 -256 OFFCURVE",
"1047 -287 OFFCURVE",
"992 -287 CURVE SMOOTH",
"953 -287 OFFCURVE",
"925 -272 OFFCURVE",
"925 -215 CURVE SMOOTH",
"925 -152 OFFCURVE",
"1009 -74 OFFCURVE",
"1119 0 CURVE",
"1207 0 LINE",
"1277 454 LINE",
"1064 468 LINE",
"947 171 LINE",
"484 136 LINE",
"562 712 LINE",
"1003 683 LINE",
"1040 914 LINE",
"581 868 LINE",
"654 1402 LINE",
"993 1376 LINE",
"1027 1152 LINE",
"1249 1152 LINE",
"1285 1522 LINE",
"167 1522 LINE",
"156 1412 LINE",
"301 1386 LINE",
"137 136 LINE",
"-23 106 LINE"
);
}
);
width = 1325;
}
);
unicode = 0118;
},
{
glyphname = F;
lastChange = "2016-10-13 21:43:13 +0000";
layers = (
{
anchors = (
{
name = btm;
position = "{584, -168}";
},
{
name = top;
position = "{738, 1700}";
}
);
layerId = "8869C5F7-E59C-494D-926F-BD4E51EFDE49";
paths = (
{
closed = 1;
nodes = (
"27 0 LINE",
"566 0 LINE",
"573 70 LINE",
"334 96 LINE",
"419 731 LINE",
"926 718 LINE",
"936 846 LINE",
"428 838 LINE",
"502 1434 LINE",
"1047 1419 LINE",
"1067 1212 LINE",
"1161 1212 LINE",
"1179 1522 LINE",
"223 1522 LINE",
"214 1441 LINE",
"350 1422 LINE",
"184 94 LINE",
"33 70 LINE"
);
}
);
width = 1150;
},
{
anchors = (
{
name = btm;
position = "{659, -168}";
},
{
name = top;
position = "{828, 1700}";
}
);
layerId = "ECCAD73A-D96E-4C88-9DA5-23DA0E7E9E34";
paths = (
{
closed = 1;
nodes = (
"-12 0 LINE",
"758 0 LINE",
"766 106 LINE",
"489 136 LINE",
"561 701 LINE",
"1031 662 LINE",
"1062 886 LINE",
"581 859 LINE",
"656 1400 LINE",
"1011 1376 LINE",
"1041 1139 LINE",
"1262 1139 LINE",
"1303 1522 LINE",
"170 1522 LINE",
"156 1412 LINE",
"301 1386 LINE",
"137 136 LINE",
"-1 106 LINE"
);
}
);
width = 1224;
}
);
unicode = 0046;
},
{
glyphname = G;
lastChange = "2016-10-13 21:43:13 +0000";
layers = (
{
anchors = (
{
name = btm;
position = "{650, -170}";
},
{
name = top;
position = "{833, 1700}";
}
);
layerId = "8869C5F7-E59C-494D-926F-BD4E51EFDE49";
paths = (
{
closed = 1;
nodes = (
"101 627 CURVE SMOOTH",
"105 317 OFFCURVE",
"249 -17 OFFCURVE",
"608 -17 CURVE SMOOTH",
"765 -17 OFFCURVE",
"913 31 OFFCURVE",
"1012 61 CURVE SMOOTH",
"1066 77 OFFCURVE",
"1100 90 OFFCURVE",
"1139 94 CURVE",
"1228 723 LINE",
"788 723 LINE",
"778 630 LINE",
"1059 616 LINE",
"997 178 LINE",
"922 111 OFFCURVE",
"768 77 OFFCURVE",
"652 77 CURVE SMOOTH",
"373 77 OFFCURVE",
"263 371 OFFCURVE",
"259 645 CURVE",
"255 999 OFFCURVE",
"439 1443 OFFCURVE",
"820 1443 CURVE SMOOTH",
"991 1443 OFFCURVE",
"1064 1413 OFFCURVE",
"1118 1376 CURVE",
"1122 1175 LINE",
"1219 1175 LINE",
"1276 1471 LINE",
"1238 1482 LINE SMOOTH",
"1166 1503 OFFCURVE",
"1041 1538 OFFCURVE",
"837 1538 CURVE SMOOTH",
"444 1538 OFFCURVE",
"94 1181 OFFCURVE"
);
}
);
width = 1342;
},
{
anchors = (
{
name = btm;
position = "{695, -170}";
},
{
name = top;
position = "{898, 1700}";
}
);
layerId = "ECCAD73A-D96E-4C88-9DA5-23DA0E7E9E34";
paths = (
{
closed = 1;
nodes = (
"60 627 CURVE SMOOTH",
"66 287 OFFCURVE",
"230 -16 OFFCURVE",
"637 -16 CURVE SMOOTH",
"823 -16 OFFCURVE",
"954 21 OFFCURVE",
"1072 51 CURVE",
"1131 67 OFFCURVE",
"1219 80 OFFCURVE",
"1262 84 CURVE",
"1351 753 LINE",
"795 753 LINE",
"776 607 LINE",
"978 590 LINE",
"925 163 LINE",
"867 142 OFFCURVE",
"797 135 OFFCURVE",
"704 135 CURVE SMOOTH",
"516 135 OFFCURVE",
"433 366 OFFCURVE",
"433 658 CURVE SMOOTH",
"433 1065 OFFCURVE",
"533 1412 OFFCURVE",
"903 1412 CURVE SMOOTH",
"972 1412 OFFCURVE",
"1031 1395 OFFCURVE",
"1079 1369 CURVE",
"1089 1138 LINE",
"1330 1138 LINE",
"1395 1471 LINE",
"1333 1482 LINE",
"1245 1503 OFFCURVE",
"1149 1541 OFFCURVE",
"900 1541 CURVE SMOOTH",
"338 1541 OFFCURVE",
"50 1175 OFFCURVE"
);
},
{
closed = 1;
nodes = (
"1193 1263 CURVE",
"1172 1291 LINE",
"1180 1282 OFFCURVE",
"1187 1272 OFFCURVE"
);
}
);
width = 1416;
}
);
unicode = 0047;
},
{
glyphname = H;
lastChange = "2016-10-13 21:43:13 +0000";
layers = (
{
anchors = (
{
name = btm;
position = "{825, -168}";
},
{
name = top;
position = "{884, 1700}";
}
);
layerId = "8869C5F7-E59C-494D-926F-BD4E51EFDE49";
paths = (
{
closed = 1;
nodes = (
"894 0 LINE",
"1357 0 LINE",
"1364 69 LINE",
"1209 95 LINE",
"1375 1422 LINE",
"1516 1441 LINE",
"1525 1522 LINE",
"1085 1522 LINE",
"1078 1441 LINE",
"1225 1422 LINE",
"1151 830 LINE",
"426 830 LINE",
"501 1422 LINE",
"651 1441 LINE",
"660 1522 LINE",
"224 1522 LINE",
"215 1441 LINE",
"351 1422 LINE",
"184 94 LINE",
"34 69 LINE",
"27 0 LINE",
"484 0 LINE",
"490 70 LINE",
"334 94 LINE",
"413 726 LINE",
"1138 726 LINE",
"1060 95 LINE",
"900 70 LINE"
);
}
);
width = 1515;
},
{
anchors = (
{
name = btm;
position = "{914, -168}";
},
{
name = top;
position = "{979, 1700}";
}
);
layerId = "ECCAD73A-D96E-4C88-9DA5-23DA0E7E9E34";
paths = (
{
closed = 1;
nodes = (
"840 0 LINE",
"1543 0 LINE",
"1555 106 LINE",
"1398 136 LINE",
"1563 1386 LINE",
"1717 1412 LINE",
"1729 1522 LINE",
"1046 1522 LINE",
"1034 1412 LINE",
"1211 1386 LINE",
"1139 844 LINE",
"587 844 LINE",
"659 1386 LINE",
"839 1412 LINE",
"851 1522 LINE",
"176 1522 LINE",
"162 1412 LINE",
"307 1386 LINE",
"141 136 LINE",
"3 106 LINE",
"-8 0 LINE",
"659 0 LINE",
"667 106 LINE",
"493 136 LINE",
"568 704 LINE",
"1120 704 LINE",
"1045 136 LINE",
"854 106 LINE"
);
}
);
width = 1656;
}
);
unicode = 0048;
},
{
glyphname = Hbar;
lastChange = "2016-10-13 21:43:13 +0000";
layers = (
{
anchors = (
{
name = btm;
position = "{817, -168}";
},
{
name = top;
position = "{876, 1700}";
}
);
layerId = "8869C5F7-E59C-494D-926F-BD4E51EFDE49";
paths = (
{
closed = 1;
nodes = (
"887 0 LINE",
"1350 0 LINE",
"1356 69 LINE",
"1202 95 LINE",
"1318 1026 LINE",
"1534 1026 LINE",
"1545 1130 LINE",
"1331 1130 LINE",
"1368 1422 LINE",
"1508 1441 LINE",
"1518 1522 LINE",
"1078 1522 LINE",
"1070 1441 LINE",
"1218 1422 LINE",
"1181 1130 LINE",
"457 1130 LINE",
"494 1422 LINE",
"644 1441 LINE",
"652 1522 LINE",
"217 1522 LINE",
"207 1441 LINE",
"343 1422 LINE",
"306 1130 LINE",
"96 1130 LINE",
"85 1026 LINE",
"293 1026 LINE",
"176 94 LINE",
"27 69 LINE",
"20 0 LINE",
"476 0 LINE",
"482 70 LINE",
"327 94 LINE",
"397 655 LINE",
"1122 655 LINE",
"1052 95 LINE",
"893 70 LINE"
);
},
{
closed = 1;
nodes = (
"444 1026 LINE",
"1168 1026 LINE",
"1135 758 LINE",
"410 758 LINE"
);
}
);
width = 1515;
},
{
anchors = (
{
name = btm;
position = "{842, -168}";
},
{
name = top;
position = "{901, 1700}";
}
);
layerId = "ECCAD73A-D96E-4C88-9DA5-23DA0E7E9E34";
paths = (
{
closed = 1;
nodes = (
"842 0 LINE",
"1545 0 LINE",
"1557 106 LINE",
"1400 136 LINE",
"1507 982 LINE",
"1688 982 LINE",
"1702 1122 LINE",
"1524 1122 LINE",
"1559 1394 LINE",
"1713 1420 LINE",
"1725 1530 LINE",
"1042 1530 LINE",
"1030 1420 LINE",
"1207 1394 LINE",
"1172 1122 LINE",
"620 1122 LINE",
"655 1394 LINE",
"835 1420 LINE",
"847 1530 LINE",
"172 1530 LINE",
"158 1420 LINE",
"303 1394 LINE",
"268 1122 LINE",
"91 1122 LINE",
"77 982 LINE",
"250 982 LINE",
"143 136 LINE",
"5 106 LINE",
"-6 0 LINE",
"661 0 LINE",
"669 106 LINE",
"495 136 LINE",
"557 623 LINE",
"1109 623 LINE",
"1047 136 LINE",
"856 106 LINE"
);
},
{
closed = 1;
nodes = (
"603 982 LINE",
"1155 982 LINE",
"1127 763 LINE",
"575 763 LINE"
);
}
);
width = 1656;
}
);
unicode = 0126;
},
{
glyphname = I;
lastChange = "2016-10-13 21:43:13 +0000";
layers = (
{
anchors = (
{
name = btm;
position = "{395, -168}";
},
{
name = top;
position = "{500, 1700}";
}
);
layerId = "8869C5F7-E59C-494D-926F-BD4E51EFDE49";
paths = (
{
closed = 1;
nodes = (
"47 0 LINE",
"503 0 LINE",
"509 70 LINE",
"354 94 LINE",
"521 1422 LINE",
"671 1441 LINE",
"679 1522 LINE",
"244 1522 LINE",
"234 1441 LINE",
"370 1422 LINE",
"203 94 LINE",
"54 69 LINE"
);
}
);
width = 690;
},
{
anchors = (
{
name = btm;
position = "{492, -168}";
},
{
name = top;
position = "{528, 1700}";
}
);
layerId = "ECCAD73A-D96E-4C88-9DA5-23DA0E7E9E34";
paths = (
{
closed = 1;
nodes = (
"-18 0 LINE",
"665 0 LINE",
"672 106 LINE",
"497 136 LINE",
"662 1386 LINE",
"834 1412 LINE",
"846 1522 LINE",
"175 1522 LINE",
"163 1412 LINE",
"310 1386 LINE",
"145 136 LINE",
"-5 106 LINE"
);
}
);
width = 767;
}
);
unicode = 0049;
},
{
glyphname = Iogonek;
lastChange = "2016-10-13 21:43:13 +0000";
layers = (
{
layerId = "8869C5F7-E59C-494D-926F-BD4E51EFDE49";
paths = (
{
closed = 1;
nodes = (
"47 0 LINE",
"225 0 LINE",
"153 -40 OFFCURVE",
"66 -85 OFFCURVE",
"4 -174 CURVE SMOOTH",
"-17 -203 OFFCURVE",
"-30 -248 OFFCURVE",
"-32 -287 CURVE SMOOTH",
"-34 -346 OFFCURVE",
"7 -416 OFFCURVE",
"114 -416 CURVE SMOOTH",
"230 -416 OFFCURVE",
"312 -368 OFFCURVE",
"364 -322 CURVE",
"343 -245 LINE",
"294 -287 OFFCURVE",
"239 -313 OFFCURVE",
"184 -313 CURVE SMOOTH",
"145 -313 OFFCURVE",
"114 -286 OFFCURVE",
"117 -226 CURVE",
"118 -148 OFFCURVE",
"219 -71 OFFCURVE",
"316 0 CURVE",
"503 0 LINE",
"509 70 LINE",
"354 94 LINE",
"521 1422 LINE",
"671 1441 LINE",
"679 1522 LINE",
"244 1522 LINE",
"234 1441 LINE",
"370 1422 LINE",
"203 94 LINE",
"54 69 LINE"
);
}
);
width = 690;
},
{
layerId = "ECCAD73A-D96E-4C88-9DA5-23DA0E7E9E34";
paths = (
{
closed = 1;
nodes = (
"-18 0 LINE",
"223 0 LINE",
"155 -34 OFFCURVE",
"81 -81 OFFCURVE",
"12 -182 CURVE SMOOTH",
"-14 -220 OFFCURVE",
"-33 -273 OFFCURVE",
"-33 -306 CURVE SMOOTH",
"-33 -411 OFFCURVE",
"31 -480 OFFCURVE",
"160 -480 CURVE SMOOTH",
"305 -480 OFFCURVE",
"423 -409 OFFCURVE",
"504 -326 CURVE",
"468 -212 LINE",
"412 -256 OFFCURVE",
"370 -287 OFFCURVE",
"315 -287 CURVE SMOOTH",
"276 -287 OFFCURVE",
"248 -272 OFFCURVE",
"248 -215 CURVE SMOOTH",
"248 -152 OFFCURVE",
"332 -74 OFFCURVE",
"442 0 CURVE",
"665 0 LINE",
"672 106 LINE",
"497 136 LINE",
"662 1386 LINE",
"834 1412 LINE",
"846 1522 LINE",
"175 1522 LINE",
"163 1412 LINE",
"310 1386 LINE",
"145 136 LINE",
"-5 106 LINE"
);
}
);
width = 767;
}
);
unicode = 012E;
},
{
glyphname = J;
lastChange = "2016-10-13 21:43:13 +0000";
layers = (
{
anchors = (
{
name = btm;
position = "{269, -168}";
},
{
name = top;
position = "{492, 1700}";
}
);
layerId = "8869C5F7-E59C-494D-926F-BD4E51EFDE49";
paths = (
{
closed = 1;
nodes = (
"220 90 CURVE SMOOTH",
"183 -74 OFFCURVE",
"27 -227 OFFCURVE",
"-155 -274 CURVE",
"-127 -345 LINE",
"74 -310 OFFCURVE",
"284 -197 OFFCURVE",
"365 75 CURVE SMOOTH",
"394 170 OFFCURVE",
"457 752 OFFCURVE",
"530 1423 CURVE",
"704 1441 LINE",
"712 1522 LINE",
"228 1522 LINE",
"217 1441 LINE",
"385 1423 LINE",
"335 988 OFFCURVE",
"288 411 OFFCURVE"
);
}
);
width = 706;
},
{
anchors = (
{
name = btm;
position = "{288, -168}";
},
{
name = top;
position = "{500, 1700}";
}
);
layerId = "ECCAD73A-D96E-4C88-9DA5-23DA0E7E9E34";
paths = (
{
closed = 1;
nodes = (
"132 86 CURVE SMOOTH",
"107 -45 OFFCURVE",
"30 -170 OFFCURVE",
"-188 -237 CURVE",
"-136 -345 LINE",
"143 -306 OFFCURVE",
"399 -160 OFFCURVE",
"481 75 CURVE SMOOTH",
"514 170 OFFCURVE",
"594 825 OFFCURVE",
"663 1386 CURVE",
"807 1412 LINE",
"818 1522 LINE",
"182 1522 LINE",
"167 1412 LINE",
"314 1385 LINE",
"266 950 OFFCURVE",
"205 476 OFFCURVE"
);
}
);
width = 739;
}
);
unicode = 004A;
},
{
glyphname = K;
lastChange = "2016-10-13 21:43:13 +0000";
layers = (
{
anchors = (
{
name = btm;
position = "{666, -168}";
},
{
name = top;
position = "{890, 1702}";
}
);
layerId = "8869C5F7-E59C-494D-926F-BD4E51EFDE49";
paths = (
{
closed = 1;
nodes = (
"1044 0 CURVE",
"1284 0 LINE",
"1294 75 LINE",
"1159 111 LINE",
"1117 136 OFFCURVE",
"1069 210 OFFCURVE",
"945 409 CURVE",
"873 519 OFFCURVE",
"760 714 OFFCURVE",
"695 820 CURVE",
"1255 1423 LINE",
"1375 1441 LINE",
"1386 1522 LINE",
"976 1522 LINE",
"966 1441 LINE",
"1106 1422 LINE",
"402 636 LINE",
"501 1422 LINE",
"651 1441 LINE",
"660 1522 LINE",
"224 1522 LINE",
"215 1441 LINE",
"351 1422 LINE",
"184 94 LINE",
"34 69 LINE",
"27 0 LINE",
"484 0 LINE",
"490 70 LINE",
"334 94 LINE",
"383 484 LINE",
"602 720 LINE",
"656 630 OFFCURVE",
"745 472 OFFCURVE",
"813 358 CURVE SMOOTH",
"896 218 OFFCURVE",
"997 5 OFFCURVE"
);
}
);
width = 1347;
},
{
anchors = (
{
name = btm;
position = "{750, -168}";
},
{
name = top;
position = "{998, 1702}";
}
);
layerId = "ECCAD73A-D96E-4C88-9DA5-23DA0E7E9E34";
paths = (
{
closed = 1;
nodes = (
"1057 0 CURVE",
"1491 0 LINE",
"1503 106 LINE",
"1386 136 LINE",
"1339 161 OFFCURVE",
"1282 276 OFFCURVE",
"1187 465 CURVE SMOOTH",
"1133 572 OFFCURVE",
"1022 829 OFFCURVE",
"962 921 CURVE",
"1427 1386 LINE",
"1554 1412 LINE",
"1566 1522 LINE",
"1065 1522 LINE",
"1054 1413 LINE",
"1189 1386 LINE",
"566 722 LINE",
"654 1386 LINE",
"834 1412 LINE",
"846 1522 LINE",
"171 1522 LINE",
"157 1412 LINE",
"302 1386 LINE",
"137 136 LINE",
"-9 106 LINE",
"-22 0 LINE",
"654 0 LINE",
"663 106 LINE",
"489 136 LINE",
"536 495 LINE",
"726 685 LINE",
"798 539 OFFCURVE",
"863 335 OFFCURVE",
"915 204 CURVE SMOOTH",
"978 46 OFFCURVE",
"997 7 OFFCURVE"
);
}
);
width = 1486;
}
);
unicode = 004B;
},
{
glyphname = L;
lastChange = "2016-10-13 21:43:13 +0000";
layers = (
{
anchors = (
{
name = btm;
position = "{574, -168}";
},
{
name = top;
position = "{492, 1702}";
}
);
layerId = "8869C5F7-E59C-494D-926F-BD4E51EFDE49";
paths = (
{
closed = 1;
nodes = (
"28 0 LINE",
"998 0 LINE",
"1094 431 LINE",
"1004 449 LINE",
"879 103 LINE",
"334 94 LINE",
"501 1422 LINE",
"677 1441 LINE",
"685 1522 LINE",
"224 1522 LINE",
"215 1441 LINE",
"351 1422 LINE",
"184 94 LINE",
"34 70 LINE"
);
}
);
width = 1168;
},
{
anchors = (
{
name = btm;
position = "{517, -168}";
},
{
name = top;
position = "{582, 1702}";
}
);
layerId = "ECCAD73A-D96E-4C88-9DA5-23DA0E7E9E34";
paths = (
{
closed = 1;
nodes = (
"-13 0 LINE",
"1135 0 LINE",
"1239 577 LINE",
"1058 600 LINE",
"847 149 LINE",
"488 129 LINE",
"654 1386 LINE",
"836 1412 LINE",
"848 1522 LINE",
"169 1522 LINE",
"156 1412 LINE",
"302 1386 LINE",
"137 136 LINE",
"-1 106 LINE"
);
}
);
width = 1269;
}
);
unicode = 004C;
},
{
glyphname = Lslash;
lastChange = "2016-10-13 21:43:13 +0000";
layers = (
{
layerId = "8869C5F7-E59C-494D-926F-BD4E51EFDE49";
paths = (
{
closed = 1;
nodes = (
"88 512 LINE",
"244 578 LINE",
"184 96 LINE",
"34 72 LINE",
"28 2 LINE",
"998 2 LINE",
"1094 433 LINE",
"1004 451 LINE",
"879 105 LINE",
"334 96 LINE",
"403 646 LINE",
"894 855 LINE",
"867 957 LINE",
"417 762 LINE",
"501 1424 LINE",
"677 1443 LINE",
"685 1524 LINE",
"224 1524 LINE",
"215 1443 LINE",
"351 1424 LINE",
"259 693 LINE",
"60 607 LINE"
);
}
);
width = 1168;
},
{
layerId = "ECCAD73A-D96E-4C88-9DA5-23DA0E7E9E34";
paths = (
{
closed = 1;
nodes = (
"45 483 LINE",
"190 540 LINE",
"137 138 LINE",
"-1 108 LINE",
"-13 2 LINE",
"1135 2 LINE",
"1239 579 LINE",
"1058 602 LINE",
"847 151 LINE",
"488 131 LINE",
"561 688 LINE",
"920 830 LINE",
"885 957 LINE",
"580 833 LINE",
"654 1388 LINE",
"836 1414 LINE",
"848 1524 LINE",
"169 1524 LINE",
"156 1414 LINE",
"302 1388 LINE",
"208 682 LINE",
"9 601 LINE"
);
}
);
width = 1269;
}
);
unicode = 0141;
},
{
glyphname = M;
lastChange = "2016-10-13 21:43:13 +0000";
layers = (
{
anchors = (
{
name = btm;
position = "{1038, -168}";
},
{
name = top;
position = "{1079, 1700}";
}
);
layerId = "8869C5F7-E59C-494D-926F-BD4E51EFDE49";
paths = (
{
closed = 1;
nodes = (
"-49 0 LINE",
"449 0 LINE",
"455 70 LINE",
"255 94 LINE",
"478 1034 LINE",
"561 1438 LINE",
"629 1042 LINE",
"809 -18 LINE",
"895 -4 LINE",
"1386 1066 LINE",
"1544 1440 LINE",
"1515 1018 LINE",
"1474 93 LINE",
"1288 70 LINE",
"1280 0 LINE",
"1787 0 LINE",
"1794 70 LINE",
"1624 95 LINE",
"1663 1422 LINE",
"1845 1441 LINE",
"1853 1522 LINE",
"1479 1522 LINE",
"1371 1250 OFFCURVE",
"1100 731 OFFCURVE",
"993 459 CURVE",
"891 239 LINE",
"860 463 LINE",
"683 1522 LINE",
"286 1522 LINE",
"277 1441 LINE",
"462 1422 LINE",
"131 94 LINE",
"-41 70 LINE"
);
}
);
width = 1874;
},
{
anchors = (
{
name = btm;
position = "{1140, -168}";
},
{
name = top;
position = "{1190, 1700}";
}
);
layerId = "ECCAD73A-D96E-4C88-9DA5-23DA0E7E9E34";
paths = (
{
closed = 1;
nodes = (
"-88 0 LINE",
"526 0 LINE",
"536 107 LINE",
"311 136 LINE",
"520 1002 LINE",
"607 1387 LINE",
"661 1012 LINE",
"797 -18 LINE",
"966 -3 LINE",
"1405 1036 LINE",
"1548 1386 LINE",
"1528 988 LINE",
"1471 136 LINE",
"1282 108 LINE",
"1273 0 LINE",
"1987 0 LINE",
"1995 106 LINE",
"1814 136 LINE",
"1854 1386 LINE",
"2030 1412 LINE",
"2043 1522 LINE",
"1433 1522 LINE",
"1099 680 LINE",
"1044 509 LINE",
"1023 680 LINE",
"924 1522 LINE",
"233 1522 LINE",
"217 1412 LINE",
"411 1386 LINE",
"85 136 LINE",
"-76 106 LINE"
);
}
);
width = 2021;
}
);
unicode = 004D;
},
{
glyphname = N;
lastChange = "2016-10-13 21:43:13 +0000";
layers = (
{
anchors = (
{
name = btm;
position = "{689, -170}";
},
{
name = top;
position = "{875, 1700}";
}
);
layerId = "8869C5F7-E59C-494D-926F-BD4E51EFDE49";
paths = (
{
closed = 1;
nodes = (
"30 0 LINE",
"469 0 LINE",
"476 70 LINE",
"305 94 LINE",
"446 1367 LINE",
"526 1138 LINE",
"1039 0 LINE",
"1184 0 LINE",
"1379 1422 LINE",
"1533 1441 LINE",
"1541 1522 LINE",
"1108 1522 LINE",
"1098 1441 LINE",
"1259 1423 LINE",
"1108 147 LINE",
"1029 374 LINE",
"512 1522 LINE",
"217 1522 LINE",
"204 1441 LINE",
"350 1422 LINE",
"177 92 LINE",
"36 69 LINE"
);
}
);
width = 1510;
},
{
anchors = (
{
name = btm;
position = "{689, -170}";
},
{
name = top;
position = "{922, 1700}";
}
);
layerId = "ECCAD73A-D96E-4C88-9DA5-23DA0E7E9E34";
paths = (
{
closed = 1;
nodes = (
"-19 0 LINE",
"534 0 LINE",
"545 106 LINE",
"355 136 LINE",
"480 1274 LINE",
"558 1020 LINE",
"949 0 LINE",
"1307 0 LINE",
"1519 1386 LINE",
"1642 1412 LINE",
"1653 1522 LINE",
"1151 1522 LINE",
"1140 1412 LINE",
"1312 1386 LINE",
"1176 305 LINE",
"1098 535 LINE",
"727 1522 LINE",
"170 1522 LINE",
"154 1412 LINE",
"324 1386 LINE",
"138 136 LINE",
"-11 106 LINE"
);
}
);
width = 1554;
}
);
unicode = 004E;
},
{
glyphname = Eng;
lastChange = "2016-10-13 21:43:13 +0000";
layers = (
{
layerId = "8869C5F7-E59C-494D-926F-BD4E51EFDE49";
paths = (
{
closed = 1;
nodes = (
"29 0 LINE",
"469 0 LINE",
"475 70 LINE",
"309 94 LINE",
"446 1324 LINE",
"522 1124 LINE",
"1040 -4 LINE",
"1010 -154 OFFCURVE",
"853 -246 OFFCURVE",
"694 -294 CURVE",
"721 -365 LINE",
"907 -329 OFFCURVE",
"1152 -239 OFFCURVE",
"1184 0 CURVE SMOOTH",
"1376 1424 LINE",
"1529 1443 LINE",
"1537 1524 LINE",
"1107 1524 LINE",
"1098 1443 LINE",
"1251 1424 LINE",
"1106 177 LINE",
"1034 374 LINE",
"512 1524 LINE",
"216 1524 LINE",
"203 1443 LINE",
"353 1424 LINE",
"176 92 LINE",
"36 69 LINE"
);
}
);
width = 1510;
},
{
layerId = "ECCAD73A-D96E-4C88-9DA5-23DA0E7E9E34";
paths = (
{
closed = 1;
nodes = (
"-22 0 LINE",
"531 0 LINE",
"542 106 LINE",
"352 136 LINE",
"472 1282 LINE",
"550 1028 LINE",
"1017 0 LINE",
"1031 -201 OFFCURVE",
"853 -343 OFFCURVE",
"725 -367 CURVE",
"773 -485 LINE",
"1084 -467 OFFCURVE",
"1269 -239 OFFCURVE",
"1304 0 CURVE SMOOTH",
"1511 1394 LINE",
"1634 1420 LINE",
"1645 1530 LINE",
"1143 1530 LINE",
"1132 1420 LINE",
"1304 1394 LINE",
"1181 370 LINE",
"1110 620 LINE",
"719 1530 LINE",
"162 1530 LINE",
"146 1420 LINE",
"316 1394 LINE",
"135 136 LINE",
"-14 106 LINE"
);
}
);
width = 1554;
}
);
unicode = 014A;
},
{
glyphname = O;
lastChange = "2016-10-13 21:43:13 +0000";
layers = (
{
anchors = (
{
name = btm;
position = "{590, -170}";
},
{
name = top;
position = "{833, 1700}";
}
);
layerId = "8869C5F7-E59C-494D-926F-BD4E51EFDE49";
paths = (
{
closed = 1;
nodes = (
"116 619 CURVE SMOOTH",
"121 263 OFFCURVE",
"292 -20 OFFCURVE",
"619 -20 CURVE SMOOTH",
"1017 -20 OFFCURVE",
"1315 378 OFFCURVE",
"1306 908 CURVE SMOOTH",
"1300 1253 OFFCURVE",
"1141 1542 OFFCURVE",
"809 1542 CURVE SMOOTH",
"413 1542 OFFCURVE",
"109 1151 OFFCURVE"
);
},
{
closed = 1;
nodes = (
"640 76 CURVE SMOOTH",
"409 76 OFFCURVE",
"273 301 OFFCURVE",
"269 642 CURVE SMOOTH",
"263 1111 OFFCURVE",
"490 1441 OFFCURVE",
"784 1441 CURVE SMOOTH",
"1021 1441 OFFCURVE",
"1143 1212 OFFCURVE",
"1149 882 CURVE SMOOTH",
"1158 416 OFFCURVE",
"934 76 OFFCURVE"
);
}
);
width = 1382;
},
{
anchors = (
{
name = btm;
position = "{617, -170}";
},
{
name = top;
position = "{844, 1700}";
}
);
layerId = "ECCAD73A-D96E-4C88-9DA5-23DA0E7E9E34";
paths = (
{
closed = 1;
nodes = (
"61 637 CURVE SMOOTH",
"61 264 OFFCURVE",
"226 -20 OFFCURVE",
"641 -20 CURVE SMOOTH",
"1206 -20 OFFCURVE",
"1431 440 OFFCURVE",
"1431 893 CURVE SMOOTH",
"1431 1238 OFFCURVE",
"1274 1542 OFFCURVE",
"851 1542 CURVE SMOOTH",
"311 1542 OFFCURVE",
"61 1099 OFFCURVE"
);
},
{
closed = 1;
nodes = (
"670 102 CURVE SMOOTH",
"475 102 OFFCURVE",
"442 392 OFFCURVE",
"442 649 CURVE SMOOTH",
"442 1037 OFFCURVE",
"576 1418 OFFCURVE",
"824 1418 CURVE SMOOTH",
"989 1418 OFFCURVE",
"1050 1217 OFFCURVE",
"1050 881 CURVE SMOOTH",
"1050 451 OFFCURVE",
"930 102 OFFCURVE"
);
}
);
width = 1462;
}
);
unicode = 004F;
},
{
glyphname = Oslash;
lastChange = "2016-10-13 21:43:13 +0000";
layers = (
{
layerId = "8869C5F7-E59C-494D-926F-BD4E51EFDE49";
paths = (
{
closed = 1;
nodes = (
"116 621 CURVE SMOOTH",
"119 420 OFFCURVE",
"174 242 OFFCURVE",
"281 126 CURVE",
"128 -130 LINE",
"200 -166 LINE",
"344 69 LINE",
"418 13 OFFCURVE",
"510 -18 OFFCURVE",
"619 -18 CURVE SMOOTH",
"1017 -18 OFFCURVE",
"1315 380 OFFCURVE",
"1306 910 CURVE SMOOTH",
"1302 1122 OFFCURVE",
"1241 1313 OFFCURVE",
"1117 1428 CURVE",
"1252 1658 LINE",
"1181 1693 LINE",
"1052 1478 LINE",
"985 1520 OFFCURVE",
"904 1544 OFFCURVE",
"809 1544 CURVE SMOOTH",
"413 1544 OFFCURVE",
"109 1153 OFFCURVE"
);
},
{
closed = 1;
nodes = (
"640 78 CURVE SMOOTH",
"546 78 OFFCURVE",
"469 115 OFFCURVE",
"409 181 CURVE",
"1038 1309 LINE",
"1108 1210 OFFCURVE",
"1146 1062 OFFCURVE",
"1149 884 CURVE SMOOTH",
"1158 418 OFFCURVE",
"934 78 OFFCURVE"
);
},
{
closed = 1;
nodes = (
"269 644 CURVE SMOOTH",
"263 1113 OFFCURVE",
"490 1443 OFFCURVE",
"784 1443 CURVE SMOOTH",
"867 1443 OFFCURVE",
"935 1415 OFFCURVE",
"990 1364 CURVE",
"363 243 LINE",
"304 341 OFFCURVE",
"271 479 OFFCURVE"
);
}
);
width = 1386;
},
{
layerId = "ECCAD73A-D96E-4C88-9DA5-23DA0E7E9E34";
paths = (
{
closed = 1;
nodes = (
"65 639 CURVE SMOOTH",
"65 420 OFFCURVE",
"122 233 OFFCURVE",
"252 115 CURVE",
"120 -73 LINE",
"209 -132 LINE",
"335 54 LINE",
"417 8 OFFCURVE",
"520 -18 OFFCURVE",
"645 -18 CURVE SMOOTH",
"1210 -18 OFFCURVE",
"1435 442 OFFCURVE",
"1435 895 CURVE SMOOTH",
"1435 1107 OFFCURVE",
"1375 1304 OFFCURVE",
"1231 1424 CURVE",
"1370 1621 LINE",
"1281 1680 LINE",
"1145 1481 LINE",
"1067 1521 OFFCURVE",
"971 1544 OFFCURVE",
"855 1544 CURVE SMOOTH",
"315 1544 OFFCURVE",
"65 1101 OFFCURVE"
);
},
{
closed = 1;
nodes = (
"674 104 CURVE SMOOTH",
"581 104 OFFCURVE",
"525 169 OFFCURVE",
"492 266 CURVE",
"1035 1155 LINE",
"1048 1079 OFFCURVE",
"1054 987 OFFCURVE",
"1054 883 CURVE SMOOTH",
"1054 453 OFFCURVE",
"934 104 OFFCURVE"
);
},
{
closed = 1;
nodes = (
"446 651 CURVE SMOOTH",
"446 1039 OFFCURVE",
"580 1420 OFFCURVE",
"828 1420 CURVE SMOOTH",
"912 1420 OFFCURVE",
"970 1367 OFFCURVE",
"1005 1270 CURVE",
"463 387 LINE",
"450 470 OFFCURVE",
"446 562 OFFCURVE"
);
}
);
width = 1462;
}
);
unicode = 00D8;
},
{
glyphname = OE;
lastChange = "2016-10-13 21:43:13 +0000";
layers = (
{
layerId = "8869C5F7-E59C-494D-926F-BD4E51EFDE49";
paths = (
{
closed = 1;
nodes = (
"102 621 CURVE SMOOTH",
"109 220 OFFCURVE",
"313 -20 OFFCURVE",
"618 -20 CURVE SMOOTH",
"838 -20 OFFCURVE",
"1025 108 OFFCURVE",
"1145 314 CURVE",
"1108 0 LINE",
"1969 0 LINE",
"2040 299 LINE",
"1960 324 LINE",
"1865 113 LINE",
"1272 94 LINE",
"1351 734 LINE",
"1794 721 LINE",
"1805 853 LINE",
"1359 834 LINE",
"1438 1435 LINE",
"1919 1423 LINE",
"1953 1228 LINE",
"2035 1228 LINE",
"2042 1522 LINE",
"1290 1522 LINE",
"1248 1169 LINE",
"1183 1388 OFFCURVE",
"1035 1540 OFFCURVE",
"805 1540 CURVE SMOOTH",
"413 1540 OFFCURVE",
"92 1155 OFFCURVE"
);
},
{
closed = 1;
nodes = (
"640 76 CURVE",
"380 78 OFFCURVE",
"262 310 OFFCURVE",
"257 692 CURVE SMOOTH",
"251 1119 OFFCURVE",
"487 1439 OFFCURVE",
"780 1439 CURVE SMOOTH",
"1019 1439 OFFCURVE",
"1142 1252 OFFCURVE",
"1148 872 CURVE SMOOTH",
"1155 416 OFFCURVE",
"933 75 OFFCURVE"
);
}
);
width = 2110;
},
{
layerId = "ECCAD73A-D96E-4C88-9DA5-23DA0E7E9E34";
paths = (
{
closed = 1;
nodes = (
"61 637 CURVE SMOOTH",
"61 264 OFFCURVE",
"232 -20 OFFCURVE",
"651 -20 CURVE SMOOTH",
"875 -20 OFFCURVE",
"1035 51 OFFCURVE",
"1147 165 CURVE",
"1126 0 LINE",
"2208 0 LINE",
"2278 454 LINE",
"2065 468 LINE",
"1948 171 LINE",
"1484 136 LINE",
"1563 712 LINE",
"2000 676 LINE",
"2040 911 LINE",
"1582 868 LINE",
"1655 1402 LINE",
"1994 1376 LINE",
"2028 1152 LINE",
"2250 1152 LINE",
"2286 1522 LINE",
"1319 1522 LINE",
"1294 1325 LINE",
"1219 1456 OFFCURVE",
"1087 1542 OFFCURVE",
"861 1542 CURVE SMOOTH",
"307 1542 OFFCURVE",
"61 1099 OFFCURVE"
);
},
{
closed = 1;
nodes = (
"680 102 CURVE SMOOTH",
"467 102 OFFCURVE",
"432 392 OFFCURVE",
"432 649 CURVE SMOOTH",
"432 1037 OFFCURVE",
"573 1418 OFFCURVE",
"834 1418 CURVE SMOOTH",
"1013 1418 OFFCURVE",
"1080 1217 OFFCURVE",
"1080 881 CURVE SMOOTH",
"1080 451 OFFCURVE",
"954 102 OFFCURVE"
);
}
);
width = 2306;
}
);
unicode = 0152;
},
{
glyphname = P;
lastChange = "2016-10-13 21:43:13 +0000";
layers = (
{
anchors = (
{
name = btm;
position = "{240, -170}";
},
{
name = top;
position = "{821, 1700}";
}
);
layerId = "8869C5F7-E59C-494D-926F-BD4E51EFDE49";
paths = (
{
closed = 1;
nodes = (
"27 0 LINE",
"512 0 LINE",
"519 70 LINE",
"335 94 LINE",
"390 553 LINE",
"426 550 OFFCURVE",
"506 544 OFFCURVE",
"596 544 CURVE SMOOTH",
"930 544 OFFCURVE",
"1217 758 OFFCURVE",
"1210 1151 CURVE SMOOTH",
"1206 1416 OFFCURVE",
"1042 1539 OFFCURVE",
"753 1539 CURVE SMOOTH",
"648 1539 OFFCURVE",
"559 1522 OFFCURVE",
"451 1522 CURVE SMOOTH",
"224 1522 LINE",
"215 1441 LINE",
"350 1422 LINE",
"184 94 LINE",
"34 69 LINE"
);
},
{
closed = 1;
nodes = (
"401 657 CURVE",
"502 1423 LINE",
"569 1433 OFFCURVE",
"666 1442 OFFCURVE",
"729 1443 CURVE SMOOTH",
"971 1449 OFFCURVE",
"1053 1337 OFFCURVE",
"1051 1136 CURVE SMOOTH",
"1047 813 OFFCURVE",
"904 643 OFFCURVE",
"603 640 CURVE SMOOTH",
"542 640 OFFCURVE",
"462 647 OFFCURVE"
);
}
);
width = 1223;
},
{
anchors = (
{
name = btm;
position = "{277, -170}";
},
{
name = top;
position = "{859, 1700}";
}
);
layerId = "ECCAD73A-D96E-4C88-9DA5-23DA0E7E9E34";
paths = (
{
closed = 1;
nodes = (
"-13 0 LINE",
"765 0 LINE",
"773 106 LINE",
"495 136 LINE",
"541 518 LINE",
"567 515 OFFCURVE",
"597 514 OFFCURVE",
"658 514 CURVE SMOOTH",
"1103 514 OFFCURVE",
"1384 738 OFFCURVE",
"1372 1131 CURVE SMOOTH",
"1364 1394 OFFCURVE",
"1218 1538 OFFCURVE",
"813 1538 CURVE SMOOTH",
"710 1538 OFFCURVE",
"607 1522 OFFCURVE",
"486 1522 CURVE SMOOTH",
"170 1522 LINE",
"156 1412 LINE",
"304 1386 LINE",
"136 136 LINE",
"-2 106 LINE"
);
},
{
closed = 1;
nodes = (
"557 654 CURVE",
"659 1403 LINE",
"693 1410 OFFCURVE",
"720 1412 OFFCURVE",
"748 1412 CURVE SMOOTH",
"906 1412 OFFCURVE",
"1012 1330 OFFCURVE",
"1011 1124 CURVE SMOOTH",
"1010 840 OFFCURVE",
"880 649 OFFCURVE",
"667 646 CURVE SMOOTH",
"635 645 OFFCURVE",
"598 644 OFFCURVE"
);
}
);
width = 1341;
}
);
unicode = 0050;
},
{
glyphname = Thorn;
lastChange = "2016-10-13 21:43:13 +0000";
layers = (
{
layerId = "8869C5F7-E59C-494D-926F-BD4E51EFDE49";
paths = (
{
closed = 1;
nodes = (
"27 0 LINE",
"496 0 LINE",
"502 70 LINE",
"334 94 LINE",
"362 321 LINE",
"401 318 OFFCURVE",
"475 314 OFFCURVE",
"594 314 CURVE SMOOTH",
"917 314 OFFCURVE",
"1182 513 OFFCURVE",
"1182 829 CURVE SMOOTH",
"1182 1074 OFFCURVE",
"1021 1213 OFFCURVE",
"721 1213 CURVE SMOOTH",
"645 1213 OFFCURVE",
"545 1206 OFFCURVE",
"471 1194 CURVE",
"501 1430 LINE",
"651 1449 LINE",
"660 1530 LINE",
"224 1530 LINE",
"215 1449 LINE",
"351 1430 LINE",
"184 94 LINE",
"34 69 LINE"
);
},
{
closed = 1;
nodes = (
"682 1117 CURVE SMOOTH",
"951 1117 OFFCURVE",
"1029 1005 OFFCURVE",
"1032 795 CURVE",
"1034 569 OFFCURVE",
"874 405 OFFCURVE",
"592 405 CURVE SMOOTH",
"508 405 OFFCURVE",
"436 409 OFFCURVE",
"374 418 CURVE",
"459 1098 LINE",
"511 1108 OFFCURVE",
"618 1117 OFFCURVE"
);
}
);
width = 1227;
},
{
layerId = "ECCAD73A-D96E-4C88-9DA5-23DA0E7E9E34";
paths = (
{
closed = 1;
nodes = (
"-8 0 LINE",
"659 0 LINE",
"667 106 LINE",
"493 136 LINE",
"524 370 LINE",
"545 368 OFFCURVE",
"576 367 OFFCURVE",
"635 367 CURVE SMOOTH",
"1234 367 OFFCURVE",
"1347 648 OFFCURVE",
"1339 866 CURVE SMOOTH",
"1333 1031 OFFCURVE",
"1257 1194 OFFCURVE",
"841 1194 CURVE SMOOTH",
"771 1194 OFFCURVE",
"701 1189 OFFCURVE",
"632 1185 CURVE",
"659 1386 LINE",
"839 1412 LINE",
"851 1522 LINE",
"176 1522 LINE",
"162 1412 LINE",
"307 1386 LINE",
"141 136 LINE",
"3 106 LINE"
);
},
{
closed = 1;
nodes = (
"732 1064 CURVE SMOOTH",
"875 1064 OFFCURVE",
"964 988 OFFCURVE",
"969 840 CURVE SMOOTH",
"978 602 OFFCURVE",
"827 504 OFFCURVE",
"653 504 CURVE SMOOTH",
"609 504 OFFCURVE",
"578 503 OFFCURVE",
"541 504 CURVE",
"614 1051 LINE",
"656 1059 OFFCURVE",
"705 1064 OFFCURVE"
);
}
);
width = 1309;
}
);
unicode = 00DE;
},
{
glyphname = Q;
lastChange = "2016-10-13 21:43:13 +0000";
layers = (
{
anchors = (
{
name = btm;
position = "{662, -168}";
},
{
name = top;
position = "{882, 1700}";
}
);
layerId = "8869C5F7-E59C-494D-926F-BD4E51EFDE49";
paths = (
{
closed = 1;
nodes = (
"113 620 CURVE SMOOTH",
"118 277 OFFCURVE",
"276 2 OFFCURVE",
"580 -18 CURVE",
"543 -248 OFFCURVE",
"727 -358 OFFCURVE",
"925 -358 CURVE SMOOTH",
"1037 -358 OFFCURVE",
"1154 -314 OFFCURVE",
"1203 -274 CURVE",
"1201 -166 LINE",
"1143 -195 OFFCURVE",
"1046 -217 OFFCURVE",
"977 -217 CURVE SMOOTH",
"825 -217 OFFCURVE",
"682 -187 OFFCURVE",
"679 -15 CURVE",
"1045 24 OFFCURVE",
"1311 407 OFFCURVE",
"1303 909 CURVE SMOOTH",
"1297 1254 OFFCURVE",
"1138 1543 OFFCURVE",
"806 1543 CURVE SMOOTH",
"410 1543 OFFCURVE",
"106 1152 OFFCURVE"
);
},
{
closed = 1;
nodes = (
"637 77 CURVE SMOOTH",
"406 77 OFFCURVE",
"270 302 OFFCURVE",
"266 643 CURVE SMOOTH",
"260 1112 OFFCURVE",
"487 1442 OFFCURVE",
"781 1442 CURVE SMOOTH",
"1018 1442 OFFCURVE",
"1140 1213 OFFCURVE",
"1146 883 CURVE SMOOTH",
"1155 417 OFFCURVE",
"931 77 OFFCURVE"
);
}
);
width = 1386;
},
{
anchors = (
{
name = btm;
position = "{702, -168}";
},
{
name = top;
position = "{944, 1700}";
}
);
layerId = "ECCAD73A-D96E-4C88-9DA5-23DA0E7E9E34";
paths = (
{
closed = 1;
nodes = (
"62 636 CURVE SMOOTH",
"62 263 OFFCURVE",
"227 -21 OFFCURVE",
"642 -21 CURVE SMOOTH",
"646 -21 OFFCURVE",
"649 -20 OFFCURVE",
"653 -20 CURVE",
"563 -287 OFFCURVE",
"667 -439 OFFCURVE",
"1010 -439 CURVE SMOOTH",
"1213 -439 OFFCURVE",
"1346 -368 OFFCURVE",
"1398 -328 CURVE",
"1396 -142 LINE",
"1311 -169 OFFCURVE",
"1168 -181 OFFCURVE",
"1107 -181 CURVE SMOOTH",
"944 -181 OFFCURVE",
"816 -165 OFFCURVE",
"818 -4 CURVE",
"1254 82 OFFCURVE",
"1432 489 OFFCURVE",
"1432 892 CURVE SMOOTH",
"1432 1237 OFFCURVE",
"1275 1541 OFFCURVE",
"852 1541 CURVE SMOOTH",
"312 1541 OFFCURVE",
"62 1098 OFFCURVE"
);
},
{
closed = 1;
nodes = (
"671 101 CURVE SMOOTH",
"476 101 OFFCURVE",
"443 391 OFFCURVE",
"443 648 CURVE SMOOTH",
"443 1036 OFFCURVE",
"577 1417 OFFCURVE",
"825 1417 CURVE SMOOTH",
"990 1417 OFFCURVE",
"1051 1216 OFFCURVE",
"1051 880 CURVE SMOOTH",
"1051 450 OFFCURVE",
"931 101 OFFCURVE"
);
}
);
width = 1464;
}
);
unicode = 0051;
},
{
glyphname = R;
lastChange = "2016-10-13 21:43:13 +0000";
layers = (
{
anchors = (
{
name = btm;
position = "{678, -170}";
},
{
name = top;
position = "{808, 1700}";
}
);
layerId = "8869C5F7-E59C-494D-926F-BD4E51EFDE49";
paths = (
{
closed = 1;
nodes = (
"42 0 LINE",
"512 0 LINE",
"518 70 LINE",
"329 94 LINE",
"396 671 LINE",
"453 670 OFFCURVE",
"616 671 OFFCURVE",
"632 671 CURVE SMOOTH",
"726 674 OFFCURVE",
"824 440 OFFCURVE",
"905 250 CURVE",
"988 42 OFFCURVE",
"1027 0 OFFCURVE",
"1073 0 CURVE SMOOTH",
"1263 0 LINE",
"1266 79 LINE",
"1126 80 OFFCURVE",
"1133 105 OFFCURVE",
"1024 337 CURVE",
"982 422 OFFCURVE",
"877 632 OFFCURVE",
"798 690 CURVE",
"1045 754 OFFCURVE",
"1203 948 OFFCURVE",
"1198 1198 CURVE SMOOTH",
"1194 1434 OFFCURVE",
"1048 1538 OFFCURVE",
"720 1538 CURVE SMOOTH",
"636 1538 OFFCURVE",
"547 1522 OFFCURVE",
"463 1522 CURVE SMOOTH",
"224 1522 LINE",
"215 1441 LINE",
"351 1422 LINE",
"184 94 LINE",
"49 69 LINE"
);
},
{
closed = 1;
nodes = (
"408 766 CURVE",
"496 1427 LINE",
"550 1435 OFFCURVE",
"664 1443 OFFCURVE",
"695 1443 CURVE SMOOTH",
"960 1443 OFFCURVE",
"1043 1358 OFFCURVE",
"1047 1183 CURVE SMOOTH",
"1051 959 OFFCURVE",
"904 779 OFFCURVE",
"665 764 CURVE SMOOTH",
"625 761 OFFCURVE",
"459 763 OFFCURVE"
);
}
);
width = 1330;
},
{
anchors = (
{
name = btm;
position = "{722, -170}";
},
{
name = top;
position = "{876, 1700}";
}
);
layerId = "ECCAD73A-D96E-4C88-9DA5-23DA0E7E9E34";
paths = (
{
closed = 1;
nodes = (
"-13 0 LINE",
"663 0 LINE",
"669 106 LINE",
"485 136 LINE",
"551 661 LINE",
"619 661 OFFCURVE",
"734 662 OFFCURVE",
"734 662 CURVE",
"768 613 OFFCURVE",
"850 368 OFFCURVE",
"915 188 CURVE SMOOTH",
"949 95 OFFCURVE",
"978 0 OFFCURVE",
"1005 1 CURVE",
"1420 -1 LINE",
"1430 106 LINE",
"1307 109 OFFCURVE",
"1280 190 OFFCURVE",
"1199 369 CURVE",
"1168 450 OFFCURVE",
"1099 640 OFFCURVE",
"1046 702 CURVE",
"1256 776 OFFCURVE",
"1384 941 OFFCURVE",
"1384 1156 CURVE SMOOTH",
"1384 1394 OFFCURVE",
"1262 1538 OFFCURVE",
"848 1538 CURVE SMOOTH",
"670 1538 OFFCURVE",
"615 1522 OFFCURVE",
"481 1522 CURVE SMOOTH",
"170 1522 LINE",
"157 1412 LINE",
"302 1386 LINE",
"137 136 LINE",
"-4 106 LINE"
);
},
{
closed = 1;
nodes = (
"570 800 CURVE",
"651 1402 LINE",
"688 1409 OFFCURVE",
"744 1412 OFFCURVE",
"766 1412 CURVE SMOOTH",
"915 1412 OFFCURVE",
"1010 1335 OFFCURVE",
"1016 1178 CURVE SMOOTH",
"1026 927 OFFCURVE",
"907 797 OFFCURVE",
"719 797 CURVE SMOOTH",
"692 797 OFFCURVE",
"605 797 OFFCURVE"
);
}
);
width = 1451;
}
);
unicode = 0052;
},
{
glyphname = S;
lastChange = "2016-10-13 21:43:13 +0000";
layers = (
{
anchors = (
{
name = btm;
position = "{442, -170}";
},
{
name = top;
position = "{705, 1700}";
}
);
layerId = "8869C5F7-E59C-494D-926F-BD4E51EFDE49";
paths = (
{
closed = 1;
nodes = (
"54 65 LINE",
"102 28 OFFCURVE",
"276 -23 OFFCURVE",
"458 -23 CURVE SMOOTH",
"750 -23 OFFCURVE",
"975 146 OFFCURVE",
"970 426 CURVE SMOOTH",
"966 642 OFFCURVE",
"792 738 OFFCURVE",
"641 834 CURVE",
"502 920 OFFCURVE",
"351 1017 OFFCURVE",
"351 1198 CURVE SMOOTH",
"351 1372 OFFCURVE",
"511 1447 OFFCURVE",
"657 1447 CURVE SMOOTH",
"768 1447 OFFCURVE",
"854 1421 OFFCURVE",
"896 1391 CURVE",
"907 1197 LINE",
"989 1197 LINE",
"1035 1457 LINE",
"980 1494 OFFCURVE",
"861 1542 OFFCURVE",
"670 1542 CURVE SMOOTH",
"415 1542 OFFCURVE",
"196 1381 OFFCURVE",
"201 1140 CURVE SMOOTH",
"205 915 OFFCURVE",
"400 798 OFFCURVE",
"555 701 CURVE SMOOTH",
"689 618 OFFCURVE",
"826 528 OFFCURVE",
"820 352 CURVE",
"812 155 OFFCURVE",
"621 72 OFFCURVE",
"463 72 CURVE SMOOTH",
"365 72 OFFCURVE",
"253 97 OFFCURVE",
"196 135 CURVE",
"184 345 LINE",
"95 345 LINE"
);
}
);
width = 1084;
},
{
anchors = (
{
name = btm;
position = "{449, -170}";
},
{
name = top;
position = "{701, 1700}";
}
);
layerId = "ECCAD73A-D96E-4C88-9DA5-23DA0E7E9E34";
paths = (
{
closed = 1;
nodes = (
"14 75 LINE",
"59 38 OFFCURVE",
"266 -23 OFFCURVE",
"490 -23 CURVE SMOOTH",
"890 -23 OFFCURVE",
"1077 201 OFFCURVE",
"1077 442 CURVE SMOOTH",
"1077 643 OFFCURVE",
"933 783 OFFCURVE",
"765 889 CURVE SMOOTH",
"570 1012 OFFCURVE",
"482 1092 OFFCURVE",
"482 1237 CURVE SMOOTH",
"482 1342 OFFCURVE",
"564 1415 OFFCURVE",
"709 1415 CURVE SMOOTH",
"778 1415 OFFCURVE",
"818 1398 OFFCURVE",
"858 1367 CURVE",
"888 1165 LINE",
"1079 1165 LINE",
"1133 1467 LINE",
"1069 1504 OFFCURVE",
"951 1541 OFFCURVE",
"734 1541 CURVE SMOOTH",
"405 1541 OFFCURVE",
"165 1384 OFFCURVE",
"165 1094 CURVE SMOOTH",
"165 886 OFFCURVE",
"313 746 OFFCURVE",
"490 633 CURVE SMOOTH",
"676 514 OFFCURVE",
"749 437 OFFCURVE",
"749 309 CURVE SMOOTH",
"749 196 OFFCURVE",
"682 106 OFFCURVE",
"482 106 CURVE SMOOTH",
"397 106 OFFCURVE",
"336 132 OFFCURVE",
"291 167 CURVE",
"280 393 LINE",
"74 393 LINE"
);
},
{
closed = 1;
nodes = (
"200 276 CURVE",
"208 262 LINE SMOOTH",
"205 267 OFFCURVE",
"202 271 OFFCURVE"
);
}
);
width = 1157;
}
);
unicode = 0053;
},
{
glyphname = Germandbls;
lastChange = "2016-10-13 21:43:13 +0000";
layers = (
{
layerId = "8869C5F7-E59C-494D-926F-BD4E51EFDE49";
paths = (
{
closed = 1;
nodes = (
"1291 1366 LINE",
"1296 1413 LINE",
"1215 1472 OFFCURVE",
"1114 1528 OFFCURVE",
"893 1528 CURVE SMOOTH",
"546 1528 OFFCURVE",
"309 1253 OFFCURVE",
"268 912 CURVE SMOOTH",
"170 91 LINE",
"46 68 LINE",
"39 -12 LINE",
"303 -12 LINE",
"416 943 LINE SMOOTH",
"453 1257 OFFCURVE",
"626 1439 OFFCURVE",
"863 1438 CURVE",
"1044 1436 OFFCURVE",
"1122 1357 OFFCURVE",
"1148 1323 CURVE",
"825 859 LINE",
"821 834 LINE",
"952 790 OFFCURVE",
"1242 638 OFFCURVE",
"1242 409 CURVE SMOOTH",
"1242 241 OFFCURVE",
"1132 69 OFFCURVE",
"923 69 CURVE SMOOTH",
"819 69 OFFCURVE",
"718 106 OFFCURVE",
"693 147 CURVE",
"685 390 LINE",
"592 390 LINE",
"547 61 LINE",
"601 55 OFFCURVE",
"711 -23 OFFCURVE",
"905 -23 CURVE SMOOTH",
"1177 -23 OFFCURVE",
"1382 187 OFFCURVE",
"1382 453 CURVE SMOOTH",
"1382 721 OFFCURVE",
"1129 839 OFFCURVE",
"966 918 CURVE"
);
}
);
width = 1463;
},
{
layerId = "ECCAD73A-D96E-4C88-9DA5-23DA0E7E9E34";
paths = (
{
closed = 1;
nodes = (
"1380 1319 LINE",
"1390 1398 LINE",
"1346 1460 OFFCURVE",
"1219 1546 OFFCURVE",
"934 1546 CURVE SMOOTH",
"515 1546 OFFCURVE",
"217 1270 OFFCURVE",
"176 928 CURVE",
"68 136 LINE",
"-59 106 LINE",
"-70 0 LINE",
"402 0 LINE",
"535 968 LINE SMOOTH",
"574 1255 OFFCURVE",
"674 1423 OFFCURVE",
"900 1423 CURVE SMOOTH",
"1025 1423 OFFCURVE",
"1114 1354 OFFCURVE",
"1114 1270 CURVE",
"810 870 LINE",
"799 798 LINE",
"908 733 OFFCURVE",
"1092 606 OFFCURVE",
"1092 417 CURVE SMOOTH",
"1092 200 OFFCURVE",
"1024 107 OFFCURVE",
"933 107 CURVE SMOOTH",
"868 107 OFFCURVE",
"822 132 OFFCURVE",
"803 184 CURVE",
"786 391 LINE",
"624 391 LINE",
"573 55 LINE",
"647 49 OFFCURVE",
"768 -7 OFFCURVE",
"918 -7 CURVE SMOOTH",
"1198 -7 OFFCURVE",
"1445 166 OFFCURVE",
"1445 480 CURVE SMOOTH",
"1445 746 OFFCURVE",
"1258 870 OFFCURVE",
"1067 921 CURVE"
);
}
);
width = 1462;
}
);
unicode = 1E9E;
},
{
glyphname = Schwa;
lastChange = "2016-10-13 21:43:13 +0000";
layers = (
{
layerId = "8869C5F7-E59C-494D-926F-BD4E51EFDE49";
paths = (
{
closed = 1;
nodes = (
"73 479 CURVE SMOOTH",
"73 160 OFFCURVE",
"227 -23 OFFCURVE",
"494 -23 CURVE SMOOTH",
"890 -23 OFFCURVE",
"1227 376 OFFCURVE",
"1227 926 CURVE SMOOTH",
"1227 1293 OFFCURVE",
"1048 1538 OFFCURVE",
"735 1538 CURVE SMOOTH",
"460 1538 OFFCURVE",
"341 1464 OFFCURVE",
"230 1459 CURVE",
"183 1169 LINE",
"265 1169 LINE",
"324 1343 LINE",
"381 1389 OFFCURVE",
"507 1448 OFFCURVE",
"695 1448 CURVE SMOOTH",
"912 1448 OFFCURVE",
"1082 1265 OFFCURVE",
"1082 917 CURVE SMOOTH",
"1082 866 OFFCURVE",
"1080 817 OFFCURVE",
"1076 771 CURVE",
"112 769 LINE",
"91 711 OFFCURVE",
"73 596 OFFCURVE"
);
},
{
closed = 1;
nodes = (
"217 452 CURVE SMOOTH",
"217 534 OFFCURVE",
"231 613 OFFCURVE",
"248 681 CURVE",
"1065 682 LINE",
"1006 278 OFFCURVE",
"791 69 OFFCURVE",
"543 69 CURVE SMOOTH",
"328 69 OFFCURVE",
"217 259 OFFCURVE"
);
}
);
width = 1298;
},
{
layerId = "ECCAD73A-D96E-4C88-9DA5-23DA0E7E9E34";
paths = (
{
closed = 1;
nodes = (
"798 1538 CURVE SMOOTH",
"423 1538 OFFCURVE",
"350 1447 OFFCURVE",
"243 1447 CURVE",
"199 1115 LINE",
"386 1115 LINE",
"481 1320 LINE SMOOTH",
"514 1391 OFFCURVE",
"578 1424 OFFCURVE",
"688 1424 CURVE SMOOTH",
"908 1424 OFFCURVE",
"989 1166 OFFCURVE",
"973 807 CURVE",
"971 779 LINE",
"132 779 LINE",
"110 722 OFFCURVE",
"84 596 OFFCURVE",
"84 479 CURVE SMOOTH",
"84 160 OFFCURVE",
"274 -23 OFFCURVE",
"587 -23 CURVE SMOOTH",
"983 -23 OFFCURVE",
"1320 376 OFFCURVE",
"1320 926 CURVE SMOOTH",
"1320 1294 OFFCURVE",
"1111 1538 OFFCURVE"
);
},
{
closed = 1;
nodes = (
"633 111 CURVE SMOOTH",
"475 111 OFFCURVE",
"406 239 OFFCURVE",
"406 445 CURVE SMOOTH",
"406 514 OFFCURVE",
"417 567 OFFCURVE",
"434 640 CURVE",
"959 640 LINE",
"912 240 OFFCURVE",
"775 111 OFFCURVE"
);
}
);
width = 1347;
}
);
unicode = 018F;
},
{
glyphname = T;
lastChange = "2016-10-13 21:43:13 +0000";
layers = (
{
anchors = (
{
name = btm;
position = "{538, -170}";
},
{
name = top;
position = "{745, 1700}";
}
);
layerId = "8869C5F7-E59C-494D-926F-BD4E51EFDE49";
paths = (
{
closed = 1;
nodes = (
"210 0 LINE",
"854 0 LINE",
"860 75 LINE",
"611 94 LINE",
"784 1435 LINE",
"1165 1419 LINE",
"1148 1074 LINE",
"1232 1075 LINE",
"1293 1522 LINE",
"156 1522 LINE",
"84 1075 LINE",
"172 1077 LINE",
"255 1419 LINE",
"632 1435 LINE",
"460 94 LINE",
"216 75 LINE"
);
}
);
width = 1225;
},
{
anchors = (
{
name = btm;
position = "{656, -170}";
},
{
name = top;
position = "{870, 1700}";
}
);
layerId = "ECCAD73A-D96E-4C88-9DA5-23DA0E7E9E34";
paths = (
{
closed = 1;
nodes = (
"232 0 LINE",
"1121 0 LINE",
"1131 106 LINE",
"847 136 LINE",
"1016 1402 LINE",
"1256 1376 LINE",
"1274 937 LINE",
"1455 939 LINE",
"1540 1522 LINE",
"170 1522 LINE",
"71 937 LINE",
"259 937 LINE",
"424 1376 LINE",
"663 1402 LINE",
"495 136 LINE",
"245 106 LINE"
);
}
);
width = 1447;
}
);
unicode = 0054;
},
{
glyphname = Tbar;
lastChange = "2016-10-13 21:43:13 +0000";
layers = (
{
anchors = (
{
name = btm;
position = "{542, -170}";
},
{
name = top;
position = "{753, 1700}";
}
);
layerId = "8869C5F7-E59C-494D-926F-BD4E51EFDE49";
paths = (
{
closed = 1;
nodes = (
"275 731 LINE",
"541 731 LINE",
"460 94 LINE",
"216 75 LINE",
"210 0 LINE",
"854 0 LINE",
"860 75 LINE",
"611 94 LINE",
"693 731 LINE",
"1017 731 LINE",
"1030 836 LINE",
"706 836 LINE",
"784 1435 LINE",
"1165 1419 LINE",
"1148 1074 LINE",
"1232 1075 LINE",
"1293 1522 LINE",
"156 1522 LINE",
"84 1075 LINE",
"172 1077 LINE",
"255 1419 LINE",
"632 1435 LINE",
"555 836 LINE",
"288 836 LINE"
);
}
);
width = 1225;
},
{
anchors = (
{
name = btm;
position = "{653, -170}";
},
{
name = top;
position = "{864, 1700}";
}
);
layerId = "ECCAD73A-D96E-4C88-9DA5-23DA0E7E9E34";
paths = (
{
closed = 1;
nodes = (
"345 680 LINE",
"567 680 LINE",
"495 136 LINE",
"245 106 LINE",
"232 0 LINE",
"1121 0 LINE",
"1131 106 LINE",
"847 136 LINE",
"919 680 LINE",
"1159 680 LINE",
"1175 830 LINE",
"939 830 LINE",
"1016 1402 LINE",
"1256 1376 LINE",
"1274 937 LINE",
"1455 939 LINE",
"1540 1522 LINE",
"170 1522 LINE",
"71 937 LINE",
"259 937 LINE",
"424 1376 LINE",
"663 1402 LINE",
"587 830 LINE",
"361 830 LINE"
);
}
);
width = 1451;
}
);
unicode = 0166;
},
{
glyphname = U;
lastChange = "2016-10-13 21:43:13 +0000";
layers = (
{
anchors = (
{
name = btm;
position = "{573, -170}";
},
{
name = top;
position = "{815, 1700}";
}
);
layerId = "8869C5F7-E59C-494D-926F-BD4E51EFDE49";
paths = (
{
closed = 1;
nodes = (
"153 426 CURVE SMOOTH",
"158 150 OFFCURVE",
"313 -20 OFFCURVE",
"598 -20 CURVE SMOOTH",
"941 -20 OFFCURVE",
"1135 155 OFFCURVE",
"1196 627 CURVE SMOOTH",
"1301 1423 LINE",
"1432 1441 LINE",
"1440 1522 LINE",
"1041 1522 LINE",
"1033 1441 LINE",
"1168 1421 LINE",
"1063 627 LINE SMOOTH",
"1018 249 OFFCURVE",
"876 69 OFFCURVE",
"620 69 CURVE SMOOTH",
"410 69 OFFCURVE",
"309 202 OFFCURVE",
"305 418 CURVE SMOOTH",
"304 475 OFFCURVE",
"306 534 OFFCURVE",
"315 607 CURVE SMOOTH",
"424 1421 LINE",
"578 1442 LINE",
"586 1522 LINE",
"140 1522 LINE",
"131 1442 LINE",
"271 1423 LINE",
"161 593 LINE SMOOTH",
"154 534 OFFCURVE",
"152 478 OFFCURVE"
);
}
);
width = 1379;
},
{
anchors = (
{
name = btm;
position = "{677, -170}";
},
{
name = top;
position = "{943, 1700}";
}
);
layerId = "ECCAD73A-D96E-4C88-9DA5-23DA0E7E9E34";
paths = (
{
closed = 1;
nodes = (
"157 428 CURVE SMOOTH",
"157 179 OFFCURVE",
"307 -20 OFFCURVE",
"699 -20 CURVE SMOOTH",
"1067 -20 OFFCURVE",
"1278 156 OFFCURVE",
"1338 627 CURVE SMOOTH",
"1435 1386 LINE",
"1564 1413 LINE",
"1579 1522 LINE",
"1114 1522 LINE",
"1103 1413 LINE",
"1252 1386 LINE",
"1148 626 LINE SMOOTH",
"1102 292 OFFCURVE",
"1007 104 OFFCURVE",
"761 104 CURVE SMOOTH",
"591 104 OFFCURVE",
"501 232 OFFCURVE",
"501 422 CURVE SMOOTH",
"501 469 OFFCURVE",
"509 542 OFFCURVE",
"518 623 CURVE SMOOTH",
"619 1386 LINE",
"817 1413 LINE",
"827 1522 LINE",
"136 1522 LINE",
"122 1412 LINE",
"267 1386 LINE",
"164 593 LINE SMOOTH",
"157 534 OFFCURVE",
"157 480 OFFCURVE"
);
}
);
width = 1465;
}
);
unicode = 0055;
},
{
glyphname = Uogonek;
lastChange = "2016-10-13 21:43:13 +0000";
layers = (
{
layerId = "8869C5F7-E59C-494D-926F-BD4E51EFDE49";
paths = (
{
closed = 1;
nodes = (
"153 426 CURVE SMOOTH",
"158 150 OFFCURVE",
"313 -20 OFFCURVE",
"598 -20 CURVE SMOOTH",
"616 -20 OFFCURVE",
"634 -19 OFFCURVE",
"651 -18 CURVE",
"587 -55 OFFCURVE",
"518 -99 OFFCURVE",
"466 -174 CURVE SMOOTH",
"445 -203 OFFCURVE",
"432 -248 OFFCURVE",
"430 -287 CURVE SMOOTH",
"428 -346 OFFCURVE",
"469 -416 OFFCURVE",
"576 -416 CURVE SMOOTH",
"692 -416 OFFCURVE",
"774 -368 OFFCURVE",
"826 -322 CURVE",
"805 -245 LINE",
"756 -287 OFFCURVE",
"701 -313 OFFCURVE",
"646 -313 CURVE SMOOTH",
"607 -313 OFFCURVE",
"576 -286 OFFCURVE",
"579 -226 CURVE",
"580 -168 OFFCURVE",
"653 -83 OFFCURVE",
"734 -9 CURVE",
"993 35 OFFCURVE",
"1143 221 OFFCURVE",
"1196 627 CURVE SMOOTH",
"1301 1423 LINE",
"1432 1441 LINE",
"1440 1522 LINE",
"1041 1522 LINE",
"1033 1441 LINE",
"1168 1421 LINE",
"1063 627 LINE",
"1018 249 OFFCURVE",
"876 69 OFFCURVE",
"620 69 CURVE SMOOTH",
"410 69 OFFCURVE",
"309 202 OFFCURVE",
"305 418 CURVE SMOOTH",
"304 475 OFFCURVE",
"306 534 OFFCURVE",
"315 607 CURVE",
"424 1421 LINE",
"578 1442 LINE",
"586 1522 LINE",
"140 1522 LINE",
"131 1442 LINE",
"271 1423 LINE",
"161 593 LINE",
"154 534 OFFCURVE",
"152 478 OFFCURVE"
);
}
);
width = 1379;
},
{
layerId = "ECCAD73A-D96E-4C88-9DA5-23DA0E7E9E34";
paths = (
{
closed = 1;
nodes = (
"157 428 CURVE SMOOTH",
"157 179 OFFCURVE",
"307 -20 OFFCURVE",
"699 -20 CURVE SMOOTH",
"711 -20 LINE",
"658 -65 OFFCURVE",
"605 -121 OFFCURVE",
"561 -192 CURVE SMOOTH",
"539 -226 OFFCURVE",
"526 -276 OFFCURVE",
"526 -306 CURVE SMOOTH",
"526 -411 OFFCURVE",
"590 -480 OFFCURVE",
"719 -480 CURVE SMOOTH",
"864 -480 OFFCURVE",
"988 -409 OFFCURVE",
"1063 -326 CURVE",
"1027 -212 LINE",
"974 -256 OFFCURVE",
"929 -287 OFFCURVE",
"874 -287 CURVE SMOOTH",
"835 -287 OFFCURVE",
"807 -262 OFFCURVE",
"807 -205 CURVE SMOOTH",
"807 -143 OFFCURVE",
"868 -60 OFFCURVE",
"946 15 CURVE",
"1163 86 OFFCURVE",
"1293 274 OFFCURVE",
"1338 627 CURVE SMOOTH",
"1435 1386 LINE",
"1564 1413 LINE",
"1579 1522 LINE",
"1114 1522 LINE",
"1103 1413 LINE",
"1252 1386 LINE",
"1148 626 LINE SMOOTH",
"1102 292 OFFCURVE",
"1007 104 OFFCURVE",
"761 104 CURVE SMOOTH",
"591 104 OFFCURVE",
"501 232 OFFCURVE",
"501 422 CURVE SMOOTH",
"501 469 OFFCURVE",
"509 542 OFFCURVE",
"518 623 CURVE",
"619 1386 LINE",
"817 1413 LINE",
"827 1522 LINE",
"136 1522 LINE",
"122 1412 LINE",
"267 1386 LINE",
"164 593 LINE",
"157 534 OFFCURVE",
"157 480 OFFCURVE"
);
}
);
width = 1465;
}
);
unicode = 0172;
},
{
glyphname = V;
lastChange = "2016-10-13 21:43:13 +0000";
layers = (
{
anchors = (
{
name = btm;
position = "{557, -170}";
},
{
name = top;
position = "{782, 1700}";
}
);
layerId = "8869C5F7-E59C-494D-926F-BD4E51EFDE49";
paths = (
{
closed = 1;
nodes = (
"444 -21 LINE",
"578 -11 LINE",
"1229 1423 LINE",
"1343 1442 LINE",
"1351 1522 LINE",
"956 1522 LINE",
"949 1442 LINE",
"1098 1422 LINE",
"669 449 LINE",
"546 133 LINE",
"507 449 LINE",
"360 1422 LINE",
"542 1441 LINE",
"550 1522 LINE",
"69 1522 LINE",
"62 1441 LINE",
"202 1422 LINE"
);
}
);
width = 1209;
},
{
anchors = (
{
name = btm;
position = "{706, -170}";
},
{
name = top;
position = "{953, 1700}";
}
);
layerId = "ECCAD73A-D96E-4C88-9DA5-23DA0E7E9E34";
paths = (
{
closed = 1;
nodes = (
"339 -10 LINE",
"640 -10 LINE",
"1297 1386 LINE",
"1450 1412 LINE",
"1468 1522 LINE",
"930 1522 LINE",
"920 1412 LINE",
"1097 1386 LINE",
"695 510 LINE",
"611 302 LINE",
"592 510 LINE",
"482 1386 LINE",
"644 1412 LINE",
"653 1522 LINE",
"-10 1522 LINE",
"-24 1413 LINE",
"115 1386 LINE"
);
}
);
width = 1245;
}
);
unicode = 0056;
},
{
glyphname = W;
lastChange = "2016-10-13 21:43:13 +0000";
layers = (
{
anchors = (
{
name = btm;
position = "{822, -170}";
},
{
name = top;
position = "{1042, 1700}";
}
);
layerId = "8869C5F7-E59C-494D-926F-BD4E51EFDE49";
paths = (
{
closed = 1;
nodes = (
"383 -10 LINE",
"535 -10 LINE",
"960 1065 LINE",
"1072 -10 LINE",
"1226 -10 LINE",
"1846 1421 LINE",
"1985 1441 LINE",
"1997 1522 LINE",
"1575 1522 LINE",
"1566 1441 LINE",
"1719 1421 LINE",
"1288 398 LINE",
"1187 135 LINE",
"1166 435 LINE",
"1066 1424 LINE",
"1245 1441 LINE",
"1261 1522 LINE",
"785 1522 LINE",
"777 1441 LINE",
"914 1424 LINE",
"930 1279 LINE",
"578 374 LINE",
"494 135 LINE",
"452 435 LINE",
"323 1425 LINE",
"507 1441 LINE",
"515 1522 LINE",
"43 1522 LINE",
"34 1441 LINE",
"180 1421 LINE"
);
}
);
width = 1791;
},
{
anchors = (
{
name = btm;
position = "{1000, -170}";
},
{
name = top;
position = "{1135, 1700}";
}
);
layerId = "ECCAD73A-D96E-4C88-9DA5-23DA0E7E9E34";
paths = (
{
closed = 1;
nodes = (
"322 -10 LINE",
"629 -10 LINE",
"1018 924 LINE",
"1108 -10 LINE",
"1418 -10 LINE",
"2071 1386 LINE",
"2231 1413 LINE",
"2241 1522 LINE",
"1647 1522 LINE",
"1637 1412 LINE",
"1864 1385 LINE",
"1489 510 LINE",
"1403 302 LINE",
"1396 510 LINE",
"1312 1385 LINE",
"1462 1412 LINE",
"1471 1522 LINE",
"815 1522 LINE",
"805 1413 LINE",
"965 1385 LINE",
"978 1241 LINE",
"673 510 LINE",
"594 302 LINE",
"571 510 LINE",
"477 1383 LINE",
"614 1412 LINE",
"623 1522 LINE",
"-9 1522 LINE",
"-23 1413 LINE",
"115 1385 LINE"
);
}
);
width = 1954;
}
);
unicode = 0057;
},
{
glyphname = X;
lastChange = "2016-10-13 21:43:13 +0000";
layers = (
{
anchors = (
{
name = btm;
position = "{552, -170}";
},
{
name = top;
position = "{811, 1700}";
}
);
layerId = "8869C5F7-E59C-494D-926F-BD4E51EFDE49";
paths = (
{
closed = 1;
nodes = (
"-63 0 LINE",
"404 0 LINE",
"411 69 LINE",
"232 94 LINE",
"636 670 LINE",
"900 93 LINE",
"720 70 LINE",
"714 0 LINE",
"1236 0 LINE",
"1242 70 LINE",
"1075 94 LINE",
"738 775 LINE",
"1223 1423 LINE",
"1368 1441 LINE",
"1375 1522 LINE",
"912 1522 LINE",
"903 1441 LINE",
"1075 1422 LINE",
"690 870 LINE",
"457 1423 LINE",
"631 1441 LINE",
"639 1522 LINE",
"139 1522 LINE",
"131 1441 LINE",
"282 1419 LINE",
"590 770 LINE",
"82 93 LINE",
"-55 70 LINE"
);
}
);
width = 1294;
},
{
anchors = (
{
name = btm;
position = "{697, -170}";
},
{
name = top;
position = "{984, 1700}";
}
);
layerId = "ECCAD73A-D96E-4C88-9DA5-23DA0E7E9E34";
paths = (
{
closed = 1;
nodes = (
"-76 0 LINE",
"449 0 LINE",
"459 106 LINE",
"307 136 LINE",
"616 583 LINE",
"790 136 LINE",
"645 106 LINE",
"636 0 LINE",
"1328 0 LINE",
"1338 106 LINE",
"1212 136 LINE",
"881 795 LINE",
"1354 1386 LINE",
"1490 1412 LINE",
"1500 1522 LINE",
"978 1522 LINE",
"972 1412 LINE",
"1106 1386 LINE",
"807 945 LINE",
"642 1386 LINE",
"786 1413 LINE",
"794 1522 LINE",
"133 1522 LINE",
"122 1412 LINE",
"241 1386 LINE",
"544 741 LINE",
"50 136 LINE",
"-64 106 LINE"
);
}
);
width = 1380;
}
);
unicode = 0058;
},
{
glyphname = Y;
lastChange = "2016-10-13 21:43:13 +0000";
layers = (
{
anchors = (
{
name = btm;
position = "{525, -170}";
},
{
name = top;
position = "{749, 1700}";
}
);
layerId = "8869C5F7-E59C-494D-926F-BD4E51EFDE49";
paths = (
{
closed = 1;
nodes = (
"241 0 LINE",
"838 0 LINE",
"845 70 LINE",
"624 94 LINE",
"688 586 LINE",
"1219 1423 LINE",
"1330 1441 LINE",
"1338 1522 LINE",
"937 1522 LINE",
"928 1441 LINE",
"1086 1422 LINE",
"719 822 LINE",
"638 685 LINE",
"592 822 LINE",
"346 1422 LINE",
"533 1441 LINE",
"542 1522 LINE",
"66 1522 LINE",
"59 1441 LINE",
"177 1422 LINE",
"545 586 LINE",
"481 94 LINE",
"248 70 LINE"
);
}
);
width = 1173;
},
{
anchors = (
{
name = btm;
position = "{561, -170}";
},
{
name = top;
position = "{830, 1700}";
}
);
layerId = "ECCAD73A-D96E-4C88-9DA5-23DA0E7E9E34";
paths = (
{
closed = 1;
nodes = (
"183 0 LINE",
"1011 0 LINE",
"1021 106 LINE",
"776 136 LINE",
"837 605 LINE",
"1352 1386 LINE",
"1482 1412 LINE",
"1497 1522 LINE",
"964 1522 LINE",
"954 1412 LINE",
"1118 1386 LINE",
"819 881 LINE",
"757 760 LINE",
"711 908 LINE",
"549 1386 LINE",
"720 1412 LINE",
"737 1522 LINE",
"33 1522 LINE",
"21 1412 LINE",
"152 1386 LINE",
"483 605 LINE",
"425 136 LINE",
"195 106 LINE"
);
}
);
width = 1301;
}
);
unicode = 0059;
},
{
glyphname = Z;
lastChange = "2016-10-13 21:43:13 +0000";
layers = (
{
anchors = (
{
name = btm;
position = "{543, -170}";
},
{
name = top;
position = "{729, 1700}";
}
);
layerId = "8869C5F7-E59C-494D-926F-BD4E51EFDE49";
paths = (
{
closed = 1;
nodes = (
"27 0 LINE",
"1036 0 LINE",
"1129 353 LINE",
"1036 378 LINE",
"919 106 LINE",
"191 86 LINE",
"336 274 LINE",
"1203 1453 LINE",
"1183 1522 LINE",
"245 1522 LINE",
"189 1178 LINE",
"280 1159 LINE",
"365 1424 LINE",
"1028 1430 LINE",
"850 1217 LINE",
"6 73 LINE"
);
}
);
width = 1197;
},
{
anchors = (
{
name = btm;
position = "{591, -170}";
},
{
name = top;
position = "{765, 1700}";
}
);
layerId = "ECCAD73A-D96E-4C88-9DA5-23DA0E7E9E34";
paths = (
{
closed = 1;
nodes = (
"-21 0 LINE",
"1098 0 LINE",
"1198 435 LINE",
"1024 484 LINE",
"827 159 LINE",
"342 137 LINE",
"454 235 LINE",
"1304 1436 LINE",
"1274 1522 LINE",
"234 1522 LINE",
"170 1128 LINE",
"345 1106 LINE",
"488 1376 LINE",
"930 1394 LINE",
"807 1296 LINE",
"-55 89 LINE"
);
}
);
width = 1226;
}
);
unicode = 005A;
},
{
glyphname = a;
lastChange = "2016-10-13 21:43:13 +0000";
layers = (
{
anchors = (
{
name = caron;
position = "{1074, 1660}";
},
{
name = top;
position = "{728, 1255}";
}
);
layerId = "8869C5F7-E59C-494D-926F-BD4E51EFDE49";
paths = (
{
closed = 1;
nodes = (
"88 412 CURVE SMOOTH",
"88 162 OFFCURVE",
"180 -20 OFFCURVE",
"406 -20 CURVE SMOOTH",
"553 -20 OFFCURVE",
"687 100 OFFCURVE",
"764 204 CURVE",
"762 191 LINE",
"752 117 LINE",
"745 17 OFFCURVE",
"792 -20 OFFCURVE",
"867 -20 CURVE SMOOTH",
"969 -20 OFFCURVE",
"1050 77 OFFCURVE",
"1062 100 CURVE",
"1035 144 LINE",
"998 109 OFFCURVE",
"972 85 OFFCURVE",
"944 85 CURVE SMOOTH",
"925 85 OFFCURVE",
"895 104 OFFCURVE",
"905 173 CURVE",
"1039 1162 LINE",
"927 1128 LINE",
"925 1126 LINE",
"869 1146 OFFCURVE",
"793 1163 OFFCURVE",
"728 1163 CURVE SMOOTH",
"319 1163 OFFCURVE",
"88 721 OFFCURVE"
);
},
{
closed = 1;
nodes = (
"826 319 CURVE",
"808 387 LINE",
"768 304 OFFCURVE",
"603 94 OFFCURVE",
"433 94 CURVE SMOOTH",
"300 94 OFFCURVE",
"244 226 OFFCURVE",
"244 431 CURVE SMOOTH",
"244 702 OFFCURVE",
"403 1064 OFFCURVE",
"705 1064 CURVE SMOOTH",
"764 1064 OFFCURVE",
"826 1051 OFFCURVE",
"871 1017 CURVE",
"782 342 LINE",
"764 204 LINE",
"796 249 OFFCURVE",
"818 290 OFFCURVE"
);
}
);
width = 1173;
},
{
anchors = (
{
name = caron;
position = "{1183, 1660}";
},
{
name = top;
position = "{763, 1255}";
}
);
layerId = "ECCAD73A-D96E-4C88-9DA5-23DA0E7E9E34";
paths = (
{
closed = 1;
nodes = (
"60 402 CURVE SMOOTH",
"60 172 OFFCURVE",
"163 -20 OFFCURVE",
"413 -20 CURVE SMOOTH",
"552 -20 OFFCURVE",
"652 41 OFFCURVE",
"717 106 CURVE",
"720 24 OFFCURVE",
"788 -20 OFFCURVE",
"887 -20 CURVE SMOOTH",
"1044 -20 OFFCURVE",
"1142 88 OFFCURVE",
"1167 124 CURVE",
"1139 197 LINE",
"1091 160 OFFCURVE",
"1065 151 OFFCURVE",
"1046 151 CURVE SMOOTH",
"1016 151 OFFCURVE",
"1001 173 OFFCURVE",
"1007 227 CURVE",
"1136 1163 LINE",
"984 1120 LINE",
"923 1141 OFFCURVE",
"826 1163 OFFCURVE",
"746 1163 CURVE SMOOTH",
"293 1163 OFFCURVE",
"60 791 OFFCURVE"
);
},
{
closed = 1;
nodes = (
"554 154 CURVE SMOOTH",
"463 154 OFFCURVE",
"406 249 OFFCURVE",
"406 413 CURVE SMOOTH",
"406 680 OFFCURVE",
"479 1023 OFFCURVE",
"722 1023 CURVE SMOOTH",
"746 1023 OFFCURVE",
"768 1021 OFFCURVE",
"790 1017 CURVE",
"680 209 LINE",
"644 177 OFFCURVE",
"601 154 OFFCURVE"
);
}
);
width = 1215;
}
);
unicode = 0061;
},
{
glyphname = aogonek;
lastChange = "2016-10-13 21:43:13 +0000";
layers = (
{
layerId = "8869C5F7-E59C-494D-926F-BD4E51EFDE49";
paths = (
{
closed = 1;
nodes = (
"88 412 CURVE SMOOTH",
"88 162 OFFCURVE",
"180 -20 OFFCURVE",
"406 -20 CURVE SMOOTH",
"553 -20 OFFCURVE",
"687 100 OFFCURVE",
"764 204 CURVE",
"762 191 LINE",
"752 117 LINE",
"746 33 OFFCURVE",
"778 -6 OFFCURVE",
"833 -17 CURVE",
"765 -55 OFFCURVE",
"693 -98 OFFCURVE",
"640 -175 CURVE SMOOTH",
"619 -204 OFFCURVE",
"607 -247 OFFCURVE",
"605 -287 CURVE SMOOTH",
"603 -346 OFFCURVE",
"643 -416 OFFCURVE",
"750 -416 CURVE SMOOTH",
"866 -416 OFFCURVE",
"948 -368 OFFCURVE",
"1000 -322 CURVE",
"979 -245 LINE",
"930 -287 OFFCURVE",
"875 -313 OFFCURVE",
"820 -313 CURVE SMOOTH",
"781 -313 OFFCURVE",
"750 -286 OFFCURVE",
"753 -226 CURVE",
"754 -137 OFFCURVE",
"886 -52 OFFCURVE",
"994 28 CURVE SMOOTH",
"1031 56 OFFCURVE",
"1055 88 OFFCURVE",
"1062 100 CURVE",
"1035 144 LINE",
"998 109 OFFCURVE",
"972 85 OFFCURVE",
"944 85 CURVE SMOOTH",
"925 85 OFFCURVE",
"895 104 OFFCURVE",
"905 173 CURVE",
"1039 1162 LINE",
"927 1128 LINE",
"925 1126 LINE",
"869 1146 OFFCURVE",
"793 1163 OFFCURVE",
"728 1163 CURVE SMOOTH",
"319 1163 OFFCURVE",
"88 721 OFFCURVE"
);
},
{
closed = 1;
nodes = (
"826 319 CURVE",
"808 387 LINE",
"768 304 OFFCURVE",
"603 94 OFFCURVE",
"433 94 CURVE SMOOTH",
"300 94 OFFCURVE",
"244 226 OFFCURVE",
"244 431 CURVE SMOOTH",
"244 702 OFFCURVE",
"403 1064 OFFCURVE",
"705 1064 CURVE SMOOTH",
"764 1064 OFFCURVE",
"826 1051 OFFCURVE",
"871 1017 CURVE",
"782 342 LINE",
"764 204 LINE",
"796 249 OFFCURVE",
"818 290 OFFCURVE"
);
}
);
width = 1173;
},
{
layerId = "ECCAD73A-D96E-4C88-9DA5-23DA0E7E9E34";
paths = (
{
closed = 1;
nodes = (
"60 402 CURVE SMOOTH",
"60 172 OFFCURVE",
"163 -20 OFFCURVE",
"413 -20 CURVE SMOOTH",
"552 -20 OFFCURVE",
"652 41 OFFCURVE",
"717 106 CURVE",
"719 55 OFFCURVE",
"746 18 OFFCURVE",
"791 -1 CURVE",
"723 -35 OFFCURVE",
"651 -82 OFFCURVE",
"582 -182 CURVE SMOOTH",
"556 -220 OFFCURVE",
"537 -273 OFFCURVE",
"537 -306 CURVE SMOOTH",
"537 -411 OFFCURVE",
"601 -480 OFFCURVE",
"730 -480 CURVE SMOOTH",
"875 -480 OFFCURVE",
"993 -409 OFFCURVE",
"1074 -326 CURVE",
"1038 -212 LINE",
"982 -256 OFFCURVE",
"940 -287 OFFCURVE",
"885 -287 CURVE SMOOTH",
"846 -287 OFFCURVE",
"818 -272 OFFCURVE",
"818 -215 CURVE SMOOTH",
"818 -148 OFFCURVE",
"913 -65 OFFCURVE",
"1031 13 CURVE",
"1104 48 OFFCURVE",
"1151 101 OFFCURVE",
"1167 124 CURVE",
"1139 197 LINE",
"1091 160 OFFCURVE",
"1065 151 OFFCURVE",
"1046 151 CURVE SMOOTH",
"1016 151 OFFCURVE",
"1001 173 OFFCURVE",
"1007 227 CURVE",
"1136 1163 LINE",
"984 1120 LINE",
"923 1141 OFFCURVE",
"826 1163 OFFCURVE",
"746 1163 CURVE SMOOTH",
"293 1163 OFFCURVE",
"60 791 OFFCURVE"
);
},
{
closed = 1;
nodes = (
"554 154 CURVE SMOOTH",
"463 154 OFFCURVE",
"406 249 OFFCURVE",
"406 413 CURVE SMOOTH",
"406 680 OFFCURVE",
"479 1023 OFFCURVE",
"722 1023 CURVE SMOOTH",
"746 1023 OFFCURVE",
"768 1021 OFFCURVE",
"790 1017 CURVE",
"680 209 LINE",
"644 177 OFFCURVE",
"601 154 OFFCURVE"
);
}
);
width = 1215;
}
);
unicode = 0105;
},
{
glyphname = ae;
lastChange = "2016-10-13 21:43:13 +0000";
layers = (
{
anchors = (
{
name = top;
position = "{923, 1255}";
}
);
layerId = "8869C5F7-E59C-494D-926F-BD4E51EFDE49";
paths = (
{
closed = 1;
nodes = (
"389 -20 CURVE SMOOTH",
"570 -20 OFFCURVE",
"721 164 OFFCURVE",
"794 317 CURVE",
"819 116 OFFCURVE",
"929 -20 OFFCURVE",
"1160 -20 CURVE SMOOTH",
"1361 -20 OFFCURVE",
"1531 107 OFFCURVE",
"1589 186 CURVE",
"1553 254 LINE",
"1433 139 OFFCURVE",
"1291 92 OFFCURVE",
"1177 92 CURVE SMOOTH",
"970 92 OFFCURVE",
"936 282 OFFCURVE",
"947 467 CURVE",
"1146 472 OFFCURVE",
"1642 596 OFFCURVE",
"1642 910 CURVE SMOOTH",
"1642 1051 OFFCURVE",
"1555 1168 OFFCURVE",
"1364 1162 CURVE SMOOTH",
"1234 1158 OFFCURVE",
"1114 1095 OFFCURVE",
"1017 997 CURVE",
"1046 1162 LINE",
"933 1128 LINE",
"931 1126 LINE",
"875 1145 OFFCURVE",
"798 1162 OFFCURVE",
"730 1162 CURVE SMOOTH",
"321 1162 OFFCURVE",
"88 719 OFFCURVE",
"88 410 CURVE SMOOTH",
"88 145 OFFCURVE",
"183 -20 OFFCURVE"
);
},
{
closed = 1;
nodes = (
"788 437 CURVE",
"788 423 LINE",
"735 315 OFFCURVE",
"586 94 OFFCURVE",
"415 94 CURVE SMOOTH",
"307 94 OFFCURVE",
"244 197 OFFCURVE",
"244 428 CURVE SMOOTH",
"244 699 OFFCURVE",
"404 1064 OFFCURVE",
"707 1064 CURVE SMOOTH",
"775 1064 OFFCURVE",
"840 1049 OFFCURVE",
"885 1010 CURVE",
"826 668 LINE",
"803 594 OFFCURVE",
"789 515 OFFCURVE"
);
},
{
closed = 1;
nodes = (
"951 557 CURVE",
"972 770 OFFCURVE",
"1109 1069 OFFCURVE",
"1329 1069 CURVE SMOOTH",
"1432 1069 OFFCURVE",
"1486 1011 OFFCURVE",
"1486 899 CURVE SMOOTH",
"1486 686 OFFCURVE",
"1174 564 OFFCURVE"
);
}
);
width = 1736;
},
{
anchors = (
{
name = top;
position = "{968, 1255}";
}
);
layerId = "ECCAD73A-D96E-4C88-9DA5-23DA0E7E9E34";
paths = (
{
closed = 1;
nodes = (
"373 -20 CURVE SMOOTH",
"543 -20 OFFCURVE",
"680 127 OFFCURVE",
"760 246 CURVE",
"809 96 OFFCURVE",
"929 -20 OFFCURVE",
"1161 -20 CURVE SMOOTH",
"1418 -20 OFFCURVE",
"1576 124 OFFCURVE",
"1631 212 CURVE",
"1567 315 LINE",
"1514 246 OFFCURVE",
"1428 159 OFFCURVE",
"1269 159 CURVE SMOOTH",
"1153 159 OFFCURVE",
"1082 247 OFFCURVE",
"1082 455 CURVE",
"1334 461 OFFCURVE",
"1711 583 OFFCURVE",
"1701 913 CURVE",
"1695 1054 OFFCURVE",
"1600 1163 OFFCURVE",
"1372 1163 CURVE SMOOTH",
"1273 1163 OFFCURVE",
"1181 1141 OFFCURVE",
"1099 1100 CURVE",
"1107 1163 LINE",
"1018 1133 LINE",
"957 1149 OFFCURVE",
"879 1163 OFFCURVE",
"816 1163 CURVE SMOOTH",
"335 1163 OFFCURVE",
"60 781 OFFCURVE",
"60 392 CURVE SMOOTH",
"60 182 OFFCURVE",
"123 -20 OFFCURVE"
);
},
{
closed = 1;
nodes = (
"494 180 CURVE SMOOTH",
"423 180 OFFCURVE",
"406 309 OFFCURVE",
"406 413 CURVE SMOOTH",
"406 678 OFFCURVE",
"530 1018 OFFCURVE",
"801 1023 CURVE",
"697 336 LINE",
"639 257 OFFCURVE",
"564 180 OFFCURVE"
);
},
{
closed = 1;
nodes = (
"1082 575 CURVE",
"1093 761 OFFCURVE",
"1144 1025 OFFCURVE",
"1298 1025 CURVE SMOOTH",
"1351 1025 OFFCURVE",
"1376 977 OFFCURVE",
"1380 886 CURVE",
"1386 689 OFFCURVE",
"1199 582 OFFCURVE"
);
}
);
width = 1742;
}
);
unicode = 00E6;
},
{
glyphname = b;
lastChange = "2016-10-13 21:43:13 +0000";
layers = (
{
anchors = (
{
name = top;
position = "{850, 1255}";
}
);
layerId = "8869C5F7-E59C-494D-926F-BD4E51EFDE49";
paths = (
{
closed = 1;
nodes = (
"131 -5 LINE",
"208 32 LINE",
"264 6 OFFCURVE",
"369 -20 OFFCURVE",
"454 -20 CURVE SMOOTH",
"859 -20 OFFCURVE",
"1087 421 OFFCURVE",
"1087 730 CURVE SMOOTH",
"1087 980 OFFCURVE",
"978 1163 OFFCURVE",
"747 1163 CURVE SMOOTH",
"598 1163 OFFCURVE",
"476 1064 OFFCURVE",
"411 973 CURVE",
"499 1627 LINE",
"458 1650 LINE",
"254 1618 LINE",
"238 1550 LINE",
"334 1516 LINE"
);
},
{
closed = 1;
nodes = (
"723 1048 CURVE SMOOTH",
"856 1048 OFFCURVE",
"931 926 OFFCURVE",
"931 719 CURVE SMOOTH",
"931 461 OFFCURVE",
"785 78 OFFCURVE",
"478 78 CURVE SMOOTH",
"412 78 OFFCURVE",
"345 91 OFFCURVE",
"297 130 CURVE",
"392 833 LINE",
"443 919 OFFCURVE",
"573 1048 OFFCURVE"
);
}
);
width = 1176;
},
{
anchors = (
{
name = top;
position = "{866, 1255}";
}
);
layerId = "ECCAD73A-D96E-4C88-9DA5-23DA0E7E9E34";
paths = (
{
closed = 1;
nodes = (
"66 -20 LINE",
"212 23 LINE",
"277 2 OFFCURVE",
"372 -20 OFFCURVE",
"455 -20 CURVE SMOOTH",
"877 -20 OFFCURVE",
"1137 310 OFFCURVE",
"1137 730 CURVE SMOOTH",
"1137 1005 OFFCURVE",
"1024 1163 OFFCURVE",
"793 1163 CURVE SMOOTH",
"671 1163 OFFCURVE",
"578 1115 OFFCURVE",
"512 1059 CURVE",
"586 1623 LINE",
"532 1650 LINE",
"171 1611 LINE",
"150 1527 LINE",
"253 1484 LINE"
);
},
{
closed = 1;
nodes = (
"652 988 CURVE SMOOTH",
"752 988 OFFCURVE",
"796 867 OFFCURVE",
"796 729 CURVE SMOOTH",
"796 425 OFFCURVE",
"711 119 OFFCURVE",
"481 119 CURVE SMOOTH",
"446 119 OFFCURVE",
"417 121 OFFCURVE",
"391 128 CURVE",
"491 899 LINE",
"532 948 OFFCURVE",
"586 988 OFFCURVE"
);
}
);
width = 1202;
}
);
unicode = 0062;
},
{
glyphname = c;
lastChange = "2016-10-13 21:43:13 +0000";
layers = (
{
anchors = (
{
name = btm;
position = "{444, -170}";
},
{
name = top;
position = "{653, 1255}";
}
);
layerId = "8869C5F7-E59C-494D-926F-BD4E51EFDE49";
paths = (
{
closed = 1;
nodes = (
"437 -20 CURVE SMOOTH",
"627 -20 OFFCURVE",
"749 95 OFFCURVE",
"799 151 CURVE",
"768 217 LINE",
"673 144 OFFCURVE",
"599 92 OFFCURVE",
"478 92 CURVE SMOOTH",
"327 92 OFFCURVE",
"235 213 OFFCURVE",
"235 453 CURVE SMOOTH",
"235 803 OFFCURVE",
"386 1045 OFFCURVE",
"625 1045 CURVE SMOOTH",
"689 1045 OFFCURVE",
"759 1016 OFFCURVE",
"815 976 CURVE",
"822 971 OFFCURVE",
"829 966 OFFCURVE",
"836 960 CURVE",
"880 1115 LINE",
"823 1144 OFFCURVE",
"732 1163 OFFCURVE",
"660 1163 CURVE SMOOTH",
"280 1163 OFFCURVE",
"76 740 OFFCURVE",
"76 430 CURVE SMOOTH",
"76 151 OFFCURVE",
"209 -20 OFFCURVE"
);
}
);
width = 890;
},
{
anchors = (
{
name = btm;
position = "{478, -170}";
},
{
name = top;
position = "{680, 1255}";
}
);
layerId = "ECCAD73A-D96E-4C88-9DA5-23DA0E7E9E34";
paths = (
{
closed = 1;
nodes = (
"447 -20 CURVE SMOOTH",
"684 -20 OFFCURVE",
"838 106 OFFCURVE",
"893 194 CURVE",
"829 297 LINE",
"776 228 OFFCURVE",
"704 169 OFFCURVE",
"575 169 CURVE SMOOTH",
"459 169 OFFCURVE",
"405 250 OFFCURVE",
"400 460 CURVE SMOOTH",
"392 782 OFFCURVE",
"524 1006 OFFCURVE",
"633 1006 CURVE SMOOTH",
"677 1006 OFFCURVE",
"759 874 OFFCURVE",
"805 803 CURVE",
"878 803 LINE",
"961 1125 LINE",
"894 1151 OFFCURVE",
"787 1163 OFFCURVE",
"705 1163 CURVE SMOOTH",
"262 1163 OFFCURVE",
"53 789 OFFCURVE",
"59 450 CURVE SMOOTH",
"64 139 OFFCURVE",
"212 -20 OFFCURVE"
);
}
);
width = 961;
}
);
unicode = 0063;
},
{
glyphname = d;
lastChange = "2016-10-13 21:43:13 +0000";
layers = (
{
anchors = (
{
name = caron;
position = "{1064, 1660}";
},
{
name = top;
position = "{474, 1255}";
}
);
layerId = "8869C5F7-E59C-494D-926F-BD4E51EFDE49";
paths = (
{
closed = 1;
nodes = (
"416 -20 CURVE SMOOTH",
"563 -20 OFFCURVE",
"684 72 OFFCURVE",
"752 160 CURVE",
"752 141 OFFCURVE",
"752 103 OFFCURVE",
"751 102 CURVE",
"747 14 OFFCURVE",
"787 -20 OFFCURVE",
"852 -20 CURVE SMOOTH",
"955 -20 OFFCURVE",
"1036 71 OFFCURVE",
"1052 96 CURVE",
"1027 140 LINE",
"988 104 OFFCURVE",
"958 85 OFFCURVE",
"929 85 CURVE SMOOTH",
"912 85 OFFCURVE",
"900 109 OFFCURVE",
"906 158 CURVE",
"1122 1627 LINE",
"1079 1650 LINE",
"845 1615 LINE",
"829 1548 LINE",
"958 1515 LINE",
"900 1134 LINE",
"846 1150 OFFCURVE",
"780 1163 OFFCURVE",
"724 1163 CURVE SMOOTH",
"315 1163 OFFCURVE",
"84 721 OFFCURVE",
"84 412 CURVE SMOOTH",
"84 162 OFFCURVE",
"191 -20 OFFCURVE"
);
},
{
closed = 1;
nodes = (
"441 94 CURVE SMOOTH",
"312 94 OFFCURVE",
"240 217 OFFCURVE",
"240 423 CURVE SMOOTH",
"240 681 OFFCURVE",
"389 1065 OFFCURVE",
"701 1065 CURVE SMOOTH",
"764 1065 OFFCURVE",
"833 1050 OFFCURVE",
"881 1010 CURVE",
"772 298 LINE",
"716 213 OFFCURVE",
"587 94 OFFCURVE"
);
}
);
width = 1175;
},
{
anchors = (
{
name = caron;
position = "{1169, 1660}";
},
{
name = top;
position = "{443, 1255}";
}
);
layerId = "ECCAD73A-D96E-4C88-9DA5-23DA0E7E9E34";
paths = (
{
closed = 1;
nodes = (
"404 -20 CURVE SMOOTH",
"572 -20 OFFCURVE",
"680 70 OFFCURVE",
"736 147 CURVE",
"744 38 OFFCURVE",
"793 -20 OFFCURVE",
"912 -20 CURVE SMOOTH",
"1076 -20 OFFCURVE",
"1168 97 OFFCURVE",
"1191 124 CURVE",
"1163 197 LINE",
"1114 160 OFFCURVE",
"1090 151 OFFCURVE",
"1071 151 CURVE SMOOTH",
"1039 151 OFFCURVE",
"1029 181 OFFCURVE",
"1036 229 CURVE SMOOTH",
"1238 1623 LINE",
"1182 1650 LINE",
"750 1608 LINE",
"731 1525 LINE",
"887 1482 LINE",
"839 1154 LINE",
"804 1159 OFFCURVE",
"769 1163 OFFCURVE",
"737 1163 CURVE SMOOTH",
"274 1163 OFFCURVE",
"60 791 OFFCURVE",
"60 402 CURVE SMOOTH",
"60 172 OFFCURVE",
"154 -20 OFFCURVE"
);
},
{
closed = 1;
nodes = (
"545 154 CURVE SMOOTH",
"454 154 OFFCURVE",
"401 249 OFFCURVE",
"401 413 CURVE SMOOTH",
"401 680 OFFCURVE",
"470 1023 OFFCURVE",
"713 1023 CURVE SMOOTH",
"751 1023 OFFCURVE",
"786 1018 OFFCURVE",
"817 1007 CURVE",
"707 257 LINE",
"669 203 OFFCURVE",
"613 154 OFFCURVE"
);
}
);
width = 1255;
}
);
unicode = 0064;
},
{
glyphname = eth;
lastChange = "2016-10-13 21:43:13 +0000";
layers = (
{
layerId = "8869C5F7-E59C-494D-926F-BD4E51EFDE49";
paths = (
{
closed = 1;
nodes = (
"484 1278 LINE",
"646 1460 LINE",
"674 1437 LINE",
"813 1314 OFFCURVE",
"867 1196 OFFCURVE",
"908 996 CURVE",
"859 1074 OFFCURVE",
"748 1110 OFFCURVE",
"639 1110 CURVE SMOOTH",
"360 1110 OFFCURVE",
"87 849 OFFCURVE",
"87 421 CURVE SMOOTH",
"87 207 OFFCURVE",
"215 -20 OFFCURVE",
"480 -20 CURVE SMOOTH",
"861 -20 OFFCURVE",
"1063 363 OFFCURVE",
"1063 822 CURVE SMOOTH",
"1063 1099 OFFCURVE",
"973 1337 OFFCURVE",
"750 1528 CURVE",
"724 1548 LINE",
"778 1608 OFFCURVE",
"874 1718 OFFCURVE",
"874 1718 CURVE",
"798 1792 LINE",
"798 1792 OFFCURVE",
"701 1672 OFFCURVE",
"640 1604 CURVE",
"552 1658 OFFCURVE",
"447 1708 OFFCURVE",
"376 1725 CURVE",
"342 1628 LINE",
"407 1614 OFFCURVE",
"489 1571 OFFCURVE",
"564 1520 CURVE",
"406 1350 LINE"
);
},
{
closed = 1;
nodes = (
"498 67 CURVE SMOOTH",
"333 67 OFFCURVE",
"248 228 OFFCURVE",
"248 412 CURVE SMOOTH",
"248 711 OFFCURVE",
"389 1020 OFFCURVE",
"637 1020 CURVE SMOOTH",
"822 1020 OFFCURVE",
"891 845 OFFCURVE",
"898 783 CURVE SMOOTH",
"902 742 OFFCURVE",
"895 638 OFFCURVE",
"884 566 CURVE SMOOTH",
"844 288 OFFCURVE",
"696 67 OFFCURVE"
);
}
);
width = 1156;
},
{
layerId = "ECCAD73A-D96E-4C88-9DA5-23DA0E7E9E34";
paths = (
{
closed = 1;
nodes = (
"543 1245 LINE",
"676 1398 LINE",
"762 1282 OFFCURVE",
"798 1157 OFFCURVE",
"796 1081 CURVE",
"756 1104 OFFCURVE",
"709 1110 OFFCURVE",
"616 1110 CURVE SMOOTH",
"296 1110 OFFCURVE",
"60 866 OFFCURVE",
"60 462 CURVE SMOOTH",
"60 238 OFFCURVE",
"199 -20 OFFCURVE",
"496 -20 CURVE SMOOTH",
"901 -20 OFFCURVE",
"1139 326 OFFCURVE",
"1139 802 CURVE SMOOTH",
"1139 1070 OFFCURVE",
"1041 1355 OFFCURVE",
"828 1561 CURVE",
"972 1728 LINE",
"859 1829 LINE",
"859 1829 OFFCURVE",
"781 1730 OFFCURVE",
"715 1653 CURVE",
"613 1723 OFFCURVE",
"502 1771 OFFCURVE",
"422 1794 CURVE",
"367 1635 LINE",
"430 1615 OFFCURVE",
"505 1562 OFFCURVE",
"573 1504 CURVE",
"427 1343 LINE"
);
},
{
closed = 1;
nodes = (
"525 107 CURVE SMOOTH",
"426 107 OFFCURVE",
"397 245 OFFCURVE",
"397 400 CURVE SMOOTH",
"397 633 OFFCURVE",
"463 974 OFFCURVE",
"626 974 CURVE SMOOTH",
"783 974 OFFCURVE",
"803 796 OFFCURVE",
"800 728 CURVE SMOOTH",
"798 686 OFFCURVE",
"783 566 OFFCURVE",
"781 551 CURVE SMOOTH",
"755 307 OFFCURVE",
"658 107 OFFCURVE"
);
}
);
width = 1193;
}
);
unicode = 00F0;
},
{
glyphname = dcroat;
lastChange = "2016-10-13 21:43:13 +0000";
layers = (
{
layerId = "8869C5F7-E59C-494D-926F-BD4E51EFDE49";
paths = (
{
closed = 1;
nodes = (
"635 1287 LINE",
"923 1287 LINE",
"900 1134 LINE",
"846 1150 OFFCURVE",
"780 1163 OFFCURVE",
"724 1163 CURVE SMOOTH",
"315 1163 OFFCURVE",
"84 721 OFFCURVE",
"84 412 CURVE SMOOTH",
"84 162 OFFCURVE",
"191 -20 OFFCURVE",
"416 -20 CURVE SMOOTH",
"563 -20 OFFCURVE",
"684 72 OFFCURVE",
"752 160 CURVE",
"752 141 OFFCURVE",
"752 103 OFFCURVE",
"751 102 CURVE",
"747 14 OFFCURVE",
"787 -20 OFFCURVE",
"852 -20 CURVE SMOOTH",
"955 -20 OFFCURVE",
"1036 71 OFFCURVE",
"1052 96 CURVE",
"1027 140 LINE",
"988 104 OFFCURVE",
"958 85 OFFCURVE",
"929 85 CURVE SMOOTH",
"912 85 OFFCURVE",
"900 109 OFFCURVE",
"906 158 CURVE",
"1072 1287 LINE",
"1217 1287 LINE",
"1231 1392 LINE",
"1087 1392 LINE",
"1122 1627 LINE",
"1079 1650 LINE",
"845 1615 LINE",
"829 1548 LINE",
"958 1515 LINE",
"939 1392 LINE",
"649 1392 LINE"
);
},
{
closed = 1;
nodes = (
"441 94 CURVE SMOOTH",
"312 94 OFFCURVE",
"240 217 OFFCURVE",
"240 423 CURVE SMOOTH",
"240 681 OFFCURVE",
"389 1065 OFFCURVE",
"701 1065 CURVE SMOOTH",
"764 1065 OFFCURVE",
"833 1050 OFFCURVE",
"881 1010 CURVE",
"772 298 LINE",
"716 213 OFFCURVE",
"587 94 OFFCURVE"
);
}
);
width = 1175;
},
{
layerId = "ECCAD73A-D96E-4C88-9DA5-23DA0E7E9E34";
paths = (
{
closed = 1;
nodes = (
"572 1262 LINE",
"855 1262 LINE",
"839 1154 LINE",
"804 1159 OFFCURVE",
"769 1163 OFFCURVE",
"737 1163 CURVE SMOOTH",
"274 1163 OFFCURVE",
"60 791 OFFCURVE",
"60 402 CURVE SMOOTH",
"60 172 OFFCURVE",
"154 -20 OFFCURVE",
"404 -20 CURVE SMOOTH",
"572 -20 OFFCURVE",
"680 70 OFFCURVE",
"736 147 CURVE",
"744 38 OFFCURVE",
"793 -20 OFFCURVE",
"912 -20 CURVE SMOOTH",
"1076 -20 OFFCURVE",
"1168 97 OFFCURVE",
"1191 124 CURVE",
"1163 197 LINE",
"1114 160 OFFCURVE",
"1090 151 OFFCURVE",
"1071 151 CURVE SMOOTH",
"1039 151 OFFCURVE",
"1029 181 OFFCURVE",
"1036 229 CURVE SMOOTH",
"1185 1262 LINE",
"1314 1262 LINE",
"1330 1392 LINE",
"1204 1392 LINE",
"1238 1623 LINE",
"1182 1650 LINE",
"750 1608 LINE",
"731 1525 LINE",
"887 1482 LINE",
"874 1392 LINE",
"588 1392 LINE"
);
},
{
closed = 1;
nodes = (
"545 154 CURVE SMOOTH",
"454 154 OFFCURVE",
"401 249 OFFCURVE",
"401 413 CURVE SMOOTH",
"401 680 OFFCURVE",
"470 1023 OFFCURVE",
"713 1023 CURVE SMOOTH",
"751 1023 OFFCURVE",
"786 1018 OFFCURVE",
"817 1007 CURVE",
"707 257 LINE",
"669 203 OFFCURVE",
"613 154 OFFCURVE"
);
}
);
width = 1255;
}
);
unicode = 0111;
},
{
glyphname = e;
lastChange = "2016-10-13 21:43:13 +0000";
layers = (
{
anchors = (
{
name = btm;
position = "{774, 63}";
},
{
name = top;
position = "{649, 1255}";
}
);
layerId = "8869C5F7-E59C-494D-926F-BD4E51EFDE49";
paths = (
{
closed = 1;
nodes = (
"92 437 CURVE SMOOTH",
"86 211 OFFCURVE",
"197 -20 OFFCURVE",
"486 -20 CURVE SMOOTH",
"680 -20 OFFCURVE",
"844 107 OFFCURVE",
"901 186 CURVE",
"864 254 LINE",
"749 139 OFFCURVE",
"613 92 OFFCURVE",
"504 92 CURVE SMOOTH",
"293 92 OFFCURVE",
"237 312 OFFCURVE",
"251 467 CURVE",
"451 472 OFFCURVE",
"957 599 OFFCURVE",
"957 913 CURVE SMOOTH",
"957 1054 OFFCURVE",
"866 1163 OFFCURVE",
"676 1163 CURVE SMOOTH",
"348 1163 OFFCURVE",
"102 816 OFFCURVE"
);
},
{
closed = 1;
nodes = (
"255 557 CURVE",
"276 770 OFFCURVE",
"416 1069 OFFCURVE",
"641 1069 CURVE SMOOTH",
"740 1069 OFFCURVE",
"802 1012 OFFCURVE",
"802 900 CURVE SMOOTH",
"802 687 OFFCURVE",
"481 564 OFFCURVE"
);
}
);
width = 1051;
},
{
anchors = (
{
name = btm;
position = "{840, 63}";
},
{
name = top;
position = "{705, 1255}";
}
);
layerId = "ECCAD73A-D96E-4C88-9DA5-23DA0E7E9E34";
paths = (
{
closed = 1;
nodes = (
"61 430 CURVE SMOOTH",
"62 202 OFFCURVE",
"178 -29 OFFCURVE",
"499 -29 CURVE SMOOTH",
"756 -29 OFFCURVE",
"914 124 OFFCURVE",
"969 212 CURVE",
"905 315 LINE",
"852 246 OFFCURVE",
"766 150 OFFCURVE",
"607 150 CURVE SMOOTH",
"491 150 OFFCURVE",
"420 247 OFFCURVE",
"420 455 CURVE",
"672 461 OFFCURVE",
"1049 583 OFFCURVE",
"1039 913 CURVE SMOOTH",
"1033 1054 OFFCURVE",
"938 1165 OFFCURVE",
"710 1165 CURVE SMOOTH",
"343 1165 OFFCURVE",
"59 857 OFFCURVE"
);
},
{
closed = 1;
nodes = (
"420 575 CURVE",
"431 761 OFFCURVE",
"482 1025 OFFCURVE",
"636 1025 CURVE SMOOTH",
"689 1025 OFFCURVE",
"714 977 OFFCURVE",
"718 886 CURVE SMOOTH",
"724 689 OFFCURVE",
"537 582 OFFCURVE"
);
}
);
width = 1080;
}
);
unicode = 0065;
},
{
glyphname = eogonek;
lastChange = "2016-10-13 21:43:13 +0000";
layers = (
{
layerId = "8869C5F7-E59C-494D-926F-BD4E51EFDE49";
paths = (
{
closed = 1;
nodes = (
"92 437 CURVE SMOOTH",
"86 211 OFFCURVE",
"197 -20 OFFCURVE",
"486 -20 CURVE SMOOTH",
"533 -20 OFFCURVE",
"579 -12 OFFCURVE",
"622 0 CURVE",
"554 -40 OFFCURVE",
"476 -88 OFFCURVE",
"418 -170 CURVE SMOOTH",
"397 -199 OFFCURVE",
"384 -243 OFFCURVE",
"383 -283 CURVE SMOOTH",
"381 -342 OFFCURVE",
"421 -412 OFFCURVE",
"528 -412 CURVE SMOOTH",
"644 -412 OFFCURVE",
"726 -364 OFFCURVE",
"778 -318 CURVE",
"757 -241 LINE",
"708 -283 OFFCURVE",
"654 -308 OFFCURVE",
"599 -308 CURVE SMOOTH",
"560 -308 OFFCURVE",
"529 -282 OFFCURVE",
"531 -221 CURVE",
"532 -147 OFFCURVE",
"660 -22 OFFCURVE",
"764 65 CURVE",
"827 104 OFFCURVE",
"875 150 OFFCURVE",
"901 186 CURVE",
"864 254 LINE",
"749 139 OFFCURVE",
"613 92 OFFCURVE",
"504 92 CURVE SMOOTH",
"293 92 OFFCURVE",
"237 312 OFFCURVE",
"251 467 CURVE",
"451 472 OFFCURVE",
"957 599 OFFCURVE",
"957 913 CURVE SMOOTH",
"957 1054 OFFCURVE",
"866 1163 OFFCURVE",
"676 1163 CURVE SMOOTH",
"348 1163 OFFCURVE",
"102 816 OFFCURVE"
);
},
{
closed = 1;
nodes = (
"255 557 CURVE",
"276 770 OFFCURVE",
"416 1069 OFFCURVE",
"641 1069 CURVE SMOOTH",
"740 1069 OFFCURVE",
"802 1012 OFFCURVE",
"802 900 CURVE SMOOTH",
"802 687 OFFCURVE",
"481 564 OFFCURVE"
);
}
);
width = 1051;
},
{
layerId = "ECCAD73A-D96E-4C88-9DA5-23DA0E7E9E34";
paths = (
{
closed = 1;
nodes = (
"61 430 CURVE SMOOTH",
"62 202 OFFCURVE",
"178 -29 OFFCURVE",
"499 -29 CURVE SMOOTH",
"506 -29 OFFCURVE",
"513 -29 OFFCURVE",
"521 -28 CURVE",
"471 -72 OFFCURVE",
"422 -126 OFFCURVE",
"381 -192 CURVE SMOOTH",
"359 -226 OFFCURVE",
"346 -276 OFFCURVE",
"346 -306 CURVE SMOOTH",
"346 -411 OFFCURVE",
"410 -480 OFFCURVE",
"539 -480 CURVE SMOOTH",
"684 -480 OFFCURVE",
"802 -409 OFFCURVE",
"883 -326 CURVE",
"847 -212 LINE",
"791 -256 OFFCURVE",
"749 -287 OFFCURVE",
"694 -287 CURVE SMOOTH",
"655 -287 OFFCURVE",
"627 -262 OFFCURVE",
"627 -205 CURVE SMOOTH",
"627 -127 OFFCURVE",
"722 -17 OFFCURVE",
"826 69 CURVE",
"848 84 OFFCURVE",
"869 100 OFFCURVE",
"887 116 CURVE SMOOTH",
"893 121 LINE",
"892 121 LINE",
"927 153 OFFCURVE",
"952 185 OFFCURVE",
"969 212 CURVE",
"905 315 LINE",
"852 246 OFFCURVE",
"766 150 OFFCURVE",
"607 150 CURVE SMOOTH",
"491 150 OFFCURVE",
"420 247 OFFCURVE",
"420 455 CURVE",
"672 461 OFFCURVE",
"1049 583 OFFCURVE",
"1039 913 CURVE",
"1033 1054 OFFCURVE",
"938 1165 OFFCURVE",
"710 1165 CURVE SMOOTH",
"343 1165 OFFCURVE",
"59 857 OFFCURVE"
);
},
{
closed = 1;
nodes = (
"420 575 CURVE",
"431 761 OFFCURVE",
"482 1025 OFFCURVE",
"636 1025 CURVE SMOOTH",
"689 1025 OFFCURVE",
"714 977 OFFCURVE",
"718 886 CURVE",
"724 689 OFFCURVE",
"537 582 OFFCURVE"
);
}
);
width = 1080;
}
);
unicode = 0119;
},
{
glyphname = f;
lastChange = "2016-10-13 21:43:13 +0000";
layers = (
{
anchors = (
{
name = top;
position = "{447, 1553}";
}
);
layerId = "8869C5F7-E59C-494D-926F-BD4E51EFDE49";
paths = (
{
closed = 1;
nodes = (
"146 -127 LINE",
"125 -285 OFFCURVE",
"88 -398 OFFCURVE",
"-4 -398 CURVE SMOOTH",
"-59 -399 OFFCURVE",
"-153 -371 OFFCURVE",
"-166 -365 CURVE",
"-206 -499 LINE",
"-178 -507 OFFCURVE",
"-109 -514 OFFCURVE",
"-44 -513 CURVE SMOOTH",
"148 -511 OFFCURVE",
"270 -338 OFFCURVE",
"303 -74 CURVE SMOOTH",
"446 1040 LINE",
"712 1040 LINE",
"725 1155 LINE",
"460 1155 LINE",
"474 1263 LINE SMOOTH",
"495 1435 OFFCURVE",
"573 1552 OFFCURVE",
"692 1553 CURVE SMOOTH",
"765 1554 OFFCURVE",
"812 1527 OFFCURVE",
"838 1510 CURVE",
"883 1644 LINE",
"832 1666 OFFCURVE",
"778 1670 OFFCURVE",
"725 1670 CURVE SMOOTH",
"541 1670 OFFCURVE",
"363 1480 OFFCURVE",
"326 1249 CURVE SMOOTH",
"311 1150 LINE",
"165 1101 LINE",
"152 1040 LINE",
"292 1040 LINE"
);
}
);
width = 700;
},
{
anchors = (
{
name = top;
position = "{455, 1568}";
}
);
layerId = "ECCAD73A-D96E-4C88-9DA5-23DA0E7E9E34";
paths = (
{
closed = 1;
nodes = (
"88 -156 LINE",
"70 -292 OFFCURVE",
"26 -348 OFFCURVE",
"-38 -348 CURVE SMOOTH",
"-86 -349 OFFCURVE",
"-181 -305 OFFCURVE",
"-194 -299 CURVE",
"-253 -489 LINE",
"-220 -497 OFFCURVE",
"-136 -513 OFFCURVE",
"-63 -513 CURVE SMOOTH",
"252 -513 OFFCURVE",
"408 -168 OFFCURVE",
"447 158 CURVE SMOOTH",
"545 984 LINE",
"743 984 LINE",
"774 1155 LINE",
"569 1155 LINE",
"592 1305 LINE SMOOTH",
"611 1430 OFFCURVE",
"618 1514 OFFCURVE",
"723 1514 CURVE SMOOTH",
"789 1514 OFFCURVE",
"832 1484 OFFCURVE",
"857 1466 CURVE",
"919 1644 LINE",
"865 1666 OFFCURVE",
"797 1670 OFFCURVE",
"741 1670 CURVE SMOOTH",
"474 1670 OFFCURVE",
"311 1477 OFFCURVE",
"270 1229 CURVE SMOOTH",
"257 1150 LINE",
"121 1087 LINE",
"100 984 LINE",
"225 984 LINE"
);
}
);
width = 688;
}
);
unicode = 0066;
},
{
glyphname = g;
lastChange = "2016-10-13 21:43:13 +0000";
layers = (
{
anchors = (
{
name = top;
position = "{718, 1255}";
}
);
layerId = "8869C5F7-E59C-494D-926F-BD4E51EFDE49";
paths = (
{
closed = 1;
nodes = (
"84 412 CURVE SMOOTH",
"84 162 OFFCURVE",
"191 -20 OFFCURVE",
"416 -20 CURVE SMOOTH",
"563 -20 OFFCURVE",
"683 72 OFFCURVE",
"752 160 CURVE",
"707 -131 LINE SMOOTH",
"677 -321 OFFCURVE",
"591 -381 OFFCURVE",
"407 -381 CURVE SMOOTH",
"306 -381 OFFCURVE",
"209 -350 OFFCURVE",
"153 -325 CURVE",
"115 -473 LINE",
"155 -490 OFFCURVE",
"246 -508 OFFCURVE",
"334 -508 CURVE SMOOTH",
"531 -508 OFFCURVE",
"817 -393 OFFCURVE",
"862 -77 CURVE",
"1055 1163 LINE",
"940 1121 LINE",
"884 1143 OFFCURVE",
"802 1163 OFFCURVE",
"724 1163 CURVE SMOOTH",
"315 1163 OFFCURVE",
"84 721 OFFCURVE"
);
},
{
closed = 1;
nodes = (
"441 94 CURVE SMOOTH",
"312 94 OFFCURVE",
"240 217 OFFCURVE",
"240 423 CURVE SMOOTH",
"240 681 OFFCURVE",
"389 1065 OFFCURVE",
"701 1065 CURVE SMOOTH",
"763 1065 OFFCURVE",
"831 1050 OFFCURVE",
"879 1011 CURVE",
"773 299 LINE",
"717 214 OFFCURVE",
"587 94 OFFCURVE"
);
}
);
width = 1149;
},
{
anchors = (
{
name = top;
position = "{800, 1255}";
}
);
layerId = "ECCAD73A-D96E-4C88-9DA5-23DA0E7E9E34";
paths = (
{
closed = 1;
nodes = (
"60 402 CURVE SMOOTH",
"60 172 OFFCURVE",
"163 -20 OFFCURVE",
"413 -20 CURVE SMOOTH",
"528 -20 OFFCURVE",
"617 22 OFFCURVE",
"680 73 CURVE",
"655 -145 LINE SMOOTH",
"635 -321 OFFCURVE",
"570 -359 OFFCURVE",
"434 -359 CURVE SMOOTH",
"316 -359 OFFCURVE",
"173 -277 OFFCURVE",
"153 -258 CURVE",
"102 -473 LINE",
"142 -492 OFFCURVE",
"272 -518 OFFCURVE",
"370 -518 CURVE SMOOTH",
"638 -518 OFFCURVE",
"945 -429 OFFCURVE",
"989 -77 CURVE",
"1156 1163 LINE",
"994 1117 LINE",
"934 1138 OFFCURVE",
"830 1163 OFFCURVE",
"746 1163 CURVE SMOOTH",
"293 1163 OFFCURVE",
"60 791 OFFCURVE"
);
},
{
closed = 1;
nodes = (
"554 154 CURVE SMOOTH",
"463 154 OFFCURVE",
"406 249 OFFCURVE",
"406 413 CURVE SMOOTH",
"406 680 OFFCURVE",
"479 1023 OFFCURVE",
"722 1023 CURVE SMOOTH",
"755 1023 OFFCURVE",
"786 1020 OFFCURVE",
"814 1012 CURVE",
"699 227 LINE",
"660 186 OFFCURVE",
"609 154 OFFCURVE"
);
}
);
width = 1218;
}
);
unicode = 0067;
},
{
glyphname = gcommaaccent;
lastChange = "2016-10-13 21:43:13 +0000";
layers = (
{
layerId = "8869C5F7-E59C-494D-926F-BD4E51EFDE49";
paths = (
{
closed = 1;
nodes = (
"84 412 CURVE SMOOTH",
"84 162 OFFCURVE",
"191 -20 OFFCURVE",
"416 -20 CURVE SMOOTH",
"563 -20 OFFCURVE",
"683 72 OFFCURVE",
"752 160 CURVE",
"707 -131 LINE SMOOTH",
"677 -321 OFFCURVE",
"591 -381 OFFCURVE",
"407 -381 CURVE SMOOTH",
"306 -381 OFFCURVE",
"209 -350 OFFCURVE",
"153 -325 CURVE",
"115 -473 LINE",
"155 -490 OFFCURVE",
"246 -508 OFFCURVE",
"334 -508 CURVE SMOOTH",
"531 -508 OFFCURVE",
"817 -393 OFFCURVE",
"862 -77 CURVE",
"1055 1163 LINE",
"940 1121 LINE",
"884 1143 OFFCURVE",
"802 1163 OFFCURVE",
"724 1163 CURVE SMOOTH",
"315 1163 OFFCURVE",
"84 721 OFFCURVE"
);
},
{
closed = 1;
nodes = (
"441 94 CURVE SMOOTH",
"312 94 OFFCURVE",
"240 217 OFFCURVE",
"240 423 CURVE SMOOTH",
"240 681 OFFCURVE",
"389 1065 OFFCURVE",
"701 1065 CURVE SMOOTH",
"763 1065 OFFCURVE",
"831 1050 OFFCURVE",
"879 1011 CURVE",
"773 299 LINE",
"717 214 OFFCURVE",
"587 94 OFFCURVE"
);
},
{
closed = 1;
nodes = (
"805 1392 LINE",
"810 1435 LINE",
"755 1447 OFFCURVE",
"717 1516 OFFCURVE",
"724 1573 CURVE SMOOTH",
"734 1661 OFFCURVE",
"782 1717 OFFCURVE",
"840 1752 CURVE",
"842 1772 LINE",
"810 1806 LINE",
"731 1788 OFFCURVE",
"595 1672 OFFCURVE",
"579 1521 CURVE SMOOTH",
"569 1419 OFFCURVE",
"621 1316 OFFCURVE",
"711 1297 CURVE"
);
}
);
width = 1149;
},
{
layerId = "ECCAD73A-D96E-4C88-9DA5-23DA0E7E9E34";
paths = (
{
closed = 1;
nodes = (
"62 402 CURVE SMOOTH",
"62 172 OFFCURVE",
"165 -20 OFFCURVE",
"415 -20 CURVE SMOOTH",
"530 -20 OFFCURVE",
"619 22 OFFCURVE",
"682 73 CURVE",
"657 -145 LINE SMOOTH",
"637 -321 OFFCURVE",
"572 -359 OFFCURVE",
"436 -359 CURVE SMOOTH",
"318 -359 OFFCURVE",
"175 -277 OFFCURVE",
"155 -258 CURVE",
"104 -473 LINE",
"144 -492 OFFCURVE",
"274 -518 OFFCURVE",
"372 -518 CURVE SMOOTH",
"640 -518 OFFCURVE",
"947 -429 OFFCURVE",
"991 -77 CURVE",
"1158 1163 LINE",
"996 1117 LINE",
"936 1138 OFFCURVE",
"832 1163 OFFCURVE",
"748 1163 CURVE SMOOTH",
"295 1163 OFFCURVE",
"62 791 OFFCURVE"
);
},
{
closed = 1;
nodes = (
"556 154 CURVE SMOOTH",
"465 154 OFFCURVE",
"408 249 OFFCURVE",
"408 413 CURVE SMOOTH",
"408 680 OFFCURVE",
"481 1023 OFFCURVE",
"724 1023 CURVE SMOOTH",
"757 1023 OFFCURVE",
"788 1020 OFFCURVE",
"816 1012 CURVE",
"701 227 LINE",
"662 186 OFFCURVE",
"611 154 OFFCURVE"
);
},
{
closed = 1;
nodes = (
"895 1355 LINE",
"906 1448 LINE",
"867 1452 OFFCURVE",
"839 1499 OFFCURVE",
"839 1549 CURVE SMOOTH",
"839 1621 OFFCURVE",
"884 1665 OFFCURVE",
"907 1678 CURVE",
"910 1704 LINE",
"810 1774 LINE",
"707 1755 OFFCURVE",
"583 1634 OFFCURVE",
"583 1463 CURVE SMOOTH",
"583 1358 OFFCURVE",
"651 1270 OFFCURVE",
"741 1251 CURVE"
);
}
);
width = 1220;
}
);
unicode = 0123;
},
{
glyphname = h;
lastChange = "2016-10-13 21:43:13 +0000";
layers = (
{
anchors = (
{
name = cap;
position = "{244, 1857}";
},
{
name = top;
position = "{765, 1496}";
}
);
layerId = "8869C5F7-E59C-494D-926F-BD4E51EFDE49";
paths = (
{
closed = 1;
nodes = (
"799 96 CURVE",
"794 11 OFFCURVE",
"838 -20 OFFCURVE",
"905 -20 CURVE SMOOTH",
"1015 -20 OFFCURVE",
"1104 77 OFFCURVE",
"1119 103 CURVE",
"1093 147 LINE",
"1044 104 OFFCURVE",
"1017 84 OFFCURVE",
"985 84 CURVE SMOOTH",
"964 84 OFFCURVE",
"955 110 OFFCURVE",
"957 157 CURVE",
"965 260 OFFCURVE",
"993 403 OFFCURVE",
"1011 505 CURVE SMOOTH",
"1032 617 OFFCURVE",
"1064 767 OFFCURVE",
"1064 867 CURVE SMOOTH",
"1064 1089 OFFCURVE",
"979 1163 OFFCURVE",
"838 1163 CURVE SMOOTH",
"666 1163 OFFCURVE",
"495 1025 OFFCURVE",
"386 870 CURVE",
"488 1627 LINE",
"447 1650 LINE",
"221 1615 LINE",
"208 1548 LINE",
"323 1515 LINE",
"122 0 LINE",
"269 0 LINE",
"369 743 LINE",
"474 901 OFFCURVE",
"647 1036 OFFCURVE",
"774 1036 CURVE SMOOTH",
"867 1036 OFFCURVE",
"911 996 OFFCURVE",
"911 859 CURVE SMOOTH",
"911 734 OFFCURVE",
"877 574 OFFCURVE",
"855 457 CURVE",
"836 345 OFFCURVE",
"803 190 OFFCURVE"
);
}
);
width = 1239;
},
{
anchors = (
{
name = cap;
position = "{226, 1857}";
},
{
name = top;
position = "{785, 1496}";
}
);
layerId = "ECCAD73A-D96E-4C88-9DA5-23DA0E7E9E34";
paths = (
{
closed = 1;
nodes = (
"728 150 CURVE SMOOTH",
"728 63 OFFCURVE",
"751 -21 OFFCURVE",
"931 -21 CURVE SMOOTH",
"1111 -21 OFFCURVE",
"1209 95 OFFCURVE",
"1231 124 CURVE",
"1203 197 LINE",
"1155 161 OFFCURVE",
"1135 151 OFFCURVE",
"1113 151 CURVE SMOOTH",
"1093 151 OFFCURVE",
"1074 158 OFFCURVE",
"1074 206 CURVE SMOOTH",
"1074 280 OFFCURVE",
"1099 403 OFFCURVE",
"1116 505 CURVE SMOOTH",
"1135 617 OFFCURVE",
"1165 801 OFFCURVE",
"1165 861 CURVE SMOOTH",
"1165 1085 OFFCURVE",
"1054 1163 OFFCURVE",
"900 1163 CURVE SMOOTH",
"737 1163 OFFCURVE",
"604 1063 OFFCURVE",
"516 915 CURVE",
"603 1623 LINE",
"548 1650 LINE",
"139 1608 LINE",
"123 1525 LINE",
"250 1482 LINE",
"71 0 LINE",
"404 0 LINE",
"490 705 LINE",
"552 844 OFFCURVE",
"658 965 OFFCURVE",
"740 965 CURVE SMOOTH",
"793 965 OFFCURVE",
"817 935 OFFCURVE",
"819 825 CURVE SMOOTH",
"821 709 OFFCURVE",
"793 550 OFFCURVE",
"774 443 CURVE SMOOTH",
"753 331 OFFCURVE",
"728 206 OFFCURVE"
);
}
);
width = 1296;
}
);
unicode = 0068;
},
{
glyphname = hbar;
lastChange = "2016-10-13 21:43:13 +0000";
layers = (
{
layerId = "8869C5F7-E59C-494D-926F-BD4E51EFDE49";
paths = (
{
closed = 1;
nodes = (
"129 1280 LINE",
"292 1280 LINE",
"122 0 LINE",
"269 0 LINE",
"369 743 LINE",
"474 901 OFFCURVE",
"647 1036 OFFCURVE",
"774 1036 CURVE SMOOTH",
"867 1036 OFFCURVE",
"911 996 OFFCURVE",
"911 859 CURVE SMOOTH",
"911 734 OFFCURVE",
"877 574 OFFCURVE",
"855 457 CURVE",
"836 345 OFFCURVE",
"803 190 OFFCURVE",
"799 96 CURVE",
"794 11 OFFCURVE",
"838 -20 OFFCURVE",
"905 -20 CURVE SMOOTH",
"1015 -20 OFFCURVE",
"1104 77 OFFCURVE",
"1119 103 CURVE",
"1093 147 LINE",
"1044 104 OFFCURVE",
"1017 84 OFFCURVE",
"985 84 CURVE SMOOTH",
"964 84 OFFCURVE",
"955 110 OFFCURVE",
"957 157 CURVE",
"965 260 OFFCURVE",
"993 403 OFFCURVE",
"1011 505 CURVE SMOOTH",
"1032 617 OFFCURVE",
"1064 767 OFFCURVE",
"1064 867 CURVE SMOOTH",
"1064 1089 OFFCURVE",
"979 1163 OFFCURVE",
"838 1163 CURVE SMOOTH",
"666 1163 OFFCURVE",
"495 1025 OFFCURVE",
"386 870 CURVE",
"441 1280 LINE",
"711 1280 LINE",
"724 1369 LINE",
"453 1369 LINE",
"488 1627 LINE",
"447 1650 LINE",
"221 1615 LINE",
"208 1548 LINE",
"323 1515 LINE",
"303 1369 LINE",
"142 1369 LINE"
);
}
);
width = 1239;
},
{
layerId = "ECCAD73A-D96E-4C88-9DA5-23DA0E7E9E34";
paths = (
{
closed = 1;
nodes = (
"91 1262 LINE",
"223 1262 LINE",
"71 0 LINE",
"404 0 LINE",
"490 705 LINE",
"552 844 OFFCURVE",
"658 965 OFFCURVE",
"740 965 CURVE SMOOTH",
"793 965 OFFCURVE",
"817 935 OFFCURVE",
"819 825 CURVE SMOOTH",
"821 709 OFFCURVE",
"793 550 OFFCURVE",
"774 443 CURVE SMOOTH",
"753 331 OFFCURVE",
"728 206 OFFCURVE",
"728 150 CURVE SMOOTH",
"728 63 OFFCURVE",
"751 -21 OFFCURVE",
"931 -21 CURVE SMOOTH",
"1111 -21 OFFCURVE",
"1209 95 OFFCURVE",
"1231 124 CURVE",
"1203 197 LINE",
"1155 161 OFFCURVE",
"1135 151 OFFCURVE",
"1113 151 CURVE SMOOTH",
"1093 151 OFFCURVE",
"1074 158 OFFCURVE",
"1074 206 CURVE SMOOTH",
"1074 280 OFFCURVE",
"1099 403 OFFCURVE",
"1116 505 CURVE SMOOTH",
"1135 617 OFFCURVE",
"1165 801 OFFCURVE",
"1165 861 CURVE SMOOTH",
"1165 1085 OFFCURVE",
"1054 1163 OFFCURVE",
"900 1163 CURVE SMOOTH",
"737 1163 OFFCURVE",
"604 1062 OFFCURVE",
"516 914 CURVE",
"558 1262 LINE",
"773 1262 LINE",
"789 1392 LINE",
"574 1392 LINE",
"603 1623 LINE",
"548 1650 LINE",
"139 1608 LINE",
"123 1525 LINE",
"250 1482 LINE",
"239 1392 LINE",
"107 1392 LINE"
);
}
);
width = 1296;
}
);
unicode = 0127;
},
{
glyphname = idotless;
lastChange = "2016-10-13 21:43:13 +0000";
layers = (
{
anchors = (
{
name = bottom;
position = "{477, 63}";
},
{
name = top;
position = "{421, 1255}";
}
);
layerId = "8869C5F7-E59C-494D-926F-BD4E51EFDE49";
paths = (
{
closed = 1;
nodes = (
"173 99 CURVE SMOOTH",
"166 11 OFFCURVE",
"215 -20 OFFCURVE",
"280 -20 CURVE SMOOTH",
"390 -20 OFFCURVE",
"475 84 OFFCURVE",
"493 112 CURVE",
"467 156 LINE",
"419 104 OFFCURVE",
"389 85 OFFCURVE",
"359 85 CURVE SMOOTH",
"340 85 OFFCURVE",
"323 108 OFFCURVE",
"330 158 CURVE SMOOTH",
"471 1138 LINE",
"431 1159 LINE",
"181 1117 LINE",
"168 1052 LINE",
"302 1012 LINE",
"262 712 OFFCURVE",
"182 225 OFFCURVE"
);
}
);
width = 633;
},
{
anchors = (
{
name = bottom;
position = "{489, 63}";
},
{
name = top;
position = "{417, 1255}";
}
);
layerId = "ECCAD73A-D96E-4C88-9DA5-23DA0E7E9E34";
paths = (
{
closed = 1;
nodes = (
"110 129 CURVE SMOOTH",
"97 42 OFFCURVE",
"167 -20 OFFCURVE",
"309 -20 CURVE SMOOTH",
"484 -20 OFFCURVE",
"581 94 OFFCURVE",
"605 124 CURVE",
"577 197 LINE",
"531 163 OFFCURVE",
"508 151 OFFCURVE",
"485 151 CURVE SMOOTH",
"455 151 OFFCURVE",
"443 178 OFFCURVE",
"450 227 CURVE SMOOTH",
"578 1139 LINE",
"523 1163 LINE",
"123 1111 LINE",
"107 1022 LINE",
"222 958 LINE",
"171 574 OFFCURVE",
"134 288 OFFCURVE"
);
}
);
width = 671;
}
);
unicode = 0131;
},
{
glyphname = iogonek;
lastChange = "2016-10-13 21:43:13 +0000";
layers = (
{
layerId = "8869C5F7-E59C-494D-926F-BD4E51EFDE49";
paths = (
{
closed = 1;
nodes = (
"173 99 CURVE",
"167 28 OFFCURVE",
"197 -5 OFFCURVE",
"243 -16 CURVE",
"174 -54 OFFCURVE",
"102 -98 OFFCURVE",
"48 -175 CURVE SMOOTH",
"28 -204 OFFCURVE",
"15 -247 OFFCURVE",
"14 -287 CURVE",
"11 -346 OFFCURVE",
"52 -416 OFFCURVE",
"159 -416 CURVE SMOOTH",
"275 -416 OFFCURVE",
"357 -368 OFFCURVE",
"409 -322 CURVE",
"388 -245 LINE",
"339 -287 OFFCURVE",
"284 -313 OFFCURVE",
"229 -313 CURVE SMOOTH",
"190 -313 OFFCURVE",
"158 -286 OFFCURVE",
"161 -226 CURVE",
"163 -147 OFFCURVE",
"265 -72 OFFCURVE",
"362 -1 CURVE",
"431 30 OFFCURVE",
"480 91 OFFCURVE",
"493 112 CURVE",
"467 156 LINE",
"419 104 OFFCURVE",
"389 85 OFFCURVE",
"359 85 CURVE SMOOTH",
"340 85 OFFCURVE",
"323 108 OFFCURVE",
"330 158 CURVE SMOOTH",
"471 1138 LINE",
"431 1159 LINE",
"181 1117 LINE",
"168 1052 LINE",
"302 1012 LINE",
"262 712 OFFCURVE",
"182 225 OFFCURVE"
);
},
{
closed = 1;
nodes = (
"422 1401 CURVE SMOOTH",
"483 1401 OFFCURVE",
"536 1459 OFFCURVE",
"538 1529 CURVE SMOOTH",
"539 1583 OFFCURVE",
"504 1622 OFFCURVE",
"446 1622 CURVE SMOOTH",
"395 1622 OFFCURVE",
"337 1568 OFFCURVE",
"335 1499 CURVE SMOOTH",
"334 1442 OFFCURVE",
"373 1401 OFFCURVE"
);
}
);
width = 633;
},
{
layerId = "ECCAD73A-D96E-4C88-9DA5-23DA0E7E9E34";
paths = (
{
closed = 1;
nodes = (
"110 129 CURVE SMOOTH",
"100 64 OFFCURVE",
"136 12 OFFCURVE",
"215 -9 CURVE",
"151 -42 OFFCURVE",
"85 -89 OFFCURVE",
"21 -182 CURVE SMOOTH",
"-5 -220 OFFCURVE",
"-24 -273 OFFCURVE",
"-24 -306 CURVE SMOOTH",
"-24 -411 OFFCURVE",
"40 -480 OFFCURVE",
"169 -480 CURVE SMOOTH",
"314 -480 OFFCURVE",
"432 -409 OFFCURVE",
"513 -326 CURVE",
"477 -212 LINE",
"421 -256 OFFCURVE",
"379 -287 OFFCURVE",
"324 -287 CURVE SMOOTH",
"285 -287 OFFCURVE",
"257 -272 OFFCURVE",
"257 -215 CURVE SMOOTH",
"257 -143 OFFCURVE",
"366 -54 OFFCURVE",
"497 30 CURVE",
"556 64 OFFCURVE",
"591 107 OFFCURVE",
"605 124 CURVE",
"577 197 LINE",
"531 163 OFFCURVE",
"508 151 OFFCURVE",
"485 151 CURVE SMOOTH",
"455 151 OFFCURVE",
"443 178 OFFCURVE",
"450 227 CURVE SMOOTH",
"578 1139 LINE",
"523 1163 LINE",
"123 1111 LINE",
"107 1022 LINE",
"222 958 LINE",
"171 574 OFFCURVE",
"134 288 OFFCURVE"
);
},
{
closed = 1;
nodes = (
"422 1338 CURVE SMOOTH",
"564 1338 OFFCURVE",
"625 1429 OFFCURVE",
"628 1540 CURVE SMOOTH",
"630 1620 OFFCURVE",
"564 1701 OFFCURVE",
"458 1701 CURVE SMOOTH",
"335 1701 OFFCURVE",
"263 1614 OFFCURVE",
"260 1505 CURVE SMOOTH",
"258 1422 OFFCURVE",
"333 1338 OFFCURVE"
);
}
);
width = 671;
}
);
unicode = 012F;
},
{
glyphname = jdotless;
lastChange = "2016-10-13 21:43:13 +0000";
layers = (
{
layerId = "8869C5F7-E59C-494D-926F-BD4E51EFDE49";
paths = (
{
closed = 1;
nodes = (
"-72 -518 CURVE SMOOTH",
"157 -518 OFFCURVE",
"311 -341 OFFCURVE",
"352 2 CURVE SMOOTH",
"486 1138 LINE",
"447 1159 LINE",
"191 1117 LINE",
"178 1052 LINE",
"318 1012 LINE",
"209 58 LINE SMOOTH",
"178 -205 OFFCURVE",
"105 -432 OFFCURVE",
"-97 -432 CURVE SMOOTH",
"-125 -432 OFFCURVE",
"-166 -424 OFFCURVE",
"-184 -415 CURVE",
"-212 -481 LINE",
"-190 -505 OFFCURVE",
"-136 -518 OFFCURVE"
);
}
);
width = 647;
},
{
layerId = "ECCAD73A-D96E-4C88-9DA5-23DA0E7E9E34";
paths = (
{
closed = 1;
nodes = (
"-77 -528 CURVE SMOOTH",
"171 -528 OFFCURVE",
"399 -347 OFFCURVE",
"443 0 CURVE SMOOTH",
"580 1139 LINE",
"528 1163 LINE",
"77 1112 LINE",
"56 1031 LINE",
"222 980 LINE",
"117 65 LINE SMOOTH",
"90 -170 OFFCURVE",
"53 -382 OFFCURVE",
"-136 -382 CURVE SMOOTH",
"-146 -382 OFFCURVE",
"-192 -376 OFFCURVE",
"-210 -370 CURVE",
"-248 -491 LINE",
"-221 -516 OFFCURVE",
"-157 -528 OFFCURVE"
);
}
);
width = 654;
}
);
unicode = 0237;
},
{
glyphname = k;
lastChange = "2016-10-13 21:43:13 +0000";
layers = (
{
anchors = (
{
name = btm;
position = "{487, -170}";
},
{
name = top;
position = "{577, 1255}";
}
);
layerId = "8869C5F7-E59C-494D-926F-BD4E51EFDE49";
paths = (
{
closed = 1;
nodes = (
"112 0 LINE",
"259 0 LINE",
"478 1627 LINE",
"436 1650 LINE",
"210 1615 LINE",
"198 1548 LINE",
"313 1515 LINE"
);
},
{
closed = 1;
nodes = (
"367 611 CURVE",
"369 611 LINE",
"367 610 LINE",
"683 88 LINE",
"728 12 OFFCURVE",
"782 -20 OFFCURVE",
"836 -20 CURVE SMOOTH",
"930 -20 OFFCURVE",
"1019 47 OFFCURVE",
"1050 101 CURVE",
"1023 151 LINE",
"984 111 OFFCURVE",
"945 93 OFFCURVE",
"917 93 CURVE SMOOTH",
"882 93 OFFCURVE",
"835 135 OFFCURVE",
"798 189 CURVE SMOOTH",
"502 618 LINE",
"607 682 OFFCURVE",
"865 821 OFFCURVE",
"958 956 CURVE",
"992 1003 OFFCURVE",
"1003 1049 OFFCURVE",
"1002 1082 CURVE SMOOTH",
"1001 1131 OFFCURVE",
"964 1163 OFFCURVE",
"921 1163 CURVE SMOOTH",
"877 1163 OFFCURVE",
"829 1133 OFFCURVE",
"819 1072 CURVE",
"813 1029 OFFCURVE",
"805 975 OFFCURVE",
"762 917 CURVE SMOOTH",
"665 786 OFFCURVE",
"503 711 OFFCURVE"
);
}
);
width = 1063;
},
{
anchors = (
{
name = btm;
position = "{562, -170}";
},
{
name = top;
position = "{638, 1255}";
}
);
layerId = "ECCAD73A-D96E-4C88-9DA5-23DA0E7E9E34";
paths = (
{
closed = 1;
nodes = (
"63 0 LINE",
"396 0 LINE",
"611 1623 LINE",
"556 1650 LINE",
"147 1608 LINE",
"130 1525 LINE",
"258 1482 LINE"
);
},
{
closed = 1;
nodes = (
"478 611 CURVE",
"483 611 LINE",
"478 610 LINE",
"664 101 LINE SMOOTH",
"690 30 OFFCURVE",
"744 -19 OFFCURVE",
"861 -19 CURVE SMOOTH",
"1031 -19 OFFCURVE",
"1166 109 OFFCURVE",
"1205 157 CURVE",
"1171 228 LINE",
"1132 198 OFFCURVE",
"1079 182 OFFCURVE",
"1055 182 CURVE SMOOTH",
"1022 182 OFFCURVE",
"980 213 OFFCURVE",
"948 274 CURVE",
"764 654 LINE",
"876 704 OFFCURVE",
"995 778 OFFCURVE",
"1069 872 CURVE",
"1097 910 OFFCURVE",
"1126 960 OFFCURVE",
"1126 1034 CURVE SMOOTH",
"1126 1103 OFFCURVE",
"1081 1163 OFFCURVE",
"996 1163 CURVE SMOOTH",
"927 1163 OFFCURVE",
"831 1137 OFFCURVE",
"831 1028 CURVE SMOOTH",
"831 964 OFFCURVE",
"815 912 OFFCURVE",
"778 863 CURVE SMOOTH",
"660 707 OFFCURVE",
"578 663 OFFCURVE"
);
}
);
width = 1158;
}
);
unicode = 006B;
},
{
glyphname = kgreenlandic;
lastChange = "2016-10-13 21:43:13 +0000";
layers = (
{
anchors = (
{
name = bottom;
position = "{587, -128}";
}
);
layerId = "8869C5F7-E59C-494D-926F-BD4E51EFDE49";
paths = (
{
closed = 1;
nodes = (
"684 88 LINE",
"728 10 OFFCURVE",
"774 -19 OFFCURVE",
"828 -19 CURVE SMOOTH",
"909 -19 OFFCURVE",
"988 30 OFFCURVE",
"1015 70 CURVE",
"991 109 LINE",
"958 91 OFFCURVE",
"934 82 OFFCURVE",
"914 82 CURVE SMOOTH",
"879 82 OFFCURVE",
"836 126 OFFCURVE",
"802 181 CURVE",
"533 587 LINE",
"1086 1130 LINE",
"909 1130 LINE",
"388 584 LINE",
"389 584 LINE",
"387 582 LINE"
);
},
{
closed = 1;
nodes = (
"141 0 LINE",
"286 0 LINE",
"434 1127 LINE",
"393 1150 LINE",
"176 1115 LINE",
"160 1047 LINE",
"271 1015 LINE"
);
}
);
width = 1060;
},
{
anchors = (
{
name = bottom;
position = "{588, -128}";
}
);
layerId = "ECCAD73A-D96E-4C88-9DA5-23DA0E7E9E34";
paths = (
{
closed = 1;
nodes = (
"82 0 LINE",
"406 0 LINE",
"548 1139 LINE",
"496 1163 LINE",
"122 1111 LINE",
"106 1022 LINE",
"213 962 LINE"
);
},
{
closed = 1;
nodes = (
"674 101 LINE SMOOTH",
"700 30 OFFCURVE",
"754 -19 OFFCURVE",
"871 -19 CURVE SMOOTH",
"1041 -19 OFFCURVE",
"1176 109 OFFCURVE",
"1215 157 CURVE",
"1181 228 LINE",
"1142 198 OFFCURVE",
"1089 182 OFFCURVE",
"1065 182 CURVE SMOOTH",
"1032 182 OFFCURVE",
"990 213 OFFCURVE",
"958 274 CURVE",
"769 665 LINE",
"1189 1154 LINE",
"918 1154 LINE",
"488 610 LINE"
);
}
);
width = 1219;
}
);
unicode = 0138;
},
{
glyphname = l;
lastChange = "2016-10-13 21:43:13 +0000";
layers = (
{
anchors = (
{
name = btm;
position = "{203, -170}";
},
{
name = cap;
position = "{510, 1881}";
},
{
name = caron;
position = "{591, 1568}";
},
{
name = top;
position = "{313, 1255}";
}
);
layerId = "8869C5F7-E59C-494D-926F-BD4E51EFDE49";
paths = (
{
closed = 1;
nodes = (
"152 102 CURVE SMOOTH",
"150 15 OFFCURVE",
"184 -20 OFFCURVE",
"251 -20 CURVE SMOOTH",
"361 -20 OFFCURVE",
"449 84 OFFCURVE",
"464 112 CURVE",
"439 155 LINE",
"389 102 OFFCURVE",
"357 85 OFFCURVE",
"328 85 CURVE SMOOTH",
"309 85 OFFCURVE",
"294 110 OFFCURVE",
"301 158 CURVE SMOOTH",
"507 1627 LINE",
"468 1650 LINE",
"246 1615 LINE",
"230 1548 LINE",
"348 1515 LINE",
"158 170 LINE SMOOTH",
"155 150 OFFCURVE",
"152 116 OFFCURVE"
);
}
);
width = 606;
},
{
anchors = (
{
name = btm;
position = "{194, -170}";
},
{
name = cap;
position = "{519, 1881}";
},
{
name = caron;
position = "{607, 1568}";
},
{
name = top;
position = "{308, 1255}";
}
);
layerId = "ECCAD73A-D96E-4C88-9DA5-23DA0E7E9E34";
paths = (
{
closed = 1;
nodes = (
"87 115 CURVE SMOOTH",
"89 17 OFFCURVE",
"194 -20 OFFCURVE",
"302 -20 CURVE SMOOTH",
"466 -20 OFFCURVE",
"560 95 OFFCURVE",
"582 124 CURVE",
"554 197 LINE",
"502 158 OFFCURVE",
"483 151 OFFCURVE",
"462 151 CURVE SMOOTH",
"430 151 OFFCURVE",
"420 180 OFFCURVE",
"427 227 CURVE SMOOTH",
"611 1623 LINE",
"560 1650 LINE",
"154 1608 LINE",
"134 1525 LINE",
"266 1482 LINE",
"95 192 LINE SMOOTH",
"93 176 OFFCURVE",
"87 139 OFFCURVE"
);
}
);
width = 635;
}
);
unicode = 006C;
},
{
glyphname = lacute;
lastChange = "2016-10-13 21:43:13 +0000";
layers = (
{
layerId = "8869C5F7-E59C-494D-926F-BD4E51EFDE49";
paths = (
{
closed = 1;
nodes = (
"490 1499 LINE",
"451 1522 LINE",
"231 1488 LINE",
"215 1421 LINE",
"331 1387 LINE",
"158 170 LINE SMOOTH",
"156 155 OFFCURVE",
"152 116 OFFCURVE",
"152 102 CURVE SMOOTH",
"150 15 OFFCURVE",
"184 -20 OFFCURVE",
"251 -20 CURVE SMOOTH",
"361 -20 OFFCURVE",
"448 84 OFFCURVE",
"464 112 CURVE",
"438 155 LINE",
"389 102 OFFCURVE",
"356 85 OFFCURVE",
"327 85 CURVE SMOOTH",
"309 85 OFFCURVE",
"294 110 OFFCURVE",
"301 158 CURVE SMOOTH"
);
},
{
closed = 1;
nodes = (
"405 1614 LINE",
"502 1669 OFFCURVE",
"678 1801 OFFCURVE",
"733 1906 CURVE",
"638 2000 LINE",
"355 1651 LINE"
);
}
);
width = 606;
},
{
layerId = "ECCAD73A-D96E-4C88-9DA5-23DA0E7E9E34";
paths = (
{
closed = 1;
nodes = (
"608 1503 LINE",
"557 1530 LINE",
"151 1488 LINE",
"131 1405 LINE",
"263 1362 LINE",
"92 192 LINE SMOOTH",
"90 176 OFFCURVE",
"84 139 OFFCURVE",
"84 115 CURVE SMOOTH",
"86 17 OFFCURVE",
"191 -20 OFFCURVE",
"299 -20 CURVE SMOOTH",
"463 -20 OFFCURVE",
"557 95 OFFCURVE",
"579 124 CURVE",
"551 197 LINE",
"499 158 OFFCURVE",
"480 151 OFFCURVE",
"459 151 CURVE SMOOTH",
"427 151 OFFCURVE",
"417 180 OFFCURVE",
"424 227 CURVE SMOOTH"
);
},
{
closed = 1;
nodes = (
"467 1570 LINE",
"563 1606 OFFCURVE",
"762 1728 OFFCURVE",
"814 1829 CURVE",
"627 2014 LINE",
"351 1672 LINE"
);
}
);
width = 634;
}
);
unicode = 013A;
},
{
glyphname = lslash;
lastChange = "2016-10-13 21:43:13 +0000";
layers = (
{
layerId = "8869C5F7-E59C-494D-926F-BD4E51EFDE49";
paths = (
{
closed = 1;
nodes = (
"85 723 LINE",
"245 786 LINE",
"158 170 LINE SMOOTH",
"155 150 OFFCURVE",
"152 116 OFFCURVE",
"152 102 CURVE SMOOTH",
"150 15 OFFCURVE",
"184 -20 OFFCURVE",
"251 -20 CURVE SMOOTH",
"361 -20 OFFCURVE",
"449 84 OFFCURVE",
"464 112 CURVE",
"439 155 LINE",
"389 102 OFFCURVE",
"357 85 OFFCURVE",
"328 85 CURVE SMOOTH",
"309 85 OFFCURVE",
"294 110 OFFCURVE",
"301 158 CURVE SMOOTH",
"397 846 LINE",
"619 933 LINE",
"619 1051 LINE",
"414 967 LINE",
"507 1627 LINE",
"468 1650 LINE",
"246 1615 LINE",
"230 1548 LINE",
"348 1515 LINE",
"261 904 LINE",
"85 832 LINE"
);
}
);
width = 606;
},
{
layerId = "ECCAD73A-D96E-4C88-9DA5-23DA0E7E9E34";
paths = (
{
closed = 1;
nodes = (
"26 680 LINE",
"167 735 LINE",
"95 192 LINE SMOOTH",
"93 176 OFFCURVE",
"87 139 OFFCURVE",
"87 115 CURVE SMOOTH",
"89 17 OFFCURVE",
"194 -20 OFFCURVE",
"302 -20 CURVE SMOOTH",
"466 -20 OFFCURVE",
"560 95 OFFCURVE",
"582 124 CURVE",
"554 197 LINE",
"502 158 OFFCURVE",
"483 151 OFFCURVE",
"462 151 CURVE SMOOTH",
"430 151 OFFCURVE",
"420 180 OFFCURVE",
"427 227 CURVE",
"511 870 LINE",
"678 935 LINE",
"678 1082 LINE",
"531 1022 LINE",
"611 1623 LINE",
"560 1650 LINE",
"154 1608 LINE",
"134 1525 LINE",
"266 1482 LINE",
"186 882 LINE",
"26 817 LINE"
);
}
);
width = 635;
}
);
unicode = 0142;
},
{
glyphname = m;
lastChange = "2016-10-13 21:43:13 +0000";
layers = (
{
anchors = (
{
name = top;
position = "{1036, 1255}";
}
);
layerId = "8869C5F7-E59C-494D-926F-BD4E51EFDE49";
paths = (
{
closed = 1;
nodes = (
"812 0 LINE",
"962 0 LINE",
"1032 505 LINE",
"1044 585 OFFCURVE",
"1059 685 OFFCURVE",
"1067 772 CURVE",
"1167 915 OFFCURVE",
"1310 1035 OFFCURVE",
"1420 1035 CURVE SMOOTH",
"1512 1035 OFFCURVE",
"1555 996 OFFCURVE",
"1555 858 CURVE SMOOTH",
"1555 733 OFFCURVE",
"1522 576 OFFCURVE",
"1503 462 CURVE",
"1485 345 OFFCURVE",
"1456 193 OFFCURVE",
"1452 94 CURVE SMOOTH",
"1449 13 OFFCURVE",
"1485 -20 OFFCURVE",
"1552 -20 CURVE SMOOTH",
"1661 -20 OFFCURVE",
"1750 84 OFFCURVE",
"1767 112 CURVE",
"1742 156 LINE",
"1693 107 OFFCURVE",
"1661 85 OFFCURVE",
"1628 85 CURVE SMOOTH",
"1608 85 OFFCURVE",
"1602 113 OFFCURVE",
"1605 158 CURVE SMOOTH",
"1612 263 OFFCURVE",
"1639 401 OFFCURVE",
"1656 506 CURVE SMOOTH",
"1675 622 OFFCURVE",
"1706 771 OFFCURVE",
"1706 867 CURVE SMOOTH",
"1706 1080 OFFCURVE",
"1612 1163 OFFCURVE",
"1475 1163 CURVE SMOOTH",
"1325 1163 OFFCURVE",
"1174 1041 OFFCURVE",
"1072 899 CURVE",
"1066 1084 OFFCURVE",
"994 1163 OFFCURVE",
"849 1163 CURVE SMOOTH",
"687 1163 OFFCURVE",
"515 1033 OFFCURVE",
"402 882 CURVE",
"429 1143 LINE",
"391 1163 LINE",
"186 1121 LINE",
"173 1049 LINE",
"270 1002 LINE",
"137 0 LINE",
"285 0 LINE",
"384 746 LINE",
"489 903 OFFCURVE",
"661 1037 OFFCURVE",
"784 1037 CURVE SMOOTH",
"888 1037 OFFCURVE",
"921 997 OFFCURVE",
"921 859 CURVE SMOOTH",
"921 738 OFFCURVE",
"895 574 OFFCURVE",
"876 457 CURVE"
);
}
);
width = 1893;
},
{
anchors = (
{
name = top;
position = "{1067, 1255}";
}
);
layerId = "ECCAD73A-D96E-4C88-9DA5-23DA0E7E9E34";
paths = (
{
closed = 1;
nodes = (
"748 0 LINE",
"1083 0 LINE",
"1142 505 LINE",
"1153 582 OFFCURVE",
"1162 675 OFFCURVE",
"1166 758 CURVE",
"1229 882 OFFCURVE",
"1326 965 OFFCURVE",
"1403 965 CURVE SMOOTH",
"1456 965 OFFCURVE",
"1480 935 OFFCURVE",
"1482 825 CURVE SMOOTH",
"1484 709 OFFCURVE",
"1456 550 OFFCURVE",
"1437 443 CURVE SMOOTH",
"1416 331 OFFCURVE",
"1391 206 OFFCURVE",
"1391 150 CURVE SMOOTH",
"1391 73 OFFCURVE",
"1414 -21 OFFCURVE",
"1594 -21 CURVE SMOOTH",
"1774 -21 OFFCURVE",
"1872 95 OFFCURVE",
"1894 124 CURVE",
"1866 197 LINE",
"1818 161 OFFCURVE",
"1798 151 OFFCURVE",
"1776 151 CURVE SMOOTH",
"1756 151 OFFCURVE",
"1737 158 OFFCURVE",
"1737 206 CURVE SMOOTH",
"1737 280 OFFCURVE",
"1762 403 OFFCURVE",
"1779 505 CURVE SMOOTH",
"1798 617 OFFCURVE",
"1828 801 OFFCURVE",
"1828 861 CURVE SMOOTH",
"1828 1085 OFFCURVE",
"1717 1163 OFFCURVE",
"1563 1163 CURVE SMOOTH",
"1390 1163 OFFCURVE",
"1253 1073 OFFCURVE",
"1166 916 CURVE",
"1146 1099 OFFCURVE",
"1040 1163 OFFCURVE",
"894 1163 CURVE SMOOTH",
"741 1163 OFFCURVE",
"614 1060 OFFCURVE",
"532 927 CURVE",
"548 1139 LINE",
"495 1163 LINE",
"123 1111 LINE",
"106 1022 LINE",
"214 962 LINE",
"82 0 LINE",
"405 0 LINE",
"507 742 LINE",
"570 864 OFFCURVE",
"672 965 OFFCURVE",
"742 965 CURVE SMOOTH",
"805 965 OFFCURVE",
"832 945 OFFCURVE",
"835 820 CURVE SMOOTH",
"838 704 OFFCURVE",
"819 552 OFFCURVE",
"805 443 CURVE SMOOTH"
);
}
);
width = 1959;
}
);
unicode = 006D;
},
{
glyphname = n;
lastChange = "2016-10-13 21:43:13 +0000";
layers = (
{
anchors = (
{
name = btm;
position = "{540, -170}";
},
{
name = top;
position = "{710, 1255}";
}
);
layerId = "8869C5F7-E59C-494D-926F-BD4E51EFDE49";
paths = (
{
closed = 1;
nodes = (
"137 0 LINE",
"285 0 LINE",
"384 745 LINE",
"490 902 OFFCURVE",
"661 1037 OFFCURVE",
"784 1037 CURVE SMOOTH",
"889 1037 OFFCURVE",
"925 996 OFFCURVE",
"925 859 CURVE SMOOTH",
"925 734 OFFCURVE",
"890 574 OFFCURVE",
"869 457 CURVE SMOOTH",
"849 345 OFFCURVE",
"816 190 OFFCURVE",
"812 96 CURVE SMOOTH",
"808 11 OFFCURVE",
"849 -21 OFFCURVE",
"914 -21 CURVE SMOOTH",
"1016 -21 OFFCURVE",
"1103 71 OFFCURVE",
"1117 95 CURVE",
"1092 139 LINE",
"1052 102 OFFCURVE",
"1020 85 OFFCURVE",
"994 85 CURVE SMOOTH",
"975 85 OFFCURVE",
"968 112 OFFCURVE",
"971 157 CURVE SMOOTH",
"977 260 OFFCURVE",
"1006 403 OFFCURVE",
"1024 505 CURVE SMOOTH",
"1044 617 OFFCURVE",
"1077 768 OFFCURVE",
"1077 868 CURVE SMOOTH",
"1077 1089 OFFCURVE",
"990 1163 OFFCURVE",
"849 1163 CURVE SMOOTH",
"687 1163 OFFCURVE",
"514 1032 OFFCURVE",
"402 882 CURVE",
"430 1143 LINE",
"392 1163 LINE",
"187 1121 LINE",
"173 1049 LINE",
"271 1002 LINE"
);
}
);
width = 1258;
},
{
anchors = (
{
name = btm;
position = "{549, -170}";
},
{
name = top;
position = "{759, 1255}";
}
);
layerId = "ECCAD73A-D96E-4C88-9DA5-23DA0E7E9E34";
paths = (
{
closed = 1;
nodes = (
"83 0 LINE",
"407 0 LINE",
"506 721 LINE",
"568 853 OFFCURVE",
"669 965 OFFCURVE",
"748 965 CURVE SMOOTH",
"801 965 OFFCURVE",
"825 935 OFFCURVE",
"827 825 CURVE SMOOTH",
"829 709 OFFCURVE",
"801 550 OFFCURVE",
"782 443 CURVE SMOOTH",
"761 331 OFFCURVE",
"736 206 OFFCURVE",
"736 150 CURVE SMOOTH",
"736 73 OFFCURVE",
"759 -21 OFFCURVE",
"939 -21 CURVE SMOOTH",
"1119 -21 OFFCURVE",
"1217 95 OFFCURVE",
"1239 124 CURVE",
"1211 197 LINE",
"1163 161 OFFCURVE",
"1143 151 OFFCURVE",
"1121 151 CURVE SMOOTH",
"1101 151 OFFCURVE",
"1082 158 OFFCURVE",
"1082 206 CURVE SMOOTH",
"1082 280 OFFCURVE",
"1107 403 OFFCURVE",
"1124 505 CURVE SMOOTH",
"1143 617 OFFCURVE",
"1173 801 OFFCURVE",
"1173 861 CURVE SMOOTH",
"1173 1085 OFFCURVE",
"1062 1163 OFFCURVE",
"908 1163 CURVE SMOOTH",
"750 1163 OFFCURVE",
"621 1069 OFFCURVE",
"533 929 CURVE",
"549 1139 LINE",
"497 1163 LINE",
"123 1111 LINE",
"107 1022 LINE",
"214 962 LINE"
);
}
);
width = 1304;
}
);
unicode = 006E;
},
{
glyphname = eng;
lastChange = "2016-10-13 21:43:13 +0000";
layers = (
{
layerId = "8869C5F7-E59C-494D-926F-BD4E51EFDE49";
paths = (
{
closed = 1;
nodes = (
"137 0 LINE",
"285 0 LINE",
"383 741 LINE",
"489 899 OFFCURVE",
"661 1037 OFFCURVE",
"784 1037 CURVE SMOOTH",
"889 1037 OFFCURVE",
"927 990 OFFCURVE",
"925 853 CURVE",
"923 605 OFFCURVE",
"841 97 OFFCURVE",
"832 52 CURVE SMOOTH",
"787 -191 OFFCURVE",
"713 -433 OFFCURVE",
"505 -433 CURVE SMOOTH",
"484 -433 OFFCURVE",
"442 -428 OFFCURVE",
"418 -416 CURVE",
"391 -481 LINE",
"413 -505 OFFCURVE",
"468 -518 OFFCURVE",
"531 -518 CURVE SMOOTH",
"754 -518 OFFCURVE",
"902 -349 OFFCURVE",
"970 0 CURVE",
"1023 265 OFFCURVE",
"1067 611 OFFCURVE",
"1077 861 CURVE",
"1084 1082 OFFCURVE",
"993 1162 OFFCURVE",
"849 1162 CURVE SMOOTH",
"687 1162 OFFCURVE",
"513 1031 OFFCURVE",
"401 882 CURVE",
"427 1126 LINE",
"389 1146 LINE",
"184 1104 LINE",
"171 1032 LINE",
"269 985 LINE"
);
}
);
width = 1261;
},
{
layerId = "ECCAD73A-D96E-4C88-9DA5-23DA0E7E9E34";
paths = (
{
closed = 1;
nodes = (
"83 0 LINE",
"407 0 LINE",
"505 719 LINE",
"588 890 OFFCURVE",
"686 965 OFFCURVE",
"749 965 CURVE SMOOTH",
"812 965 OFFCURVE",
"838 912 OFFCURVE",
"827 825 CURVE SMOOTH",
"784 474 OFFCURVE",
"768 199 OFFCURVE",
"740 0 CURVE SMOOTH",
"705 -253 OFFCURVE",
"650 -382 OFFCURVE",
"495 -382 CURVE SMOOTH",
"484 -382 OFFCURVE",
"439 -378 OFFCURVE",
"421 -370 CURVE",
"383 -491 LINE",
"405 -515 OFFCURVE",
"480 -528 OFFCURVE",
"553 -528 CURVE SMOOTH",
"851 -528 OFFCURVE",
"985 -430 OFFCURVE",
"1071 0 CURVE SMOOTH",
"1112 204 OFFCURVE",
"1141 483 OFFCURVE",
"1173 861 CURVE SMOOTH",
"1192 1095 OFFCURVE",
"1056 1162 OFFCURVE",
"908 1162 CURVE SMOOTH",
"727 1162 OFFCURVE",
"609 1051 OFFCURVE",
"533 930 CURVE",
"549 1139 LINE",
"497 1163 LINE",
"123 1111 LINE",
"107 1022 LINE",
"214 962 LINE"
);
}
);
width = 1291;
}
);
unicode = 014B;
},
{
glyphname = o;
lastChange = "2016-10-13 21:43:13 +0000";
layers = (
{
anchors = (
{
name = bottom;
position = "{609, -140}";
},
{
name = top;
position = "{667, 1255}";
}
);
layerId = "8869C5F7-E59C-494D-926F-BD4E51EFDE49";
paths = (
{
closed = 1;
nodes = (
"511 78 CURVE SMOOTH",
"340 78 OFFCURVE",
"246 210 OFFCURVE",
"244 441 CURVE SMOOTH",
"240 714 OFFCURVE",
"369 1065 OFFCURVE",
"626 1065 CURVE SMOOTH",
"801 1065 OFFCURVE",
"888 927 OFFCURVE",
"890 700 CURVE SMOOTH",
"894 430 OFFCURVE",
"763 78 OFFCURVE"
);
},
{
closed = 1;
nodes = (
"87 439 CURVE SMOOTH",
"91 148 OFFCURVE",
"232 -20 OFFCURVE",
"484 -20 CURVE SMOOTH",
"821 -20 OFFCURVE",
"1053 344 OFFCURVE",
"1049 703 CURVE SMOOTH",
"1045 993 OFFCURVE",
"906 1163 OFFCURVE",
"653 1163 CURVE SMOOTH",
"316 1163 OFFCURVE",
"83 802 OFFCURVE"
);
}
);
width = 1143;
},
{
anchors = (
{
name = bottom;
position = "{652, -140}";
},
{
name = top;
position = "{702, 1255}";
}
);
layerId = "ECCAD73A-D96E-4C88-9DA5-23DA0E7E9E34";
paths = (
{
closed = 1;
nodes = (
"551 101 CURVE SMOOTH",
"454 101 OFFCURVE",
"415 192 OFFCURVE",
"408 431 CURVE SMOOTH",
"400 691 OFFCURVE",
"469 1023 OFFCURVE",
"654 1023 CURVE SMOOTH",
"735 1023 OFFCURVE",
"779 948 OFFCURVE",
"785 711 CURVE SMOOTH",
"792 443 OFFCURVE",
"735 101 OFFCURVE"
);
},
{
closed = 1;
nodes = (
"48 435 CURVE SMOOTH",
"59 136 OFFCURVE",
"211 -29 OFFCURVE",
"504 -29 CURVE SMOOTH",
"908 -29 OFFCURVE",
"1161 303 OFFCURVE",
"1148 707 CURVE SMOOTH",
"1139 1006 OFFCURVE",
"982 1165 OFFCURVE",
"690 1165 CURVE SMOOTH",
"286 1165 OFFCURVE",
"35 839 OFFCURVE"
);
}
);
width = 1197;
}
);
unicode = 006F;
},
{
glyphname = oslash;
lastChange = "2016-10-13 21:43:13 +0000";
layers = (
{
layerId = "8869C5F7-E59C-494D-926F-BD4E51EFDE49";
paths = (
{
closed = 1;
nodes = (
"87 441 CURVE SMOOTH",
"89 280 OFFCURVE",
"133 156 OFFCURVE",
"215 78 CURVE",
"106 -94 LINE",
"177 -134 LINE",
"281 29 LINE",
"337 -2 OFFCURVE",
"405 -18 OFFCURVE",
"484 -18 CURVE SMOOTH",
"821 -18 OFFCURVE",
"1053 346 OFFCURVE",
"1049 705 CURVE",
"1046 878 OFFCURVE",
"995 1009 OFFCURVE",
"901 1086 CURVE",
"1002 1252 LINE",
"931 1292 LINE",
"831 1129 LINE",
"780 1152 OFFCURVE",
"721 1165 OFFCURVE",
"653 1165 CURVE SMOOTH",
"316 1165 OFFCURVE",
"83 804 OFFCURVE"
);
},
{
closed = 1;
nodes = (
"511 80 CURVE SMOOTH",
"443 80 OFFCURVE",
"388 100 OFFCURVE",
"345 139 CURVE",
"819 965 LINE",
"822 970 LINE",
"866 907 OFFCURVE",
"889 816 OFFCURVE",
"890 702 CURVE SMOOTH",
"894 432 OFFCURVE",
"763 80 OFFCURVE"
);
},
{
closed = 1;
nodes = (
"244 443 CURVE SMOOTH",
"240 716 OFFCURVE",
"369 1067 OFFCURVE",
"626 1067 CURVE SMOOTH",
"685 1067 OFFCURVE",
"734 1051 OFFCURVE",
"773 1021 CURVE",
"300 196 LINE",
"264 257 OFFCURVE",
"245 340 OFFCURVE"
);
}
);
width = 1143;
},
{
layerId = "ECCAD73A-D96E-4C88-9DA5-23DA0E7E9E34";
paths = (
{
closed = 1;
nodes = (
"49 437 CURVE",
"55 275 OFFCURVE",
"102 152 OFFCURVE",
"191 74 CURVE",
"79 -83 LINE",
"168 -132 LINE",
"275 18 LINE",
"339 -11 OFFCURVE",
"415 -27 OFFCURVE",
"505 -27 CURVE SMOOTH",
"909 -27 OFFCURVE",
"1162 305 OFFCURVE",
"1149 709 CURVE SMOOTH",
"1144 877 OFFCURVE",
"1092 1001 OFFCURVE",
"995 1077 CURVE",
"1120 1254 LINE",
"1031 1303 LINE",
"907 1128 LINE",
"846 1154 OFFCURVE",
"774 1167 OFFCURVE",
"691 1167 CURVE SMOOTH",
"287 1167 OFFCURVE",
"36 841 OFFCURVE"
);
},
{
closed = 1;
nodes = (
"552 103 CURVE SMOOTH",
"491 103 OFFCURVE",
"452 139 OFFCURVE",
"431 225 CURVE",
"782 785 LINE",
"784 763 OFFCURVE",
"785 739 OFFCURVE",
"786 713 CURVE SMOOTH",
"793 445 OFFCURVE",
"736 103 OFFCURVE"
);
},
{
closed = 1;
nodes = (
"409 433 CURVE",
"401 693 OFFCURVE",
"470 1025 OFFCURVE",
"655 1025 CURVE SMOOTH",
"701 1025 OFFCURVE",
"735 1000 OFFCURVE",
"757 935 CURVE",
"411 380 LINE",
"410 397 OFFCURVE",
"409 414 OFFCURVE"
);
}
);
width = 1198;
}
);
unicode = 00F8;
},
{
glyphname = oe;
lastChange = "2016-10-13 21:43:13 +0000";
layers = (
{
layerId = "8869C5F7-E59C-494D-926F-BD4E51EFDE49";
paths = (
{
closed = 1;
nodes = (
"87 439 CURVE SMOOTH",
"92 148 OFFCURVE",
"230 -20 OFFCURVE",
"483 -20 CURVE SMOOTH",
"645 -20 OFFCURVE",
"783 64 OFFCURVE",
"883 191 CURVE",
"940 69 OFFCURVE",
"1051 -20 OFFCURVE",
"1231 -20 CURVE SMOOTH",
"1425 -20 OFFCURVE",
"1588 107 OFFCURVE",
"1645 186 CURVE",
"1609 254 LINE",
"1494 139 OFFCURVE",
"1358 92 OFFCURVE",
"1248 92 CURVE SMOOTH",
"1038 92 OFFCURVE",
"982 314 OFFCURVE",
"996 467 CURVE",
"1197 472 OFFCURVE",
"1702 599 OFFCURVE",
"1702 913 CURVE SMOOTH",
"1702 1054 OFFCURVE",
"1611 1162 OFFCURVE",
"1421 1162 CURVE SMOOTH",
"1256 1162 OFFCURVE",
"1111 1074 OFFCURVE",
"1007 938 CURVE",
"948 1082 OFFCURVE",
"828 1162 OFFCURVE",
"654 1162 CURVE SMOOTH",
"318 1162 OFFCURVE",
"81 802 OFFCURVE"
);
},
{
closed = 1;
nodes = (
"837 437 CURVE",
"836 426 OFFCURVE",
"836 414 OFFCURVE",
"837 403 CURVE",
"779 227 OFFCURVE",
"670 78 OFFCURVE",
"510 78 CURVE SMOOTH",
"339 78 OFFCURVE",
"247 212 OFFCURVE",
"244 441 CURVE SMOOTH",
"240 713 OFFCURVE",
"370 1065 OFFCURVE",
"627 1065 CURVE SMOOTH",
"821 1065 OFFCURVE",
"874 858 OFFCURVE",
"882 696 CURVE",
"855 614 OFFCURVE",
"839 526 OFFCURVE"
);
},
{
closed = 1;
nodes = (
"1000 557 CURVE",
"1022 770 OFFCURVE",
"1161 1069 OFFCURVE",
"1386 1069 CURVE SMOOTH",
"1489 1069 OFFCURVE",
"1546 1012 OFFCURVE",
"1546 899 CURVE SMOOTH",
"1546 687 OFFCURVE",
"1226 564 OFFCURVE"
);
}
);
width = 1796;
},
{
layerId = "ECCAD73A-D96E-4C88-9DA5-23DA0E7E9E34";
paths = (
{
closed = 1;
nodes = (
"61 439 CURVE SMOOTH",
"71 148 OFFCURVE",
"215 -20 OFFCURVE",
"500 -20 CURVE SMOOTH",
"644 -20 OFFCURVE",
"772 24 OFFCURVE",
"873 100 CURVE",
"942 27 OFFCURVE",
"1047 -20 OFFCURVE",
"1195 -20 CURVE SMOOTH",
"1452 -20 OFFCURVE",
"1610 124 OFFCURVE",
"1665 212 CURVE",
"1601 315 LINE",
"1548 246 OFFCURVE",
"1462 159 OFFCURVE",
"1303 159 CURVE SMOOTH",
"1187 159 OFFCURVE",
"1116 247 OFFCURVE",
"1116 455 CURVE",
"1368 461 OFFCURVE",
"1747 583 OFFCURVE",
"1735 913 CURVE SMOOTH",
"1730 1054 OFFCURVE",
"1634 1163 OFFCURVE",
"1406 1163 CURVE SMOOTH",
"1259 1163 OFFCURVE",
"1126 1114 OFFCURVE",
"1019 1028 CURVE",
"949 1116 OFFCURVE",
"841 1163 OFFCURVE",
"691 1163 CURVE SMOOTH",
"288 1163 OFFCURVE",
"47 832 OFFCURVE"
);
},
{
closed = 1;
nodes = (
"757 430 CURVE",
"757 429 LINE",
"730 245 OFFCURVE",
"663 107 OFFCURVE",
"545 107 CURVE SMOOTH",
"451 107 OFFCURVE",
"425 218 OFFCURVE",
"418 431 CURVE SMOOTH",
"410 684 OFFCURVE",
"470 1025 OFFCURVE",
"650 1025 CURVE SMOOTH",
"754 1025 OFFCURVE",
"776 858 OFFCURVE",
"772 599 CURVE",
"762 545 OFFCURVE",
"756 489 OFFCURVE"
);
},
{
closed = 1;
nodes = (
"1116 575 CURVE",
"1127 761 OFFCURVE",
"1178 1025 OFFCURVE",
"1332 1025 CURVE SMOOTH",
"1385 1025 OFFCURVE",
"1411 977 OFFCURVE",
"1414 886 CURVE SMOOTH",
"1421 689 OFFCURVE",
"1233 582 OFFCURVE"
);
}
);
width = 1776;
}
);
unicode = 0153;
},
{
glyphname = p;
lastChange = "2016-10-13 21:43:13 +0000";
layers = (
{
anchors = (
{
name = top;
position = "{719, 1255}";
}
);
layerId = "8869C5F7-E59C-494D-926F-BD4E51EFDE49";
paths = (
{
closed = 1;
nodes = (
"433 -20 CURVE SMOOTH",
"838 -20 OFFCURVE",
"1066 418 OFFCURVE",
"1066 730 CURVE SMOOTH",
"1066 980 OFFCURVE",
"957 1163 OFFCURVE",
"726 1163 CURVE SMOOTH",
"578 1163 OFFCURVE",
"461 1066 OFFCURVE",
"396 975 CURVE",
"415 1143 LINE",
"378 1163 LINE",
"163 1121 LINE",
"150 1057 LINE",
"258 1017 LINE",
"50 -520 LINE",
"195 -520 LINE",
"267 5 LINE",
"319 -9 OFFCURVE",
"380 -20 OFFCURVE"
);
},
{
closed = 1;
nodes = (
"702 1048 CURVE SMOOTH",
"827 1048 OFFCURVE",
"910 934 OFFCURVE",
"910 719 CURVE SMOOTH",
"910 448 OFFCURVE",
"754 78 OFFCURVE",
"457 78 CURVE SMOOTH",
"394 78 OFFCURVE",
"330 91 OFFCURVE",
"283 126 CURVE",
"382 845 LINE",
"438 932 OFFCURVE",
"562 1048 OFFCURVE"
);
}
);
width = 1155;
},
{
anchors = (
{
name = top;
position = "{738, 1255}";
}
);
layerId = "ECCAD73A-D96E-4C88-9DA5-23DA0E7E9E34";
paths = (
{
closed = 1;
nodes = (
"488 -20 CURVE SMOOTH",
"894 -20 OFFCURVE",
"1162 310 OFFCURVE",
"1162 730 CURVE SMOOTH",
"1162 1005 OFFCURVE",
"1044 1163 OFFCURVE",
"813 1163 CURVE SMOOTH",
"688 1163 OFFCURVE",
"597 1113 OFFCURVE",
"535 1055 CURVE",
"545 1139 LINE",
"493 1163 LINE",
"107 1111 LINE",
"91 1022 LINE",
"198 962 LINE",
"-2 -520 LINE",
"316 -520 LINE",
"387 -11 LINE",
"420 -17 OFFCURVE",
"454 -20 OFFCURVE"
);
},
{
closed = 1;
nodes = (
"672 988 CURVE SMOOTH",
"772 988 OFFCURVE",
"816 867 OFFCURVE",
"816 729 CURVE SMOOTH",
"816 425 OFFCURVE",
"737 119 OFFCURVE",
"514 119 CURVE SMOOTH",
"470 119 OFFCURVE",
"436 123 OFFCURVE",
"408 133 CURVE",
"514 891 LINE",
"552 943 OFFCURVE",
"602 988 OFFCURVE"
);
}
);
width = 1222;
}
);
unicode = 0070;
},
{
glyphname = thorn;
lastChange = "2016-10-13 21:43:13 +0000";
layers = (
{
layerId = "8869C5F7-E59C-494D-926F-BD4E51EFDE49";
paths = (
{
closed = 1;
nodes = (
"131 -5 LINE",
"59 -520 LINE",
"202 -520 LINE",
"263 -109 LINE",
"274 8 LINE",
"328 -7 OFFCURVE",
"396 -20 OFFCURVE",
"454 -20 CURVE SMOOTH",
"859 -20 OFFCURVE",
"1087 421 OFFCURVE",
"1087 730 CURVE SMOOTH",
"1087 980 OFFCURVE",
"978 1163 OFFCURVE",
"747 1163 CURVE SMOOTH",
"598 1163 OFFCURVE",
"476 1064 OFFCURVE",
"411 973 CURVE",
"499 1627 LINE",
"458 1650 LINE",
"254 1618 LINE",
"238 1550 LINE",
"334 1516 LINE"
);
},
{
closed = 1;
nodes = (
"723 1048 CURVE SMOOTH",
"856 1048 OFFCURVE",
"931 926 OFFCURVE",
"931 719 CURVE SMOOTH",
"931 461 OFFCURVE",
"785 78 OFFCURVE",
"478 78 CURVE SMOOTH",
"412 78 OFFCURVE",
"345 91 OFFCURVE",
"297 130 CURVE",
"392 833 LINE",
"443 919 OFFCURVE",
"573 1048 OFFCURVE"
);
}
);
width = 1176;
},
{
layerId = "ECCAD73A-D96E-4C88-9DA5-23DA0E7E9E34";
paths = (
{
closed = 1;
nodes = (
"66 -20 LINE",
"-5 -520 LINE",
"309 -520 LINE",
"356 -142 LINE",
"365 -12 LINE",
"395 -17 OFFCURVE",
"426 -20 OFFCURVE",
"455 -20 CURVE SMOOTH",
"877 -20 OFFCURVE",
"1137 310 OFFCURVE",
"1137 730 CURVE SMOOTH",
"1137 1005 OFFCURVE",
"1024 1163 OFFCURVE",
"793 1163 CURVE SMOOTH",
"671 1163 OFFCURVE",
"578 1115 OFFCURVE",
"512 1059 CURVE",
"586 1623 LINE",
"532 1650 LINE",
"171 1611 LINE",
"150 1527 LINE",
"253 1484 LINE"
);
},
{
closed = 1;
nodes = (
"652 988 CURVE SMOOTH",
"752 988 OFFCURVE",
"796 867 OFFCURVE",
"796 729 CURVE SMOOTH",
"796 425 OFFCURVE",
"711 119 OFFCURVE",
"481 119 CURVE SMOOTH",
"446 119 OFFCURVE",
"417 121 OFFCURVE",
"391 128 CURVE",
"491 899 LINE",
"532 948 OFFCURVE",
"586 988 OFFCURVE"
);
}
);
width = 1202;
}
);
unicode = 00FE;
},
{
glyphname = q;
lastChange = "2016-10-13 21:43:13 +0000";
layers = (
{
anchors = (
{
name = cr;
position = "{471, 1618}";
},
{
name = top;
position = "{681, 1255}";
}
);
layerId = "8869C5F7-E59C-494D-926F-BD4E51EFDE49";
paths = (
{
closed = 1;
nodes = (
"416 -20 CURVE SMOOTH",
"560 -20 OFFCURVE",
"679 68 OFFCURVE",
"748 154 CURVE",
"675 -397 LINE",
"671 -483 OFFCURVE",
"706 -518 OFFCURVE",
"771 -518 CURVE SMOOTH",
"881 -518 OFFCURVE",
"974 -413 OFFCURVE",
"991 -387 CURVE",
"965 -342 LINE",
"917 -394 OFFCURVE",
"880 -414 OFFCURVE",
"852 -414 CURVE SMOOTH",
"837 -414 OFFCURVE",
"823 -378 OFFCURVE",
"828 -340 CURVE SMOOTH",
"1025 1139 LINE",
"939 1129 LINE",
"932 1121 LINE",
"876 1143 OFFCURVE",
"793 1163 OFFCURVE",
"724 1163 CURVE SMOOTH",
"315 1163 OFFCURVE",
"84 721 OFFCURVE",
"84 412 CURVE SMOOTH",
"84 162 OFFCURVE",
"191 -20 OFFCURVE"
);
},
{
closed = 1;
nodes = (
"765 288 CURVE",
"706 204 OFFCURVE",
"581 94 OFFCURVE",
"441 94 CURVE SMOOTH",
"320 94 OFFCURVE",
"240 208 OFFCURVE",
"240 423 CURVE SMOOTH",
"240 694 OFFCURVE",
"398 1064 OFFCURVE",
"700 1064 CURVE SMOOTH",
"758 1064 OFFCURVE",
"816 1052 OFFCURVE",
"861 1020 CURVE",
"849 934 OFFCURVE",
"807 609 OFFCURVE"
);
}
);
width = 1151;
},
{
anchors = (
{
name = cr;
position = "{508, 1618}";
},
{
name = top;
position = "{733, 1255}";
}
);
layerId = "ECCAD73A-D96E-4C88-9DA5-23DA0E7E9E34";
paths = (
{
closed = 1;
nodes = (
"405 -20 CURVE SMOOTH",
"528 -20 OFFCURVE",
"618 28 OFFCURVE",
"680 84 CURVE",
"617 -347 LINE",
"611 -428 OFFCURVE",
"662 -518 OFFCURVE",
"819 -518 CURVE SMOOTH",
"999 -518 OFFCURVE",
"1098 -403 OFFCURVE",
"1120 -373 CURVE",
"1092 -300 LINE",
"1048 -333 OFFCURVE",
"1025 -346 OFFCURVE",
"1002 -346 CURVE SMOOTH",
"968 -346 OFFCURVE",
"957 -310 OFFCURVE",
"962 -274 CURVE SMOOTH",
"1154 1163 LINE",
"1008 1120 LINE",
"991 1114 LINE",
"992 1115 LINE",
"933 1137 OFFCURVE",
"825 1163 OFFCURVE",
"738 1163 CURVE SMOOTH",
"275 1163 OFFCURVE",
"61 791 OFFCURVE",
"61 402 CURVE SMOOTH",
"61 172 OFFCURVE",
"155 -20 OFFCURVE"
);
},
{
closed = 1;
nodes = (
"546 154 CURVE SMOOTH",
"455 154 OFFCURVE",
"402 249 OFFCURVE",
"402 413 CURVE SMOOTH",
"402 680 OFFCURVE",
"471 1023 OFFCURVE",
"714 1023 CURVE SMOOTH",
"751 1023 OFFCURVE",
"785 1019 OFFCURVE",
"816 1008 CURVE",
"705 252 LINE",
"667 200 OFFCURVE",
"612 154 OFFCURVE"
);
}
);
width = 1227;
}
);
unicode = 0071;
},
{
glyphname = r;
lastChange = "2016-10-13 21:43:13 +0000";
layers = (
{
anchors = (
{
name = btm;
position = "{215, -170}";
},
{
name = top;
position = "{416, 1255}";
}
);
layerId = "8869C5F7-E59C-494D-926F-BD4E51EFDE49";
paths = (
{
closed = 1;
nodes = (
"138 0 LINE",
"286 0 LINE",
"375 711 LINE",
"451 904 OFFCURVE",
"604 997 OFFCURVE",
"722 997 CURVE SMOOTH",
"768 997 OFFCURVE",
"799 993 OFFCURVE",
"818 983 CURVE",
"851 1149 LINE",
"838 1160 OFFCURVE",
"806 1162 OFFCURVE",
"786 1162 CURVE SMOOTH",
"596 1162 OFFCURVE",
"442 981 OFFCURVE",
"396 875 CURVE",
"408 961 LINE",
"421 1140 LINE",
"385 1159 LINE",
"178 1116 LINE",
"164 1044 LINE",
"266 998 LINE"
);
}
);
width = 836;
},
{
anchors = (
{
name = btm;
position = "{209, -170}";
},
{
name = top;
position = "{515, 1255}";
}
);
layerId = "ECCAD73A-D96E-4C88-9DA5-23DA0E7E9E34";
paths = (
{
closed = 1;
nodes = (
"85 0 LINE",
"408 0 LINE",
"515 779 LINE",
"552 808 OFFCURVE",
"630 821 OFFCURVE",
"711 821 CURVE SMOOTH",
"777 821 OFFCURVE",
"816 796 OFFCURVE",
"824 786 CURVE",
"893 1143 LINE",
"883 1150 OFFCURVE",
"858 1163 OFFCURVE",
"823 1163 CURVE SMOOTH",
"662 1163 OFFCURVE",
"540 1024 OFFCURVE",
"495 866 CURVE",
"509 1129 LINE",
"456 1163 LINE",
"125 1111 LINE",
"109 1022 LINE",
"216 962 LINE"
);
}
);
width = 852;
}
);
unicode = 0072;
},
{
glyphname = s;
lastChange = "2016-10-13 21:43:13 +0000";
layers = (
{
anchors = (
{
name = btm;
position = "{362, -170}";
},
{
name = top;
position = "{544, 1255}";
}
);
layerId = "8869C5F7-E59C-494D-926F-BD4E51EFDE49";
paths = (
{
closed = 1;
nodes = (
"43 43 LINE",
"78 11 OFFCURVE",
"216 -20 OFFCURVE",
"337 -20 CURVE SMOOTH",
"546 -20 OFFCURVE",
"729 89 OFFCURVE",
"729 291 CURVE SMOOTH",
"729 460 OFFCURVE",
"582 562 OFFCURVE",
"488 634 CURVE SMOOTH",
"403 697 OFFCURVE",
"301 778 OFFCURVE",
"310 898 CURVE SMOOTH",
"320 1008 OFFCURVE",
"410 1059 OFFCURVE",
"539 1059 CURVE SMOOTH",
"665 1059 OFFCURVE",
"760 1005 OFFCURVE",
"772 987 CURVE",
"802 1122 LINE",
"769 1138 OFFCURVE",
"653 1163 OFFCURVE",
"546 1163 CURVE SMOOTH",
"343 1163 OFFCURVE",
"165 1044 OFFCURVE",
"165 850 CURVE SMOOTH",
"165 686 OFFCURVE",
"310 570 OFFCURVE",
"384 519 CURVE SMOOTH",
"468 459 OFFCURVE",
"586 382 OFFCURVE",
"586 262 CURVE SMOOTH",
"586 121 OFFCURVE",
"461 89 OFFCURVE",
"346 89 CURVE SMOOTH",
"221 89 OFFCURVE",
"113 133 OFFCURVE",
"70 164 CURVE"
);
}
);
width = 870;
},
{
anchors = (
{
name = btm;
position = "{367, -170}";
},
{
name = top;
position = "{562, 1255}";
}
);
layerId = "ECCAD73A-D96E-4C88-9DA5-23DA0E7E9E34";
paths = (
{
closed = 1;
nodes = (
"1 49 LINE",
"39 19 OFFCURVE",
"193 -20 OFFCURVE",
"322 -20 CURVE SMOOTH",
"573 -20 OFFCURVE",
"801 98 OFFCURVE",
"801 348 CURVE SMOOTH",
"801 517 OFFCURVE",
"712 597 OFFCURVE",
"599 680 CURVE SMOOTH",
"478 769 OFFCURVE",
"419 821 OFFCURVE",
"419 902 CURVE SMOOTH",
"419 982 OFFCURVE",
"494 1019 OFFCURVE",
"579 1019 CURVE SMOOTH",
"686 1019 OFFCURVE",
"757 949 OFFCURVE",
"783 919 CURVE",
"826 1126 LINE",
"792 1141 OFFCURVE",
"675 1163 OFFCURVE",
"566 1163 CURVE SMOOTH",
"282 1163 OFFCURVE",
"97 1021 OFFCURVE",
"97 820 CURVE SMOOTH",
"97 643 OFFCURVE",
"197 546 OFFCURVE",
"290 482 CURVE SMOOTH",
"404 403 OFFCURVE",
"474 343 OFFCURVE",
"474 262 CURVE SMOOTH",
"474 170 OFFCURVE",
"388 134 OFFCURVE",
"316 134 CURVE SMOOTH",
"198 134 OFFCURVE",
"93 208 OFFCURVE",
"49 250 CURVE"
);
}
);
width = 877;
}
);
unicode = 0073;
},
{
glyphname = germandbls;
lastChange = "2016-10-13 21:43:13 +0000";
layers = (
{
layerId = "8869C5F7-E59C-494D-926F-BD4E51EFDE49";
paths = (
{
closed = 1;
nodes = (
"84 0 LINE",
"232 0 LINE",
"364 977 LINE SMOOTH",
"429 1441 OFFCURVE",
"559 1506 OFFCURVE",
"738 1506 CURVE SMOOTH",
"876 1506 OFFCURVE",
"931 1399 OFFCURVE",
"931 1293 CURVE SMOOTH",
"931 1169 OFFCURVE",
"864 1080 OFFCURVE",
"766 993 CURVE SMOOTH",
"715 937 OFFCURVE",
"674 898 OFFCURVE",
"674 811 CURVE SMOOTH",
"674 729 OFFCURVE",
"764 616 OFFCURVE",
"822 543 CURVE SMOOTH",
"864 479 OFFCURVE",
"910 391 OFFCURVE",
"910 300 CURVE SMOOTH",
"910 142 OFFCURVE",
"812 90 OFFCURVE",
"673 89 CURVE SMOOTH",
"581 89 OFFCURVE",
"471 151 OFFCURVE",
"439 191 CURVE",
"419 40 LINE",
"460 15 OFFCURVE",
"557 -17 OFFCURVE",
"649 -17 CURVE SMOOTH",
"866 -17 OFFCURVE",
"1066 135 OFFCURVE",
"1066 324 CURVE SMOOTH",
"1066 454 OFFCURVE",
"1004 547 OFFCURVE",
"950 626 CURVE SMOOTH",
"866 734 OFFCURVE",
"812 798 OFFCURVE",
"812 850 CURVE SMOOTH",
"812 988 OFFCURVE",
"1084 1088 OFFCURVE",
"1084 1314 CURVE SMOOTH",
"1084 1497 OFFCURVE",
"951 1585 OFFCURVE",
"773 1585 CURVE SMOOTH",
"556 1585 OFFCURVE",
"292 1526 OFFCURVE",
"213 927 CURVE SMOOTH"
);
}
);
width = 1186;
},
{
layerId = "ECCAD73A-D96E-4C88-9DA5-23DA0E7E9E34";
paths = (
{
closed = 1;
nodes = (
"39 0 LINE",
"372 0 LINE",
"479 867 LINE SMOOTH",
"526 1303 OFFCURVE",
"620 1464 OFFCURVE",
"759 1464 CURVE SMOOTH",
"851 1464 OFFCURVE",
"896 1385 OFFCURVE",
"896 1287 CURVE SMOOTH",
"896 1173 OFFCURVE",
"839 1082 OFFCURVE",
"758 999 CURVE SMOOTH",
"695 934 OFFCURVE",
"650 888 OFFCURVE",
"650 793 CURVE SMOOTH",
"650 706 OFFCURVE",
"709 593 OFFCURVE",
"759 523 CURVE SMOOTH",
"800 459 OFFCURVE",
"851 364 OFFCURVE",
"851 285 CURVE SMOOTH",
"851 131 OFFCURVE",
"775 117 OFFCURVE",
"688 116 CURVE SMOOTH",
"616 115 OFFCURVE",
"529 178 OFFCURVE",
"501 218 CURVE",
"475 31 LINE",
"523 6 OFFCURVE",
"603 -16 OFFCURVE",
"764 -16 CURVE SMOOTH",
"1020 -16 OFFCURVE",
"1190 114 OFFCURVE",
"1190 341 CURVE SMOOTH",
"1190 491 OFFCURVE",
"1087 584 OFFCURVE",
"1019 666 CURVE SMOOTH",
"952 755 OFFCURVE",
"919 797 OFFCURVE",
"919 841 CURVE SMOOTH",
"919 1006 OFFCURVE",
"1226 969 OFFCURVE",
"1226 1283 CURVE SMOOTH",
"1226 1477 OFFCURVE",
"1030 1585 OFFCURVE",
"819 1585 CURVE SMOOTH",
"566 1585 OFFCURVE",
"238 1527 OFFCURVE",
"152 927 CURVE SMOOTH"
);
}
);
width = 1242;
}
);
unicode = 00DF;
},
{
glyphname = schwa;
lastChange = "2016-10-13 21:43:13 +0000";
layers = (
{
layerId = "8869C5F7-E59C-494D-926F-BD4E51EFDE49";
paths = (
{
closed = 1;
nodes = (
"65 230 CURVE SMOOTH",
"65 89 OFFCURVE",
"156 -20 OFFCURVE",
"346 -20 CURVE SMOOTH",
"674 -20 OFFCURVE",
"920 327 OFFCURVE",
"930 706 CURVE SMOOTH",
"936 932 OFFCURVE",
"825 1163 OFFCURVE",
"536 1163 CURVE SMOOTH",
"342 1163 OFFCURVE",
"178 1036 OFFCURVE",
"121 957 CURVE",
"158 889 LINE",
"273 1004 OFFCURVE",
"409 1051 OFFCURVE",
"519 1051 CURVE SMOOTH",
"729 1051 OFFCURVE",
"785 829 OFFCURVE",
"771 676 CURVE",
"570 671 OFFCURVE",
"65 544 OFFCURVE"
);
},
{
closed = 1;
nodes = (
"221 244 CURVE SMOOTH",
"221 456 OFFCURVE",
"541 579 OFFCURVE",
"767 586 CURVE",
"745 373 OFFCURVE",
"606 74 OFFCURVE",
"381 74 CURVE SMOOTH",
"282 74 OFFCURVE",
"221 131 OFFCURVE"
);
}
);
width = 1027;
},
{
layerId = "ECCAD73A-D96E-4C88-9DA5-23DA0E7E9E34";
paths = (
{
closed = 1;
nodes = (
"985 709 CURVE SMOOTH",
"984 937 OFFCURVE",
"868 1168 OFFCURVE",
"547 1168 CURVE SMOOTH",
"290 1168 OFFCURVE",
"132 1015 OFFCURVE",
"77 927 CURVE",
"141 824 LINE",
"194 893 OFFCURVE",
"280 989 OFFCURVE",
"439 989 CURVE SMOOTH",
"555 989 OFFCURVE",
"626 892 OFFCURVE",
"626 684 CURVE",
"374 678 OFFCURVE",
"-3 556 OFFCURVE",
"7 226 CURVE SMOOTH",
"13 85 OFFCURVE",
"108 -26 OFFCURVE",
"336 -26 CURVE SMOOTH",
"703 -26 OFFCURVE",
"987 282 OFFCURVE"
);
},
{
closed = 1;
nodes = (
"626 564 CURVE",
"615 378 OFFCURVE",
"564 114 OFFCURVE",
"410 114 CURVE SMOOTH",
"357 114 OFFCURVE",
"332 162 OFFCURVE",
"328 253 CURVE SMOOTH",
"322 450 OFFCURVE",
"509 557 OFFCURVE"
);
}
);
width = 1048;
}
);
unicode = 0259;
},
{
glyphname = t;
lastChange = "2016-10-13 21:43:13 +0000";
layers = (
{
anchors = (
{
name = btm;
position = "{288, -170}";
},
{
name = tbarbar;
position = "{400, 468}";
},
{
name = top;
position = "{431, 1360}";
}
);
layerId = "8869C5F7-E59C-494D-926F-BD4E51EFDE49";
paths = (
{
closed = 1;
nodes = (
"163 147 CURVE SMOOTH",
"163 30 OFFCURVE",
"227 -20 OFFCURVE",
"338 -20 CURVE SMOOTH",
"450 -20 OFFCURVE",
"594 65 OFFCURVE",
"636 116 CURVE",
"621 180 LINE",
"583 150 OFFCURVE",
"480 92 OFFCURVE",
"416 92 CURVE SMOOTH",
"337 92 OFFCURVE",
"317 116 OFFCURVE",
"317 188 CURVE SMOOTH",
"317 221 OFFCURVE",
"323 275 OFFCURVE",
"332 344 CURVE SMOOTH",
"425 1042 LINE",
"708 1042 LINE",
"723 1154 LINE",
"438 1154 LINE",
"473 1416 LINE",
"399 1416 LINE",
"372 1332 OFFCURVE",
"325 1199 OFFCURVE",
"291 1150 CURVE",
"163 1112 LINE",
"148 1042 LINE",
"273 1042 LINE",
"173 268 LINE SMOOTH",
"163 184 OFFCURVE",
"163 161 OFFCURVE"
);
}
);
width = 731;
},
{
anchors = (
{
name = btm;
position = "{299, -170}";
},
{
name = tbarbar;
position = "{419, 468}";
},
{
name = top;
position = "{500, 1394}";
}
);
layerId = "ECCAD73A-D96E-4C88-9DA5-23DA0E7E9E34";
paths = (
{
closed = 1;
nodes = (
"102 159 CURVE SMOOTH",
"102 22 OFFCURVE",
"197 -20 OFFCURVE",
"295 -20 CURVE SMOOTH",
"513 -20 OFFCURVE",
"644 81 OFFCURVE",
"702 147 CURVE",
"677 227 LINE",
"626 184 OFFCURVE",
"559 170 OFFCURVE",
"508 170 CURVE SMOOTH",
"458 170 OFFCURVE",
"435 197 OFFCURVE",
"435 251 CURVE SMOOTH",
"435 285 OFFCURVE",
"441 324 OFFCURVE",
"450 390 CURVE SMOOTH",
"533 994 LINE",
"739 994 LINE",
"762 1155 LINE",
"554 1155 LINE",
"587 1416 LINE",
"398 1416 LINE",
"356 1316 OFFCURVE",
"297 1200 OFFCURVE",
"237 1150 CURVE",
"115 1103 LINE",
"91 994 LINE",
"210 994 LINE",
"129 398 LINE SMOOTH",
"102 198 OFFCURVE",
"102 174 OFFCURVE"
);
}
);
width = 724;
}
);
unicode = 0074;
},
{
glyphname = tbar;
lastChange = "2016-10-13 21:43:13 +0000";
layers = (
{
layerId = "8869C5F7-E59C-494D-926F-BD4E51EFDE49";
paths = (
{
closed = 1;
nodes = (
"81 634 LINE",
"220 634 LINE",
"173 268 LINE",
"163 184 OFFCURVE",
"163 161 OFFCURVE",
"163 147 CURVE SMOOTH",
"163 30 OFFCURVE",
"227 -20 OFFCURVE",
"338 -20 CURVE SMOOTH",
"450 -20 OFFCURVE",
"594 65 OFFCURVE",
"636 116 CURVE",
"621 180 LINE",
"583 150 OFFCURVE",
"480 92 OFFCURVE",
"416 92 CURVE SMOOTH",
"337 92 OFFCURVE",
"317 116 OFFCURVE",
"317 188 CURVE SMOOTH",
"317 221 OFFCURVE",
"323 275 OFFCURVE",
"332 344 CURVE SMOOTH",
"370 634 LINE",
"663 634 LINE",
"675 739 LINE",
"384 739 LINE",
"425 1042 LINE",
"708 1042 LINE",
"723 1154 LINE",
"438 1154 LINE",
"473 1416 LINE",
"399 1416 LINE",
"372 1332 OFFCURVE",
"325 1199 OFFCURVE",
"291 1150 CURVE",
"163 1112 LINE",
"148 1042 LINE",
"273 1042 LINE",
"234 739 LINE",
"93 739 LINE"
);
}
);
width = 731;
},
{
layerId = "ECCAD73A-D96E-4C88-9DA5-23DA0E7E9E34";
paths = (
{
closed = 1;
nodes = (
"69 621 LINE",
"159 621 LINE",
"129 398 LINE SMOOTH",
"102 198 OFFCURVE",
"102 174 OFFCURVE",
"102 159 CURVE SMOOTH",
"102 22 OFFCURVE",
"197 -20 OFFCURVE",
"295 -20 CURVE SMOOTH",
"513 -20 OFFCURVE",
"644 81 OFFCURVE",
"702 147 CURVE",
"677 227 LINE",
"626 184 OFFCURVE",
"559 170 OFFCURVE",
"508 170 CURVE SMOOTH",
"458 170 OFFCURVE",
"435 197 OFFCURVE",
"435 251 CURVE SMOOTH",
"435 285 OFFCURVE",
"441 324 OFFCURVE",
"450 390 CURVE SMOOTH",
"481 621 LINE",
"651 621 LINE",
"667 751 LINE",
"499 751 LINE",
"533 994 LINE",
"739 994 LINE",
"762 1155 LINE",
"554 1155 LINE",
"587 1416 LINE",
"398 1416 LINE",
"356 1316 OFFCURVE",
"297 1200 OFFCURVE",
"237 1150 CURVE",
"115 1103 LINE",
"91 994 LINE",
"210 994 LINE",
"177 751 LINE",
"85 751 LINE"
);
}
);
width = 724;
}
);
unicode = 0167;
},
{
glyphname = u;
lastChange = "2016-10-13 21:43:13 +0000";
layers = (
{
anchors = (
{
name = bottom;
position = "{1031, 99}";
},
{
name = top;
position = "{675, 1255}";
}
);
layerId = "8869C5F7-E59C-494D-926F-BD4E51EFDE49";
paths = (
{
closed = 1;
nodes = (
"165 254 CURVE SMOOTH",
"165 44 OFFCURVE",
"260 -20 OFFCURVE",
"409 -20 CURVE SMOOTH",
"572 -20 OFFCURVE",
"705 90 OFFCURVE",
"790 196 CURVE",
"787 165 OFFCURVE",
"785 130 OFFCURVE",
"783 119 CURVE SMOOTH",
"767 34 OFFCURVE",
"802 -18 OFFCURVE",
"874 -18 CURVE SMOOTH",
"984 -18 OFFCURVE",
"1077 86 OFFCURVE",
"1094 113 CURVE",
"1069 158 LINE",
"1019 106 OFFCURVE",
"985 87 OFFCURVE",
"956 87 CURVE SMOOTH",
"937 87 OFFCURVE",
"925 108 OFFCURVE",
"932 159 CURVE SMOOTH",
"1062 1151 LINE",
"915 1151 LINE",
"910 1114 OFFCURVE",
"837 542 OFFCURVE",
"806 314 CURVE",
"731 204 OFFCURVE",
"590 90 OFFCURVE",
"472 90 CURVE SMOOTH",
"377 90 OFFCURVE",
"314 123 OFFCURVE",
"314 279 CURVE SMOOTH",
"314 385 OFFCURVE",
"331 479 OFFCURVE",
"347 599 CURVE",
"415 1138 LINE",
"376 1159 LINE",
"171 1116 LINE",
"158 1045 LINE",
"255 998 LINE",
"201 606 LINE SMOOTH",
"185 488 OFFCURVE",
"165 346 OFFCURVE"
);
}
);
width = 1202;
},
{
anchors = (
{
name = bottom;
position = "{1127, 99}";
},
{
name = top;
position = "{716, 1255}";
}
);
layerId = "ECCAD73A-D96E-4C88-9DA5-23DA0E7E9E34";
paths = (
{
closed = 1;
nodes = (
"117 235 CURVE SMOOTH",
"120 42 OFFCURVE",
"289 -20 OFFCURVE",
"409 -20 CURVE SMOOTH",
"585 -20 OFFCURVE",
"688 68 OFFCURVE",
"756 146 CURVE",
"760 143 LINE",
"744 47 OFFCURVE",
"800 -20 OFFCURVE",
"943 -20 CURVE SMOOTH",
"1102 -20 OFFCURVE",
"1203 91 OFFCURVE",
"1223 124 CURVE",
"1195 197 LINE",
"1142 159 OFFCURVE",
"1126 151 OFFCURVE",
"1103 151 CURVE SMOOTH",
"1073 151 OFFCURVE",
"1056 175 OFFCURVE",
"1063 227 CURVE SMOOTH",
"1191 1155 LINE",
"865 1155 LINE",
"741 247 LINE",
"694 194 OFFCURVE",
"626 148 OFFCURVE",
"547 148 CURVE SMOOTH",
"482 148 OFFCURVE",
"452 186 OFFCURVE",
"452 282 CURVE SMOOTH",
"452 340 OFFCURVE",
"474 472 OFFCURVE",
"489 589 CURVE SMOOTH",
"558 1139 LINE",
"506 1163 LINE",
"103 1131 LINE",
"87 1042 LINE",
"213 962 LINE",
"159 597 LINE SMOOTH",
"141 473 OFFCURVE",
"116 329 OFFCURVE"
);
}
);
width = 1281;
}
);
unicode = 0075;
},
{
glyphname = uogonek;
lastChange = "2016-10-13 21:43:13 +0000";
layers = (
{
layerId = "8869C5F7-E59C-494D-926F-BD4E51EFDE49";
paths = (
{
closed = 1;
nodes = (
"165 254 CURVE SMOOTH",
"165 44 OFFCURVE",
"260 -20 OFFCURVE",
"409 -20 CURVE SMOOTH",
"572 -20 OFFCURVE",
"705 90 OFFCURVE",
"790 196 CURVE",
"787 165 OFFCURVE",
"785 130 OFFCURVE",
"783 119 CURVE SMOOTH",
"770 49 OFFCURVE",
"790 2 OFFCURVE",
"838 -13 CURVE",
"767 -52 OFFCURVE",
"692 -95 OFFCURVE",
"638 -175 CURVE",
"617 -204 OFFCURVE",
"604 -247 OFFCURVE",
"603 -287 CURVE SMOOTH",
"601 -346 OFFCURVE",
"641 -416 OFFCURVE",
"748 -416 CURVE SMOOTH",
"864 -416 OFFCURVE",
"946 -368 OFFCURVE",
"998 -322 CURVE",
"977 -245 LINE",
"928 -287 OFFCURVE",
"873 -313 OFFCURVE",
"818 -313 CURVE SMOOTH",
"779 -313 OFFCURVE",
"748 -286 OFFCURVE",
"751 -226 CURVE",
"752 -148 OFFCURVE",
"852 -74 OFFCURVE",
"948 -3 CURVE",
"1024 27 OFFCURVE",
"1081 92 OFFCURVE",
"1094 113 CURVE",
"1069 158 LINE",
"1019 106 OFFCURVE",
"985 87 OFFCURVE",
"956 87 CURVE SMOOTH",
"937 87 OFFCURVE",
"925 108 OFFCURVE",
"932 159 CURVE SMOOTH",
"1062 1151 LINE",
"915 1151 LINE",
"910 1114 OFFCURVE",
"837 542 OFFCURVE",
"806 314 CURVE",
"731 204 OFFCURVE",
"590 90 OFFCURVE",
"472 90 CURVE SMOOTH",
"377 90 OFFCURVE",
"314 123 OFFCURVE",
"314 279 CURVE SMOOTH",
"314 385 OFFCURVE",
"331 479 OFFCURVE",
"347 599 CURVE",
"415 1138 LINE",
"376 1159 LINE",
"171 1116 LINE",
"158 1045 LINE",
"255 998 LINE",
"201 606 LINE SMOOTH",
"185 488 OFFCURVE",
"165 346 OFFCURVE"
);
}
);
width = 1202;
},
{
layerId = "ECCAD73A-D96E-4C88-9DA5-23DA0E7E9E34";
paths = (
{
closed = 1;
nodes = (
"117 235 CURVE SMOOTH",
"120 42 OFFCURVE",
"289 -20 OFFCURVE",
"409 -20 CURVE SMOOTH",
"585 -20 OFFCURVE",
"688 68 OFFCURVE",
"756 146 CURVE",
"760 143 LINE",
"748 74 OFFCURVE",
"774 20 OFFCURVE",
"842 -4 CURVE",
"776 -38 OFFCURVE",
"706 -85 OFFCURVE",
"640 -182 CURVE SMOOTH",
"614 -220 OFFCURVE",
"595 -273 OFFCURVE",
"595 -306 CURVE SMOOTH",
"595 -411 OFFCURVE",
"659 -480 OFFCURVE",
"788 -480 CURVE SMOOTH",
"933 -480 OFFCURVE",
"1051 -409 OFFCURVE",
"1132 -326 CURVE",
"1096 -212 LINE",
"1040 -256 OFFCURVE",
"998 -287 OFFCURVE",
"943 -287 CURVE SMOOTH",
"904 -287 OFFCURVE",
"876 -272 OFFCURVE",
"876 -215 CURVE SMOOTH",
"876 -147 OFFCURVE",
"973 -64 OFFCURVE",
"1093 15 CURVE",
"1165 51 OFFCURVE",
"1210 103 OFFCURVE",
"1223 124 CURVE",
"1195 197 LINE",
"1142 159 OFFCURVE",
"1126 151 OFFCURVE",
"1103 151 CURVE SMOOTH",
"1073 151 OFFCURVE",
"1056 175 OFFCURVE",
"1063 227 CURVE SMOOTH",
"1191 1155 LINE",
"865 1155 LINE",
"741 247 LINE",
"694 194 OFFCURVE",
"626 148 OFFCURVE",
"547 148 CURVE SMOOTH",
"482 148 OFFCURVE",
"452 186 OFFCURVE",
"452 282 CURVE SMOOTH",
"452 340 OFFCURVE",
"474 472 OFFCURVE",
"489 589 CURVE SMOOTH",
"558 1139 LINE",
"506 1163 LINE",
"103 1131 LINE",
"87 1042 LINE",
"213 962 LINE",
"159 597 LINE SMOOTH",
"141 473 OFFCURVE",
"116 329 OFFCURVE"
);
}
);
width = 1281;
}
);
unicode = 0173;
},
{
glyphname = v;
lastChange = "2016-10-13 21:43:13 +0000";
layers = (
{
anchors = (
{
name = top;
position = "{610, 1255}";
}
);
layerId = "8869C5F7-E59C-494D-926F-BD4E51EFDE49";
paths = (
{
closed = 1;
nodes = (
"339 -20 LINE",
"456 -9 LINE",
"698 313 LINE SMOOTH",
"833 502 OFFCURVE",
"993 779 OFFCURVE",
"993 973 CURVE SMOOTH",
"993 1085 OFFCURVE",
"955 1161 OFFCURVE",
"887 1161 CURVE SMOOTH",
"845 1161 OFFCURVE",
"815 1134 OFFCURVE",
"815 1075 CURVE SMOOTH",
"815 1037 OFFCURVE",
"853 992 OFFCURVE",
"845 922 CURVE SMOOTH",
"812 690 OFFCURVE",
"711 506 OFFCURVE",
"585 327 CURVE SMOOTH",
"433 132 LINE",
"409 352 LINE",
"331 1024 LINE SMOOTH",
"322 1104 OFFCURVE",
"303 1161 OFFCURVE",
"211 1161 CURVE SMOOTH",
"117 1161 OFFCURVE",
"45 1077 OFFCURVE",
"32 1056 CURVE",
"56 1006 LINE",
"74 1022 OFFCURVE",
"101 1047 OFFCURVE",
"132 1047 CURVE SMOOTH",
"160 1047 OFFCURVE",
"174 1018 OFFCURVE",
"180 976 CURVE SMOOTH",
"280 352 LINE"
);
}
);
width = 1058;
},
{
anchors = (
{
name = top;
position = "{655, 1255}";
}
);
layerId = "ECCAD73A-D96E-4C88-9DA5-23DA0E7E9E34";
paths = (
{
closed = 1;
nodes = (
"324 -21 LINE",
"516 -9 LINE",
"649 136 LINE SMOOTH",
"923 429 OFFCURVE",
"1099 742 OFFCURVE",
"1096 947 CURVE SMOOTH",
"1094 1055 OFFCURVE",
"1045 1163 OFFCURVE",
"913 1163 CURVE SMOOTH",
"809 1163 OFFCURVE",
"755 1103 OFFCURVE",
"755 1025 CURVE SMOOTH",
"755 953 OFFCURVE",
"788 870 OFFCURVE",
"788 802 CURVE SMOOTH",
"788 636 OFFCURVE",
"741 496 OFFCURVE",
"628 318 CURVE SMOOTH",
"578 239 LINE",
"546 455 LINE",
"453 1026 LINE SMOOTH",
"439 1114 OFFCURVE",
"383 1163 OFFCURVE",
"263 1163 CURVE SMOOTH",
"125 1163 OFFCURVE",
"19 1068 OFFCURVE",
"1 1046 CURVE",
"30 968 LINE",
"46 977 OFFCURVE",
"57 984 OFFCURVE",
"79 983 CURVE SMOOTH",
"101 982 OFFCURVE",
"114 968 OFFCURVE",
"122 927 CURVE SMOOTH",
"245 355 LINE"
);
}
);
width = 1083;
}
);
unicode = 0076;
},
{
glyphname = w;
lastChange = "2016-10-13 21:43:13 +0000";
layers = (
{
anchors = (
{
name = top;
position = "{1007, 1255}";
}
);
layerId = "8869C5F7-E59C-494D-926F-BD4E51EFDE49";
paths = (
{
closed = 1;
nodes = (
"1350 313 LINE",
"1480 509 OFFCURVE",
"1628 781 OFFCURVE",
"1628 965 CURVE SMOOTH",
"1628 1094 OFFCURVE",
"1595 1161 OFFCURVE",
"1525 1161 CURVE SMOOTH",
"1483 1161 OFFCURVE",
"1453 1133 OFFCURVE",
"1453 1075 CURVE SMOOTH",
"1453 1039 OFFCURVE",
"1485 993 OFFCURVE",
"1482 923 CURVE SMOOTH",
"1472 701 OFFCURVE",
"1311 407 OFFCURVE",
"1246 316 CURVE",
"1111 121 LINE",
"1093 311 LINE",
"1019 1153 LINE",
"885 1153 LINE",
"512 290 LINE",
"434 121 LINE",
"415 311 LINE",
"337 1024 LINE",
"325 1112 OFFCURVE",
"305 1161 OFFCURVE",
"214 1161 CURVE SMOOTH",
"118 1161 OFFCURVE",
"46 1077 OFFCURVE",
"32 1056 CURVE",
"56 1006 LINE",
"77 1023 OFFCURVE",
"102 1048 OFFCURVE",
"134 1047 CURVE SMOOTH",
"159 1046 OFFCURVE",
"173 1026 OFFCURVE",
"183 976 CURVE",
"286 323 LINE",
"342 -20 LINE",
"473 -8 LINE",
"617 289 LINE",
"862 803 LINE",
"908 938 LINE",
"915 804 LINE",
"964 322 LINE",
"999 -19 LINE",
"1144 -8 LINE"
);
}
);
width = 1696;
},
{
anchors = (
{
name = top;
position = "{1013, 1255}";
}
);
layerId = "ECCAD73A-D96E-4C88-9DA5-23DA0E7E9E34";
paths = (
{
closed = 1;
nodes = (
"1336 136 LINE",
"1482 304 OFFCURVE",
"1782 742 OFFCURVE",
"1779 947 CURVE SMOOTH",
"1777 1055 OFFCURVE",
"1728 1163 OFFCURVE",
"1596 1163 CURVE SMOOTH",
"1492 1163 OFFCURVE",
"1438 1103 OFFCURVE",
"1438 1025 CURVE SMOOTH",
"1438 953 OFFCURVE",
"1471 870 OFFCURVE",
"1471 802 CURVE SMOOTH",
"1471 636 OFFCURVE",
"1416 496 OFFCURVE",
"1303 318 CURVE",
"1256 239 LINE",
"1240 405 LINE",
"1151 1155 LINE",
"834 1155 LINE",
"645 510 LINE",
"558 228 LINE",
"532 439 LINE",
"452 1026 LINE",
"438 1115 OFFCURVE",
"382 1163 OFFCURVE",
"263 1163 CURVE SMOOTH",
"130 1163 OFFCURVE",
"19 1071 OFFCURVE",
"1 1046 CURVE",
"30 968 LINE",
"47 977 OFFCURVE",
"55 983 OFFCURVE",
"79 983 CURVE SMOOTH",
"100 983 OFFCURVE",
"113 968 OFFCURVE",
"122 927 CURVE SMOOTH",
"251 355 LINE",
"334 -20 LINE",
"602 -4 LINE",
"767 411 LINE",
"841 623 LINE",
"883 777 LINE",
"897 623 LINE",
"930 355 LINE",
"991 -18 LINE",
"1213 -8 LINE"
);
}
);
width = 1766;
}
);
unicode = 0077;
},
{
glyphname = x;
lastChange = "2016-10-13 21:43:13 +0000";
layers = (
{
anchors = (
{
name = top;
position = "{532, 1255}";
}
);
layerId = "8869C5F7-E59C-494D-926F-BD4E51EFDE49";
paths = (
{
closed = 1;
nodes = (
"613 85 LINE SMOOTH",
"635 22 OFFCURVE",
"659 -20 OFFCURVE",
"746 -20 CURVE SMOOTH",
"852 -20 OFFCURVE",
"951 88 OFFCURVE",
"962 114 CURVE",
"934 159 LINE",
"890 113 OFFCURVE",
"848 85 OFFCURVE",
"815 85 CURVE SMOOTH",
"783 85 OFFCURVE",
"767 109 OFFCURVE",
"751 148 CURVE",
"564 566 LINE",
"1014 1151 LINE",
"851 1151 LINE",
"519 689 LINE",
"409 1055 LINE SMOOTH",
"389 1121 OFFCURVE",
"359 1159 OFFCURVE",
"269 1159 CURVE SMOOTH",
"165 1159 OFFCURVE",
"83 1066 OFFCURVE",
"69 1043 CURVE",
"100 997 LINE",
"115 1019 OFFCURVE",
"160 1053 OFFCURVE",
"200 1053 CURVE SMOOTH",
"241 1053 OFFCURVE",
"256 1028 OFFCURVE",
"272 991 CURVE SMOOTH",
"436 599 LINE",
"-20 0 LINE",
"139 0 LINE",
"481 476 LINE"
);
}
);
width = 1016;
},
{
anchors = (
{
name = top;
position = "{545, 1255}";
}
);
layerId = "ECCAD73A-D96E-4C88-9DA5-23DA0E7E9E34";
paths = (
{
closed = 1;
nodes = (
"548 85 LINE",
"571 22 OFFCURVE",
"623 -20 OFFCURVE",
"726 -20 CURVE SMOOTH",
"933 -20 OFFCURVE",
"1043 105 OFFCURVE",
"1061 133 CURVE",
"1016 217 LINE",
"964 180 OFFCURVE",
"940 179 OFFCURVE",
"919 179 CURVE SMOOTH",
"884 179 OFFCURVE",
"836 261 OFFCURVE",
"817 299 CURVE SMOOTH",
"670 594 LINE",
"1115 1155 LINE",
"810 1155 LINE",
"587 792 LINE",
"503 1058 LINE SMOOTH",
"482 1125 OFFCURVE",
"414 1163 OFFCURVE",
"308 1163 CURVE SMOOTH",
"134 1163 OFFCURVE",
"21 1073 OFFCURVE",
"2 1049 CURVE",
"41 965 LINE",
"67 981 OFFCURVE",
"83 984 OFFCURVE",
"121 984 CURVE SMOOTH",
"153 984 OFFCURVE",
"180 939 OFFCURVE",
"199 901 CURVE SMOOTH",
"366 570 LINE",
"-99 0 LINE",
"226 0 LINE",
"453 374 LINE"
);
}
);
width = 1030;
}
);
unicode = 0078;
},
{
glyphname = y;
lastChange = "2016-10-13 21:43:13 +0000";
layers = (
{
anchors = (
{
name = top;
position = "{627, 1255}";
}
);
layerId = "8869C5F7-E59C-494D-926F-BD4E51EFDE49";
paths = (
{
closed = 1;
nodes = (
"376 -79 LINE",
"446 -79 LINE",
"333 -307 OFFCURVE",
"182 -388 OFFCURVE",
"81 -388 CURVE SMOOTH",
"-15 -388 OFFCURVE",
"-65 -358 OFFCURVE",
"-86 -349 CURVE",
"-122 -476 LINE",
"-82 -489 OFFCURVE",
"-6 -505 OFFCURVE",
"51 -505 CURVE SMOOTH",
"235 -505 OFFCURVE",
"349 -399 OFFCURVE",
"398 -329 CURVE",
"480 -231 OFFCURVE",
"603 -37 OFFCURVE",
"762 290 CURVE",
"862 477 OFFCURVE",
"1025 752 OFFCURVE",
"1025 978 CURVE SMOOTH",
"1025 1094 OFFCURVE",
"986 1158 OFFCURVE",
"918 1158 CURVE SMOOTH",
"876 1158 OFFCURVE",
"844 1135 OFFCURVE",
"844 1076 CURVE SMOOTH",
"844 1034 OFFCURVE",
"878 1001 OFFCURVE",
"878 949 CURVE SMOOTH",
"878 721 OFFCURVE",
"757 528 OFFCURVE",
"649 303 CURVE",
"631 277 OFFCURVE",
"524 59 OFFCURVE",
"477 -27 CURVE",
"449 258 LINE",
"345 1022 LINE",
"333 1105 OFFCURVE",
"313 1159 OFFCURVE",
"224 1159 CURVE SMOOTH",
"128 1159 OFFCURVE",
"46 1062 OFFCURVE",
"31 1038 CURVE",
"55 988 LINE",
"95 1027 OFFCURVE",
"119 1045 OFFCURVE",
"146 1045 CURVE SMOOTH",
"168 1045 OFFCURVE",
"184 1033 OFFCURVE",
"195 974 CURVE"
);
}
);
width = 1071;
},
{
anchors = (
{
name = top;
position = "{621, 1255}";
}
);
layerId = "ECCAD73A-D96E-4C88-9DA5-23DA0E7E9E34";
paths = (
{
closed = 1;
nodes = (
"341 -71 LINE",
"542 -71 LINE",
"428 -257 OFFCURVE",
"334 -329 OFFCURVE",
"207 -329 CURVE SMOOTH",
"141 -329 OFFCURVE",
"52 -302 OFFCURVE",
"21 -271 CURVE",
"-57 -473 LINE",
"-32 -493 OFFCURVE",
"70 -518 OFFCURVE",
"151 -518 CURVE SMOOTH",
"296 -518 OFFCURVE",
"448 -462 OFFCURVE",
"591 -230 CURVE SMOOTH",
"676 -92 OFFCURVE",
"878 234 OFFCURVE",
"954 403 CURVE",
"1048 598 OFFCURVE",
"1112 742 OFFCURVE",
"1112 957 CURVE SMOOTH",
"1112 1055 OFFCURVE",
"1051 1163 OFFCURVE",
"929 1163 CURVE SMOOTH",
"824 1163 OFFCURVE",
"771 1102 OFFCURVE",
"771 1025 CURVE SMOOTH",
"771 899 OFFCURVE",
"826 879 OFFCURVE",
"826 737 CURVE SMOOTH",
"826 571 OFFCURVE",
"759 372 OFFCURVE",
"667 175 CURVE SMOOTH",
"606 43 LINE",
"578 240 LINE",
"537 502 OFFCURVE",
"494 762 OFFCURVE",
"452 1026 CURVE SMOOTH",
"438 1114 OFFCURVE",
"382 1163 OFFCURVE",
"262 1163 CURVE SMOOTH",
"128 1163 OFFCURVE",
"20 1072 OFFCURVE",
"1 1046 CURVE",
"30 968 LINE",
"47 979 OFFCURVE",
"63 983 OFFCURVE",
"80 983 CURVE SMOOTH",
"101 983 OFFCURVE",
"113 968 OFFCURVE",
"122 927 CURVE SMOOTH"
);
}
);
width = 1103;
}
);
unicode = 0079;
},
{
glyphname = z;
lastChange = "2016-10-13 21:43:13 +0000";
layers = (
{
anchors = (
{
name = top;
position = "{614, 1255}";
}
);
layerId = "8869C5F7-E59C-494D-926F-BD4E51EFDE49";
paths = (
{
closed = 1;
nodes = (
"149 813 CURVE",
"215 813 LINE",
"221 912 OFFCURVE",
"266 1012 OFFCURVE",
"334 1016 CURVE",
"349 1024 OFFCURVE",
"752 1011 OFFCURVE",
"832 1010 CURVE",
"684 843 LINE",
"14 28 LINE",
"66 -22 LINE",
"75 -14 LINE",
"102 6 OFFCURVE",
"140 13 OFFCURVE",
"164 13 CURVE SMOOTH",
"282 13 OFFCURVE",
"582 -22 OFFCURVE",
"729 -22 CURVE SMOOTH",
"778 -22 OFFCURVE",
"812 -13 OFFCURVE",
"829 -2 CURVE SMOOTH",
"886 36 OFFCURVE",
"912 195 OFFCURVE",
"920 315 CURVE",
"855 315 LINE",
"835 189 OFFCURVE",
"786 118 OFFCURVE",
"680 118 CURVE SMOOTH",
"646 118 OFFCURVE",
"335 124 OFFCURVE",
"223 126 CURVE",
"545 480 LINE",
"1025 1112 LINE",
"981 1154 LINE",
"982 1158 LINE",
"949 1133 OFFCURVE",
"917 1129 OFFCURVE",
"887 1129 CURVE SMOOTH",
"765 1129 OFFCURVE",
"459 1160 OFFCURVE",
"315 1160 CURVE SMOOTH",
"264 1160 OFFCURVE",
"242 1151 OFFCURVE",
"225 1139 CURVE SMOOTH",
"168 1099 OFFCURVE",
"147 899 OFFCURVE"
);
}
);
width = 1034;
},
{
anchors = (
{
name = top;
position = "{652, 1255}";
}
);
layerId = "ECCAD73A-D96E-4C88-9DA5-23DA0E7E9E34";
paths = (
{
closed = 1;
nodes = (
"135 733 CURVE",
"223 733 LINE",
"230 817 OFFCURVE",
"291 884 OFFCURVE",
"398 884 CURVE SMOOTH",
"701 883 LINE",
"608 831 LINE",
"-38 39 LINE",
"24 -23 LINE",
"49 3 OFFCURVE",
"102 10 OFFCURVE",
"132 10 CURVE SMOOTH",
"256 10 OFFCURVE",
"605 -23 OFFCURVE",
"761 -23 CURVE SMOOTH",
"813 -23 OFFCURVE",
"849 -15 OFFCURVE",
"866 -3 CURVE SMOOTH",
"953 55 OFFCURVE",
"946 326 OFFCURVE",
"933 419 CURVE",
"848 419 LINE",
"839 329 OFFCURVE",
"778 257 OFFCURVE",
"666 257 CURVE SMOOTH",
"338 257 LINE",
"410 300 LINE",
"1059 1102 LINE",
"1006 1163 LINE",
"978 1139 OFFCURVE",
"943 1128 OFFCURVE",
"890 1128 CURVE SMOOTH",
"764 1128 OFFCURVE",
"461 1163 OFFCURVE",
"304 1163 CURVE SMOOTH",
"253 1163 OFFCURVE",
"218 1148 OFFCURVE",
"202 1141 CURVE SMOOTH",
"113 1103 OFFCURVE",
"119 826 OFFCURVE"
);
}
);
width = 1011;
}
);
unicode = 007A;
},
{
glyphname = f_f;
lastChange = "2016-10-13 21:43:13 +0000";
layers = (
{
layerId = "8869C5F7-E59C-494D-926F-BD4E51EFDE49";
paths = (
{
closed = 1;
nodes = (
"146 -127 LINE",
"125 -285 OFFCURVE",
"88 -398 OFFCURVE",
"-4 -398 CURVE SMOOTH",
"-59 -399 OFFCURVE",
"-153 -371 OFFCURVE",
"-166 -365 CURVE",
"-206 -499 LINE",
"-178 -507 OFFCURVE",
"-109 -514 OFFCURVE",
"-44 -513 CURVE SMOOTH",
"148 -511 OFFCURVE",
"270 -338 OFFCURVE",
"303 -74 CURVE SMOOTH",
"446 1040 LINE",
"707 1040 LINE",
"720 1155 LINE",
"460 1155 LINE",
"469 1233 LINE SMOOTH",
"491 1404 OFFCURVE",
"569 1522 OFFCURVE",
"687 1523 CURVE SMOOTH",
"760 1524 OFFCURVE",
"806 1497 OFFCURVE",
"832 1480 CURVE",
"877 1614 LINE",
"826 1636 OFFCURVE",
"773 1640 OFFCURVE",
"720 1640 CURVE SMOOTH",
"536 1640 OFFCURVE",
"358 1450 OFFCURVE",
"322 1218 CURVE SMOOTH",
"311 1150 LINE",
"165 1101 LINE",
"152 1040 LINE",
"292 1040 LINE"
);
},
{
closed = 1;
nodes = (
"850 -127 LINE",
"829 -285 OFFCURVE",
"792 -398 OFFCURVE",
"700 -398 CURVE SMOOTH",
"645 -399 OFFCURVE",
"551 -371 OFFCURVE",
"538 -365 CURVE",
"498 -499 LINE",
"526 -507 OFFCURVE",
"595 -514 OFFCURVE",
"660 -513 CURVE SMOOTH",
"852 -511 OFFCURVE",
"974 -338 OFFCURVE",
"1007 -74 CURVE SMOOTH",
"1150 1040 LINE",
"1416 1040 LINE",
"1429 1155 LINE",
"1164 1155 LINE",
"1178 1263 LINE SMOOTH",
"1199 1435 OFFCURVE",
"1277 1552 OFFCURVE",
"1396 1553 CURVE SMOOTH",
"1469 1554 OFFCURVE",
"1516 1527 OFFCURVE",
"1542 1510 CURVE",
"1587 1644 LINE",
"1536 1666 OFFCURVE",
"1482 1670 OFFCURVE",
"1429 1670 CURVE SMOOTH",
"1245 1670 OFFCURVE",
"1067 1480 OFFCURVE",
"1030 1249 CURVE SMOOTH",
"1015 1150 LINE",
"869 1101 LINE",
"856 1040 LINE",
"996 1040 LINE"
);
}
);
width = 1407;
},
{
layerId = "ECCAD73A-D96E-4C88-9DA5-23DA0E7E9E34";
paths = (
{
closed = 1;
nodes = (
"87 -162 LINE",
"69 -298 OFFCURVE",
"25 -354 OFFCURVE",
"-39 -354 CURVE SMOOTH",
"-87 -355 OFFCURVE",
"-182 -311 OFFCURVE",
"-195 -305 CURVE",
"-253 -489 LINE",
"-220 -497 OFFCURVE",
"-136 -513 OFFCURVE",
"-63 -513 CURVE SMOOTH",
"252 -513 OFFCURVE",
"402 -188 OFFCURVE",
"435 83 CURVE SMOOTH",
"545 984 LINE",
"723 984 LINE",
"754 1155 LINE",
"569 1155 LINE",
"585 1281 LINE SMOOTH",
"610 1438 OFFCURVE",
"614 1490 OFFCURVE",
"719 1490 CURVE SMOOTH",
"786 1490 OFFCURVE",
"828 1460 OFFCURVE",
"853 1442 CURVE",
"915 1620 LINE",
"861 1642 OFFCURVE",
"793 1646 OFFCURVE",
"737 1646 CURVE SMOOTH",
"470 1646 OFFCURVE",
"307 1453 OFFCURVE",
"266 1205 CURVE SMOOTH",
"257 1150 LINE",
"121 1087 LINE",
"100 984 LINE",
"225 984 LINE"
);
},
{
closed = 1;
nodes = (
"797 -156 LINE",
"779 -292 OFFCURVE",
"735 -348 OFFCURVE",
"671 -348 CURVE SMOOTH",
"623 -349 OFFCURVE",
"528 -305 OFFCURVE",
"515 -299 CURVE",
"456 -489 LINE",
"489 -497 OFFCURVE",
"573 -513 OFFCURVE",
"646 -513 CURVE SMOOTH",
"961 -513 OFFCURVE",
"1117 -168 OFFCURVE",
"1156 158 CURVE SMOOTH",
"1254 984 LINE",
"1452 984 LINE",
"1483 1155 LINE",
"1278 1155 LINE",
"1301 1305 LINE SMOOTH",
"1320 1430 OFFCURVE",
"1327 1514 OFFCURVE",
"1432 1514 CURVE SMOOTH",
"1498 1514 OFFCURVE",
"1541 1484 OFFCURVE",
"1566 1466 CURVE",
"1628 1644 LINE",
"1574 1666 OFFCURVE",
"1506 1670 OFFCURVE",
"1450 1670 CURVE SMOOTH",
"1183 1670 OFFCURVE",
"1020 1477 OFFCURVE",
"979 1229 CURVE SMOOTH",
"966 1150 LINE",
"830 1087 LINE",
"809 984 LINE",
"934 984 LINE"
);
}
);
width = 1418;
}
);
},
{
glyphname = f_f_i;
lastChange = "2016-10-13 21:43:13 +0000";
layers = (
{
layerId = "8869C5F7-E59C-494D-926F-BD4E51EFDE49";
paths = (
{
closed = 1;
nodes = (
"850 -127 LINE",
"829 -285 OFFCURVE",
"792 -398 OFFCURVE",
"700 -398 CURVE SMOOTH",
"645 -399 OFFCURVE",
"551 -371 OFFCURVE",
"538 -365 CURVE",
"498 -499 LINE",
"526 -507 OFFCURVE",
"595 -514 OFFCURVE",
"660 -513 CURVE SMOOTH",
"852 -511 OFFCURVE",
"974 -338 OFFCURVE",
"1007 -74 CURVE SMOOTH",
"1150 1040 LINE",
"1411 1040 LINE",
"1423 1155 LINE",
"1164 1155 LINE",
"1178 1263 LINE SMOOTH",
"1199 1435 OFFCURVE",
"1273 1552 OFFCURVE",
"1386 1553 CURVE SMOOTH",
"1453 1554 OFFCURVE",
"1496 1527 OFFCURVE",
"1519 1510 CURVE",
"1564 1644 LINE",
"1517 1666 OFFCURVE",
"1468 1670 OFFCURVE",
"1419 1670 CURVE SMOOTH",
"1239 1670 OFFCURVE",
"1066 1480 OFFCURVE",
"1030 1249 CURVE SMOOTH",
"1015 1150 LINE",
"869 1101 LINE",
"856 1040 LINE",
"996 1040 LINE"
);
},
{
closed = 1;
nodes = (
"146 -127 LINE",
"125 -285 OFFCURVE",
"88 -398 OFFCURVE",
"-4 -398 CURVE SMOOTH",
"-59 -399 OFFCURVE",
"-153 -371 OFFCURVE",
"-166 -365 CURVE",
"-206 -499 LINE",
"-178 -507 OFFCURVE",
"-109 -514 OFFCURVE",
"-44 -513 CURVE SMOOTH",
"148 -511 OFFCURVE",
"270 -338 OFFCURVE",
"303 -74 CURVE SMOOTH",
"446 1040 LINE",
"707 1040 LINE",
"720 1155 LINE",
"460 1155 LINE",
"469 1233 LINE SMOOTH",
"491 1404 OFFCURVE",
"569 1522 OFFCURVE",
"687 1523 CURVE SMOOTH",
"760 1524 OFFCURVE",
"806 1497 OFFCURVE",
"832 1480 CURVE",
"877 1614 LINE",
"826 1636 OFFCURVE",
"773 1640 OFFCURVE",
"720 1640 CURVE SMOOTH",
"536 1640 OFFCURVE",
"358 1450 OFFCURVE",
"322 1218 CURVE SMOOTH",
"311 1150 LINE",
"165 1101 LINE",
"152 1040 LINE",
"292 1040 LINE"
);
},
{
closed = 1;
nodes = (
"1587 99 CURVE SMOOTH",
"1580 11 OFFCURVE",
"1629 -20 OFFCURVE",
"1694 -20 CURVE SMOOTH",
"1804 -20 OFFCURVE",
"1889 84 OFFCURVE",
"1907 112 CURVE",
"1881 156 LINE",
"1833 104 OFFCURVE",
"1803 85 OFFCURVE",
"1773 85 CURVE SMOOTH",
"1754 85 OFFCURVE",
"1737 108 OFFCURVE",
"1744 158 CURVE SMOOTH",
"1885 1138 LINE",
"1845 1159 LINE",
"1595 1117 LINE",
"1582 1052 LINE",
"1716 1012 LINE",
"1676 712 OFFCURVE",
"1596 225 OFFCURVE"
);
},
{
closed = 1;
nodes = (
"1839 1401 CURVE SMOOTH",
"1900 1401 OFFCURVE",
"1953 1459 OFFCURVE",
"1955 1529 CURVE SMOOTH",
"1956 1583 OFFCURVE",
"1921 1622 OFFCURVE",
"1863 1622 CURVE SMOOTH",
"1812 1622 OFFCURVE",
"1754 1568 OFFCURVE",
"1752 1499 CURVE SMOOTH",
"1751 1442 OFFCURVE",
"1790 1401 OFFCURVE"
);
}
);
width = 2040;
},
{
layerId = "ECCAD73A-D96E-4C88-9DA5-23DA0E7E9E34";
paths = (
{
closed = 1;
nodes = (
"797 -162 LINE",
"779 -298 OFFCURVE",
"735 -354 OFFCURVE",
"671 -354 CURVE SMOOTH",
"623 -355 OFFCURVE",
"528 -311 OFFCURVE",
"515 -305 CURVE",
"457 -489 LINE",
"490 -497 OFFCURVE",
"574 -513 OFFCURVE",
"647 -513 CURVE SMOOTH",
"962 -513 OFFCURVE",
"1112 -188 OFFCURVE",
"1145 83 CURVE SMOOTH",
"1255 984 LINE",
"1423 984 LINE",
"1454 1155 LINE",
"1279 1155 LINE",
"1299 1305 LINE SMOOTH",
"1324 1462 OFFCURVE",
"1328 1514 OFFCURVE",
"1433 1514 CURVE SMOOTH",
"1501 1514 OFFCURVE",
"1542 1484 OFFCURVE",
"1567 1466 CURVE",
"1629 1644 LINE",
"1575 1666 OFFCURVE",
"1507 1670 OFFCURVE",
"1451 1670 CURVE SMOOTH",
"1184 1670 OFFCURVE",
"1021 1477 OFFCURVE",
"980 1229 CURVE SMOOTH",
"967 1150 LINE",
"831 1087 LINE",
"810 984 LINE",
"935 984 LINE"
);
},
{
closed = 1;
nodes = (
"87 -162 LINE",
"69 -298 OFFCURVE",
"25 -354 OFFCURVE",
"-39 -354 CURVE SMOOTH",
"-87 -355 OFFCURVE",
"-182 -311 OFFCURVE",
"-195 -305 CURVE",
"-253 -489 LINE",
"-220 -497 OFFCURVE",
"-136 -513 OFFCURVE",
"-63 -513 CURVE SMOOTH",
"252 -513 OFFCURVE",
"402 -188 OFFCURVE",
"435 83 CURVE SMOOTH",
"545 984 LINE",
"723 984 LINE",
"754 1155 LINE",
"569 1155 LINE",
"585 1281 LINE SMOOTH",
"610 1438 OFFCURVE",
"614 1490 OFFCURVE",
"719 1490 CURVE SMOOTH",
"786 1490 OFFCURVE",
"828 1460 OFFCURVE",
"853 1442 CURVE",
"915 1620 LINE",
"861 1642 OFFCURVE",
"793 1646 OFFCURVE",
"737 1646 CURVE SMOOTH",
"470 1646 OFFCURVE",
"307 1453 OFFCURVE",
"266 1205 CURVE SMOOTH",
"257 1150 LINE",
"121 1087 LINE",
"100 984 LINE",
"225 984 LINE"
);
},
{
closed = 1;
nodes = (
"1526 129 CURVE SMOOTH",
"1513 42 OFFCURVE",
"1583 -20 OFFCURVE",
"1725 -20 CURVE SMOOTH",
"1900 -20 OFFCURVE",
"1997 94 OFFCURVE",
"2021 124 CURVE",
"1993 197 LINE",
"1947 163 OFFCURVE",
"1924 151 OFFCURVE",
"1901 151 CURVE SMOOTH",
"1871 151 OFFCURVE",
"1859 178 OFFCURVE",
"1866 227 CURVE SMOOTH",
"1994 1139 LINE",
"1939 1163 LINE",
"1539 1111 LINE",
"1523 1022 LINE",
"1638 958 LINE",
"1587 574 OFFCURVE",
"1550 288 OFFCURVE"
);
},
{
closed = 1;
nodes = (
"1856 1338 CURVE SMOOTH",
"1998 1338 OFFCURVE",
"2059 1429 OFFCURVE",
"2062 1540 CURVE SMOOTH",
"2064 1620 OFFCURVE",
"1998 1701 OFFCURVE",
"1892 1701 CURVE SMOOTH",
"1769 1701 OFFCURVE",
"1697 1614 OFFCURVE",
"1694 1505 CURVE SMOOTH",
"1692 1422 OFFCURVE",
"1767 1338 OFFCURVE"
);
}
);
width = 2087;
}
);
},
{
glyphname = f_f_i_dflt;
lastChange = "2016-10-13 21:43:13 +0000";
layers = (
{
layerId = "8869C5F7-E59C-494D-926F-BD4E51EFDE49";
paths = (
{
closed = 1;
nodes = (
"850 -127 LINE",
"829 -285 OFFCURVE",
"792 -398 OFFCURVE",
"700 -398 CURVE SMOOTH",
"645 -399 OFFCURVE",
"551 -371 OFFCURVE",
"538 -365 CURVE",
"498 -499 LINE",
"526 -507 OFFCURVE",
"595 -514 OFFCURVE",
"660 -513 CURVE SMOOTH",
"852 -511 OFFCURVE",
"974 -338 OFFCURVE",
"1007 -74 CURVE SMOOTH",
"1150 1040 LINE",
"1411 1040 LINE",
"1423 1155 LINE",
"1164 1155 LINE",
"1178 1263 LINE SMOOTH",
"1199 1435 OFFCURVE",
"1273 1552 OFFCURVE",
"1386 1553 CURVE SMOOTH",
"1453 1554 OFFCURVE",
"1496 1527 OFFCURVE",
"1519 1510 CURVE",
"1564 1644 LINE",
"1517 1666 OFFCURVE",
"1468 1670 OFFCURVE",
"1419 1670 CURVE SMOOTH",
"1239 1670 OFFCURVE",
"1066 1480 OFFCURVE",
"1030 1249 CURVE SMOOTH",
"1015 1150 LINE",
"869 1101 LINE",
"856 1040 LINE",
"996 1040 LINE"
);
},
{
closed = 1;
nodes = (
"146 -127 LINE",
"125 -285 OFFCURVE",
"88 -398 OFFCURVE",
"-4 -398 CURVE SMOOTH",
"-59 -399 OFFCURVE",
"-153 -371 OFFCURVE",
"-166 -365 CURVE",
"-206 -499 LINE",
"-178 -507 OFFCURVE",
"-109 -514 OFFCURVE",
"-44 -513 CURVE SMOOTH",
"148 -511 OFFCURVE",
"270 -338 OFFCURVE",
"303 -74 CURVE SMOOTH",
"446 1040 LINE",
"707 1040 LINE",
"720 1155 LINE",
"460 1155 LINE",
"469 1233 LINE SMOOTH",
"491 1404 OFFCURVE",
"569 1522 OFFCURVE",
"687 1523 CURVE SMOOTH",
"760 1524 OFFCURVE",
"806 1497 OFFCURVE",
"832 1480 CURVE",
"877 1614 LINE",
"826 1636 OFFCURVE",
"773 1640 OFFCURVE",
"720 1640 CURVE SMOOTH",
"536 1640 OFFCURVE",
"358 1450 OFFCURVE",
"322 1218 CURVE SMOOTH",
"311 1150 LINE",
"165 1101 LINE",
"152 1040 LINE",
"292 1040 LINE"
);
},
{
closed = 1;
nodes = (
"1587 99 CURVE SMOOTH",
"1580 11 OFFCURVE",
"1629 -20 OFFCURVE",
"1694 -20 CURVE SMOOTH",
"1804 -20 OFFCURVE",
"1889 84 OFFCURVE",
"1907 112 CURVE",
"1881 156 LINE",
"1833 104 OFFCURVE",
"1803 85 OFFCURVE",
"1773 85 CURVE SMOOTH",
"1754 85 OFFCURVE",
"1737 108 OFFCURVE",
"1744 158 CURVE SMOOTH",
"1885 1138 LINE",
"1845 1159 LINE",
"1595 1117 LINE",
"1582 1052 LINE",
"1716 1012 LINE",
"1676 712 OFFCURVE",
"1596 225 OFFCURVE"
);
}
);
width = 2040;
},
{
layerId = "ECCAD73A-D96E-4C88-9DA5-23DA0E7E9E34";
paths = (
{
closed = 1;
nodes = (
"797 -162 LINE",
"779 -298 OFFCURVE",
"735 -354 OFFCURVE",
"671 -354 CURVE SMOOTH",
"623 -355 OFFCURVE",
"528 -311 OFFCURVE",
"515 -305 CURVE",
"457 -489 LINE",
"490 -497 OFFCURVE",
"574 -513 OFFCURVE",
"647 -513 CURVE SMOOTH",
"962 -513 OFFCURVE",
"1112 -188 OFFCURVE",
"1145 83 CURVE SMOOTH",
"1255 984 LINE",
"1423 984 LINE",
"1454 1155 LINE",
"1279 1155 LINE",
"1299 1305 LINE SMOOTH",
"1324 1462 OFFCURVE",
"1328 1514 OFFCURVE",
"1433 1514 CURVE SMOOTH",
"1501 1514 OFFCURVE",
"1542 1484 OFFCURVE",
"1567 1466 CURVE",
"1629 1644 LINE",
"1575 1666 OFFCURVE",
"1507 1670 OFFCURVE",
"1451 1670 CURVE SMOOTH",
"1184 1670 OFFCURVE",
"1021 1477 OFFCURVE",
"980 1229 CURVE SMOOTH",
"967 1150 LINE",
"831 1087 LINE",
"810 984 LINE",
"935 984 LINE"
);
},
{
closed = 1;
nodes = (
"87 -162 LINE",
"69 -298 OFFCURVE",
"25 -354 OFFCURVE",
"-39 -354 CURVE SMOOTH",
"-87 -355 OFFCURVE",
"-182 -311 OFFCURVE",
"-195 -305 CURVE",
"-253 -489 LINE",
"-220 -497 OFFCURVE",
"-136 -513 OFFCURVE",
"-63 -513 CURVE SMOOTH",
"252 -513 OFFCURVE",
"402 -188 OFFCURVE",
"435 83 CURVE SMOOTH",
"545 984 LINE",
"723 984 LINE",
"754 1155 LINE",
"569 1155 LINE",
"585 1281 LINE SMOOTH",
"610 1438 OFFCURVE",
"614 1490 OFFCURVE",
"719 1490 CURVE SMOOTH",
"786 1490 OFFCURVE",
"828 1460 OFFCURVE",
"853 1442 CURVE",
"915 1620 LINE",
"861 1642 OFFCURVE",
"793 1646 OFFCURVE",
"737 1646 CURVE SMOOTH",
"470 1646 OFFCURVE",
"307 1453 OFFCURVE",
"266 1205 CURVE SMOOTH",
"257 1150 LINE",
"121 1087 LINE",
"100 984 LINE",
"225 984 LINE"
);
},
{
closed = 1;
nodes = (
"1526 129 CURVE SMOOTH",
"1513 42 OFFCURVE",
"1583 -20 OFFCURVE",
"1725 -20 CURVE SMOOTH",
"1900 -20 OFFCURVE",
"1997 94 OFFCURVE",
"2021 124 CURVE",
"1993 197 LINE",
"1947 163 OFFCURVE",
"1924 151 OFFCURVE",
"1901 151 CURVE SMOOTH",
"1871 151 OFFCURVE",
"1859 178 OFFCURVE",
"1866 227 CURVE SMOOTH",
"1994 1139 LINE",
"1939 1163 LINE",
"1539 1111 LINE",
"1523 1022 LINE",
"1638 958 LINE",
"1587 574 OFFCURVE",
"1550 288 OFFCURVE"
);
}
);
width = 2087;
}
);
},
{
glyphname = f_f_l;
lastChange = "2016-10-13 21:43:13 +0000";
layers = (
{
layerId = "8869C5F7-E59C-494D-926F-BD4E51EFDE49";
paths = (
{
closed = 1;
nodes = (
"850 -127 LINE",
"829 -285 OFFCURVE",
"792 -398 OFFCURVE",
"700 -398 CURVE SMOOTH",
"645 -399 OFFCURVE",
"551 -371 OFFCURVE",
"538 -365 CURVE",
"498 -499 LINE",
"526 -507 OFFCURVE",
"595 -514 OFFCURVE",
"660 -513 CURVE SMOOTH",
"852 -511 OFFCURVE",
"974 -338 OFFCURVE",
"1007 -74 CURVE SMOOTH",
"1150 1040 LINE",
"1411 1040 LINE",
"1423 1155 LINE",
"1164 1155 LINE",
"1178 1263 LINE SMOOTH",
"1199 1435 OFFCURVE",
"1273 1552 OFFCURVE",
"1386 1553 CURVE SMOOTH",
"1453 1554 OFFCURVE",
"1496 1527 OFFCURVE",
"1519 1510 CURVE",
"1564 1644 LINE",
"1517 1666 OFFCURVE",
"1468 1670 OFFCURVE",
"1419 1670 CURVE SMOOTH",
"1239 1670 OFFCURVE",
"1066 1480 OFFCURVE",
"1030 1249 CURVE SMOOTH",
"1015 1150 LINE",
"869 1101 LINE",
"856 1040 LINE",
"996 1040 LINE"
);
},
{
closed = 1;
nodes = (
"146 -127 LINE",
"125 -285 OFFCURVE",
"88 -398 OFFCURVE",
"-4 -398 CURVE SMOOTH",
"-59 -399 OFFCURVE",
"-153 -371 OFFCURVE",
"-166 -365 CURVE",
"-206 -499 LINE",
"-178 -507 OFFCURVE",
"-109 -514 OFFCURVE",
"-44 -513 CURVE SMOOTH",
"148 -511 OFFCURVE",
"270 -338 OFFCURVE",
"303 -74 CURVE SMOOTH",
"446 1040 LINE",
"707 1040 LINE",
"720 1155 LINE",
"460 1155 LINE",
"469 1233 LINE SMOOTH",
"491 1404 OFFCURVE",
"569 1522 OFFCURVE",
"687 1523 CURVE SMOOTH",
"760 1524 OFFCURVE",
"806 1497 OFFCURVE",
"832 1480 CURVE",
"877 1614 LINE",
"826 1636 OFFCURVE",
"773 1640 OFFCURVE",
"720 1640 CURVE SMOOTH",
"536 1640 OFFCURVE",
"358 1450 OFFCURVE",
"322 1218 CURVE SMOOTH",
"311 1150 LINE",
"165 1101 LINE",
"152 1040 LINE",
"292 1040 LINE"
);
},
{
closed = 1;
nodes = (
"1558 102 CURVE SMOOTH",
"1556 15 OFFCURVE",
"1590 -20 OFFCURVE",
"1657 -20 CURVE SMOOTH",
"1767 -20 OFFCURVE",
"1855 84 OFFCURVE",
"1870 112 CURVE",
"1845 155 LINE",
"1795 102 OFFCURVE",
"1763 85 OFFCURVE",
"1734 85 CURVE SMOOTH",
"1715 85 OFFCURVE",
"1700 110 OFFCURVE",
"1707 158 CURVE SMOOTH",
"1913 1627 LINE",
"1874 1650 LINE",
"1652 1615 LINE",
"1636 1548 LINE",
"1754 1515 LINE",
"1564 170 LINE SMOOTH",
"1561 150 OFFCURVE",
"1558 116 OFFCURVE"
);
}
);
width = 2013;
},
{
layerId = "ECCAD73A-D96E-4C88-9DA5-23DA0E7E9E34";
paths = (
{
closed = 1;
nodes = (
"1505 115 CURVE SMOOTH",
"1507 17 OFFCURVE",
"1612 -20 OFFCURVE",
"1720 -20 CURVE SMOOTH",
"1884 -20 OFFCURVE",
"1978 95 OFFCURVE",
"2000 124 CURVE",
"1972 197 LINE",
"1920 158 OFFCURVE",
"1901 151 OFFCURVE",
"1880 151 CURVE SMOOTH",
"1848 151 OFFCURVE",
"1838 180 OFFCURVE",
"1845 227 CURVE",
"2029 1623 LINE",
"1978 1650 LINE",
"1617 1612 LINE",
"1628 1644 LINE",
"1574 1666 OFFCURVE",
"1506 1670 OFFCURVE",
"1450 1670 CURVE SMOOTH",
"1183 1670 OFFCURVE",
"1020 1477 OFFCURVE",
"979 1229 CURVE SMOOTH",
"966 1150 LINE",
"830 1087 LINE",
"809 984 LINE",
"934 984 LINE",
"796 -162 LINE",
"778 -298 OFFCURVE",
"734 -354 OFFCURVE",
"670 -354 CURVE",
"622 -355 OFFCURVE",
"527 -311 OFFCURVE",
"514 -305 CURVE",
"456 -489 LINE",
"489 -497 OFFCURVE",
"573 -513 OFFCURVE",
"646 -513 CURVE SMOOTH",
"961 -513 OFFCURVE",
"1111 -188 OFFCURVE",
"1144 83 CURVE SMOOTH",
"1254 984 LINE",
"1422 984 LINE",
"1453 1155 LINE",
"1278 1155 LINE",
"1298 1305 LINE",
"1323 1462 OFFCURVE",
"1327 1514 OFFCURVE",
"1432 1514 CURVE SMOOTH",
"1500 1514 OFFCURVE",
"1541 1484 OFFCURVE",
"1566 1466 CURVE",
"1583 1515 LINE",
"1684 1482 LINE",
"1513 192 LINE SMOOTH",
"1511 176 OFFCURVE",
"1505 139 OFFCURVE"
);
},
{
closed = 1;
nodes = (
"87 -162 LINE",
"69 -298 OFFCURVE",
"25 -354 OFFCURVE",
"-39 -354 CURVE",
"-87 -355 OFFCURVE",
"-182 -311 OFFCURVE",
"-195 -305 CURVE",
"-253 -489 LINE",
"-220 -497 OFFCURVE",
"-136 -513 OFFCURVE",
"-63 -513 CURVE SMOOTH",
"252 -513 OFFCURVE",
"402 -188 OFFCURVE",
"435 83 CURVE SMOOTH",
"545 984 LINE",
"723 984 LINE",
"754 1155 LINE",
"569 1155 LINE",
"585 1281 LINE",
"610 1438 OFFCURVE",
"614 1490 OFFCURVE",
"719 1490 CURVE SMOOTH",
"786 1490 OFFCURVE",
"828 1460 OFFCURVE",
"853 1442 CURVE",
"915 1620 LINE",
"861 1642 OFFCURVE",
"793 1646 OFFCURVE",
"737 1646 CURVE SMOOTH",
"470 1646 OFFCURVE",
"307 1453 OFFCURVE",
"266 1205 CURVE SMOOTH",
"257 1150 LINE",
"121 1087 LINE",
"100 984 LINE",
"225 984 LINE"
);
}
);
width = 2053;
}
);
},
{
glyphname = fi;
lastChange = "2016-10-13 21:43:13 +0000";
layers = (
{
layerId = "8869C5F7-E59C-494D-926F-BD4E51EFDE49";
paths = (
{
closed = 1;
nodes = (
"146 -127 LINE",
"125 -285 OFFCURVE",
"88 -398 OFFCURVE",
"-4 -398 CURVE SMOOTH",
"-59 -399 OFFCURVE",
"-153 -371 OFFCURVE",
"-166 -365 CURVE",
"-206 -499 LINE",
"-178 -507 OFFCURVE",
"-109 -514 OFFCURVE",
"-44 -513 CURVE SMOOTH",
"148 -511 OFFCURVE",
"270 -338 OFFCURVE",
"303 -74 CURVE SMOOTH",
"446 1040 LINE",
"707 1040 LINE",
"719 1155 LINE",
"460 1155 LINE",
"474 1263 LINE SMOOTH",
"495 1435 OFFCURVE",
"569 1552 OFFCURVE",
"682 1553 CURVE SMOOTH",
"749 1554 OFFCURVE",
"792 1527 OFFCURVE",
"815 1510 CURVE",
"860 1644 LINE",
"813 1666 OFFCURVE",
"764 1670 OFFCURVE",
"715 1670 CURVE SMOOTH",
"535 1670 OFFCURVE",
"362 1480 OFFCURVE",
"326 1249 CURVE SMOOTH",
"311 1150 LINE",
"165 1101 LINE",
"152 1040 LINE",
"292 1040 LINE"
);
},
{
closed = 1;
nodes = (
"884 99 CURVE SMOOTH",
"877 11 OFFCURVE",
"926 -20 OFFCURVE",
"991 -20 CURVE SMOOTH",
"1101 -20 OFFCURVE",
"1186 84 OFFCURVE",
"1204 112 CURVE",
"1178 156 LINE",
"1130 104 OFFCURVE",
"1100 85 OFFCURVE",
"1070 85 CURVE SMOOTH",
"1051 85 OFFCURVE",
"1034 108 OFFCURVE",
"1041 158 CURVE SMOOTH",
"1182 1138 LINE",
"1142 1159 LINE",
"892 1117 LINE",
"879 1052 LINE",
"1013 1012 LINE",
"973 712 OFFCURVE",
"893 225 OFFCURVE"
);
},
{
closed = 1;
nodes = (
"1135 1401 CURVE SMOOTH",
"1196 1401 OFFCURVE",
"1249 1459 OFFCURVE",
"1251 1529 CURVE SMOOTH",
"1252 1583 OFFCURVE",
"1217 1622 OFFCURVE",
"1159 1622 CURVE SMOOTH",
"1108 1622 OFFCURVE",
"1050 1568 OFFCURVE",
"1048 1499 CURVE SMOOTH",
"1047 1442 OFFCURVE",
"1086 1401 OFFCURVE"
);
}
);
width = 1337;
},
{
layerId = "ECCAD73A-D96E-4C88-9DA5-23DA0E7E9E34";
paths = (
{
closed = 1;
nodes = (
"87 -162 LINE",
"69 -298 OFFCURVE",
"25 -354 OFFCURVE",
"-39 -354 CURVE SMOOTH",
"-87 -355 OFFCURVE",
"-182 -311 OFFCURVE",
"-195 -305 CURVE",
"-253 -489 LINE",
"-220 -497 OFFCURVE",
"-136 -513 OFFCURVE",
"-63 -513 CURVE SMOOTH",
"252 -513 OFFCURVE",
"402 -188 OFFCURVE",
"435 83 CURVE SMOOTH",
"545 984 LINE",
"713 984 LINE",
"744 1155 LINE",
"569 1155 LINE",
"589 1305 LINE SMOOTH",
"614 1462 OFFCURVE",
"618 1514 OFFCURVE",
"723 1514 CURVE SMOOTH",
"791 1514 OFFCURVE",
"832 1484 OFFCURVE",
"857 1466 CURVE",
"919 1644 LINE",
"865 1666 OFFCURVE",
"797 1670 OFFCURVE",
"741 1670 CURVE SMOOTH",
"474 1670 OFFCURVE",
"311 1477 OFFCURVE",
"270 1229 CURVE SMOOTH",
"257 1150 LINE",
"121 1087 LINE",
"100 984 LINE",
"225 984 LINE"
);
},
{
closed = 1;
nodes = (
"817 129 CURVE SMOOTH",
"804 42 OFFCURVE",
"874 -20 OFFCURVE",
"1016 -20 CURVE SMOOTH",
"1191 -20 OFFCURVE",
"1288 94 OFFCURVE",
"1312 124 CURVE",
"1284 197 LINE",
"1238 163 OFFCURVE",
"1215 151 OFFCURVE",
"1192 151 CURVE SMOOTH",
"1162 151 OFFCURVE",
"1150 178 OFFCURVE",
"1157 227 CURVE SMOOTH",
"1285 1139 LINE",
"1230 1163 LINE",
"830 1111 LINE",
"814 1022 LINE",
"929 958 LINE",
"878 574 OFFCURVE",
"841 288 OFFCURVE"
);
},
{
closed = 1;
nodes = (
"1147 1338 CURVE SMOOTH",
"1289 1338 OFFCURVE",
"1350 1429 OFFCURVE",
"1353 1540 CURVE SMOOTH",
"1355 1620 OFFCURVE",
"1289 1701 OFFCURVE",
"1183 1701 CURVE SMOOTH",
"1060 1701 OFFCURVE",
"988 1614 OFFCURVE",
"985 1505 CURVE SMOOTH",
"983 1422 OFFCURVE",
"1058 1338 OFFCURVE"
);
}
);
width = 1378;
}
);
unicode = FB01;
},
{
glyphname = fl;
lastChange = "2016-10-13 21:43:13 +0000";
layers = (
{
layerId = "8869C5F7-E59C-494D-926F-BD4E51EFDE49";
paths = (
{
closed = 1;
nodes = (
"146 -127 LINE",
"125 -285 OFFCURVE",
"88 -398 OFFCURVE",
"-4 -398 CURVE SMOOTH",
"-59 -399 OFFCURVE",
"-153 -371 OFFCURVE",
"-166 -365 CURVE",
"-206 -499 LINE",
"-178 -507 OFFCURVE",
"-109 -514 OFFCURVE",
"-44 -513 CURVE SMOOTH",
"148 -511 OFFCURVE",
"270 -338 OFFCURVE",
"303 -74 CURVE SMOOTH",
"446 1040 LINE",
"707 1040 LINE",
"719 1155 LINE",
"460 1155 LINE",
"474 1263 LINE SMOOTH",
"495 1435 OFFCURVE",
"569 1552 OFFCURVE",
"682 1553 CURVE SMOOTH",
"749 1554 OFFCURVE",
"792 1527 OFFCURVE",
"815 1510 CURVE",
"860 1644 LINE",
"813 1666 OFFCURVE",
"764 1670 OFFCURVE",
"715 1670 CURVE SMOOTH",
"535 1670 OFFCURVE",
"362 1480 OFFCURVE",
"326 1249 CURVE SMOOTH",
"311 1150 LINE",
"165 1101 LINE",
"152 1040 LINE",
"292 1040 LINE"
);
},
{
closed = 1;
nodes = (
"855 102 CURVE SMOOTH",
"853 15 OFFCURVE",
"887 -20 OFFCURVE",
"954 -20 CURVE SMOOTH",
"1064 -20 OFFCURVE",
"1152 84 OFFCURVE",
"1167 112 CURVE",
"1142 155 LINE",
"1092 102 OFFCURVE",
"1060 85 OFFCURVE",
"1031 85 CURVE SMOOTH",
"1012 85 OFFCURVE",
"997 110 OFFCURVE",
"1004 158 CURVE SMOOTH",
"1210 1627 LINE",
"1171 1650 LINE",
"949 1615 LINE",
"933 1548 LINE",
"1051 1515 LINE",
"861 170 LINE SMOOTH",
"858 150 OFFCURVE",
"855 116 OFFCURVE"
);
}
);
width = 1309;
},
{
layerId = "ECCAD73A-D96E-4C88-9DA5-23DA0E7E9E34";
paths = (
{
closed = 1;
nodes = (
"796 115 CURVE SMOOTH",
"798 17 OFFCURVE",
"903 -20 OFFCURVE",
"1011 -20 CURVE SMOOTH",
"1175 -20 OFFCURVE",
"1269 95 OFFCURVE",
"1291 124 CURVE",
"1263 197 LINE",
"1211 158 OFFCURVE",
"1192 151 OFFCURVE",
"1171 151 CURVE SMOOTH",
"1139 151 OFFCURVE",
"1129 180 OFFCURVE",
"1136 227 CURVE",
"1320 1623 LINE",
"1269 1650 LINE",
"908 1612 LINE",
"919 1644 LINE",
"865 1666 OFFCURVE",
"797 1670 OFFCURVE",
"741 1670 CURVE SMOOTH",
"474 1670 OFFCURVE",
"311 1477 OFFCURVE",
"270 1229 CURVE SMOOTH",
"257 1150 LINE",
"121 1087 LINE",
"100 984 LINE",
"225 984 LINE",
"87 -162 LINE",
"69 -298 OFFCURVE",
"25 -354 OFFCURVE",
"-39 -354 CURVE",
"-87 -355 OFFCURVE",
"-182 -311 OFFCURVE",
"-195 -305 CURVE",
"-253 -489 LINE",
"-220 -497 OFFCURVE",
"-136 -513 OFFCURVE",
"-63 -513 CURVE SMOOTH",
"252 -513 OFFCURVE",
"402 -188 OFFCURVE",
"435 83 CURVE SMOOTH",
"545 984 LINE",
"713 984 LINE",
"744 1155 LINE",
"569 1155 LINE",
"589 1305 LINE",
"614 1462 OFFCURVE",
"618 1514 OFFCURVE",
"723 1514 CURVE SMOOTH",
"791 1514 OFFCURVE",
"832 1484 OFFCURVE",
"857 1466 CURVE",
"874 1515 LINE",
"975 1482 LINE",
"804 192 LINE SMOOTH",
"802 176 OFFCURVE",
"796 139 OFFCURVE"
);
}
);
width = 1344;
}
);
unicode = FB02;
},
{
glyphname = ordfeminine;
lastChange = "2016-10-13 21:43:13 +0000";
layers = (
{
layerId = "8869C5F7-E59C-494D-926F-BD4E51EFDE49";
paths = (
{
closed = 1;
nodes = (
"341 743 CURVE SMOOTH",
"473 743 OFFCURVE",
"554 820 OFFCURVE",
"606 884 CURVE",
"586 797 OFFCURVE",
"626 743 OFFCURVE",
"684 743 CURVE SMOOTH",
"753 743 OFFCURVE",
"836 803 OFFCURVE",
"845 818 CURVE",
"826 851 LINE",
"793 828 OFFCURVE",
"771 820 OFFCURVE",
"756 820 CURVE SMOOTH",
"732 820 OFFCURVE",
"729 853 OFFCURVE",
"736 902 CURVE",
"860 1579 LINE",
"780 1548 LINE",
"736 1563 OFFCURVE",
"666 1577 OFFCURVE",
"606 1577 CURVE SMOOTH",
"315 1576 OFFCURVE",
"95 1294 OFFCURVE",
"95 1040 CURVE SMOOTH",
"95 857 OFFCURVE",
"183 743 OFFCURVE"
);
},
{
closed = 1;
nodes = (
"401 838 CURVE SMOOTH",
"285 838 OFFCURVE",
"235 920 OFFCURVE",
"235 1052 CURVE SMOOTH",
"235 1262 OFFCURVE",
"364 1495 OFFCURVE",
"588 1495 CURVE SMOOTH",
"623 1495 OFFCURVE",
"672 1474 OFFCURVE",
"700 1441 CURVE",
"610 951 LINE",
"558 900 OFFCURVE",
"478 838 OFFCURVE"
);
}
);
width = 854;
},
{
layerId = "ECCAD73A-D96E-4C88-9DA5-23DA0E7E9E34";
paths = (
{
closed = 1;
nodes = (
"283 743 CURVE SMOOTH",
"423 743 OFFCURVE",
"491 810 OFFCURVE",
"538 869 CURVE",
"530 796 OFFCURVE",
"576 743 OFFCURVE",
"668 743 CURVE SMOOTH",
"759 743 OFFCURVE",
"887 817 OFFCURVE",
"899 832 CURVE",
"866 886 LINE",
"835 869 OFFCURVE",
"821 866 OFFCURVE",
"810 866 CURVE SMOOTH",
"799 866 OFFCURVE",
"792 887 OFFCURVE",
"798 920 CURVE SMOOTH",
"915 1586 LINE",
"768 1550 LINE",
"724 1564 OFFCURVE",
"656 1577 OFFCURVE",
"598 1577 CURVE SMOOTH",
"283 1576 OFFCURVE",
"44 1294 OFFCURVE",
"44 1040 CURVE SMOOTH",
"44 857 OFFCURVE",
"132 743 OFFCURVE"
);
},
{
closed = 1;
nodes = (
"413 881 CURVE SMOOTH",
"349 881 OFFCURVE",
"328 935 OFFCURVE",
"328 1055 CURVE SMOOTH",
"328 1249 OFFCURVE",
"395 1475 OFFCURVE",
"573 1475 CURVE SMOOTH",
"590 1475 OFFCURVE",
"609 1469 OFFCURVE",
"626 1459 CURVE",
"535 936 LINE",
"503 906 OFFCURVE",
"458 881 OFFCURVE"
);
}
);
width = 854;
}
);
unicode = 00AA;
},
{
glyphname = ordmasculine;
lastChange = "2016-10-13 21:43:13 +0000";
layers = (
{
layerId = "8869C5F7-E59C-494D-926F-BD4E51EFDE49";
paths = (
{
closed = 1;
nodes = (
"416 733 CURVE SMOOTH",
"634 729 OFFCURVE",
"876 909 OFFCURVE",
"876 1234 CURVE SMOOTH",
"876 1440 OFFCURVE",
"763 1586 OFFCURVE",
"550 1589 CURVE SMOOTH",
"347 1591 OFFCURVE",
"91 1409 OFFCURVE",
"91 1085 CURVE SMOOTH",
"91 872 OFFCURVE",
"222 736 OFFCURVE"
);
},
{
closed = 1;
nodes = (
"424 818 CURVE SMOOTH",
"321 818 OFFCURVE",
"238 928 OFFCURVE",
"238 1099 CURVE SMOOTH",
"238 1295 OFFCURVE",
"345 1509 OFFCURVE",
"533 1510 CURVE SMOOTH",
"657 1510 OFFCURVE",
"728 1387 OFFCURVE",
"728 1220 CURVE SMOOTH",
"728 1012 OFFCURVE",
"627 816 OFFCURVE"
);
}
);
width = 854;
},
{
layerId = "ECCAD73A-D96E-4C88-9DA5-23DA0E7E9E34";
paths = (
{
closed = 1;
nodes = (
"413 733 CURVE SMOOTH",
"671 733 OFFCURVE",
"903 909 OFFCURVE",
"903 1234 CURVE SMOOTH",
"903 1440 OFFCURVE",
"774 1587 OFFCURVE",
"547 1589 CURVE SMOOTH",
"306 1591 OFFCURVE",
"58 1409 OFFCURVE",
"58 1085 CURVE SMOOTH",
"58 872 OFFCURVE",
"207 733 OFFCURVE"
);
},
{
closed = 1;
nodes = (
"424 848 CURVE SMOOTH",
"367 849 OFFCURVE",
"322 944 OFFCURVE",
"322 1103 CURVE SMOOTH",
"322 1263 OFFCURVE",
"367 1480 OFFCURVE",
"524 1481 CURVE SMOOTH",
"596 1482 OFFCURVE",
"637 1375 OFFCURVE",
"637 1216 CURVE SMOOTH",
"637 1041 OFFCURVE",
"595 846 OFFCURVE"
);
}
);
width = 854;
}
);
unicode = 00BA;
},
{
glyphname = IJ_acutecomb;
lastChange = "2016-10-13 21:43:13 +0000";
layers = (
{
components = (
{
name = acute.cap;
transform = "{1, 0, 0, 1, 1057, -1}";
}
);
layerId = "8869C5F7-E59C-494D-926F-BD4E51EFDE49";
paths = (
{
closed = 1;
nodes = (
"47 0 LINE",
"503 0 LINE",
"509 70 LINE",
"354 94 LINE",
"521 1422 LINE",
"671 1441 LINE",
"679 1522 LINE",
"244 1522 LINE",
"234 1441 LINE",
"370 1422 LINE",
"203 94 LINE",
"54 69 LINE"
);
},
{
closed = 1;
nodes = (
"466 1614 LINE",
"563 1669 OFFCURVE",
"739 1801 OFFCURVE",
"794 1906 CURVE",
"699 2000 LINE",
"416 1651 LINE"
);
},
{
closed = 1;
nodes = (
"910 90 CURVE SMOOTH",
"873 -74 OFFCURVE",
"717 -227 OFFCURVE",
"535 -274 CURVE",
"563 -345 LINE",
"764 -310 OFFCURVE",
"974 -197 OFFCURVE",
"1055 75 CURVE SMOOTH",
"1084 170 OFFCURVE",
"1147 752 OFFCURVE",
"1220 1423 CURVE",
"1394 1441 LINE",
"1402 1522 LINE",
"918 1522 LINE",
"907 1441 LINE",
"1075 1423 LINE",
"1025 988 OFFCURVE",
"978 411 OFFCURVE"
);
}
);
width = 1396;
},
{
components = (
{
name = acute.cap;
transform = "{1, 0, 0, 1, 1142, 2}";
}
);
layerId = "ECCAD73A-D96E-4C88-9DA5-23DA0E7E9E34";
paths = (
{
closed = 1;
nodes = (
"-18 0 LINE",
"665 0 LINE",
"672 106 LINE",
"497 136 LINE",
"662 1386 LINE",
"834 1412 LINE",
"846 1522 LINE",
"175 1522 LINE",
"163 1412 LINE",
"310 1386 LINE",
"145 136 LINE",
"-5 106 LINE"
);
},
{
closed = 1;
nodes = (
"556 1570 LINE",
"652 1606 OFFCURVE",
"851 1728 OFFCURVE",
"903 1829 CURVE",
"716 2014 LINE",
"440 1672 LINE"
);
},
{
closed = 1;
nodes = (
"899 86 CURVE SMOOTH",
"874 -45 OFFCURVE",
"797 -170 OFFCURVE",
"579 -237 CURVE",
"631 -345 LINE",
"910 -306 OFFCURVE",
"1166 -160 OFFCURVE",
"1248 75 CURVE SMOOTH",
"1281 170 OFFCURVE",
"1361 825 OFFCURVE",
"1430 1386 CURVE",
"1574 1412 LINE",
"1585 1522 LINE",
"949 1522 LINE",
"934 1412 LINE",
"1081 1385 LINE",
"1033 950 OFFCURVE",
"972 476 OFFCURVE"
);
}
);
width = 1506;
}
);
userData = {
com.typemytype.robofont.mark = (
1,
0.6000,
0.704,
1
);
};
},
{
glyphname = ij_acutecomb;
lastChange = "2016-10-13 21:43:13 +0000";
layers = (
{
components = (
{
name = acute;
transform = "{1, 0, 0, 1, 861, 0}";
}
);
layerId = "8869C5F7-E59C-494D-926F-BD4E51EFDE49";
paths = (
{
closed = 1;
nodes = (
"173 99 CURVE SMOOTH",
"166 11 OFFCURVE",
"215 -20 OFFCURVE",
"280 -20 CURVE SMOOTH",
"390 -20 OFFCURVE",
"475 84 OFFCURVE",
"493 112 CURVE",
"467 156 LINE",
"419 104 OFFCURVE",
"389 85 OFFCURVE",
"359 85 CURVE SMOOTH",
"340 85 OFFCURVE",
"323 108 OFFCURVE",
"330 158 CURVE SMOOTH",
"471 1138 LINE",
"431 1159 LINE",
"181 1117 LINE",
"168 1052 LINE",
"302 1012 LINE",
"262 712 OFFCURVE",
"182 225 OFFCURVE"
);
},
{
closed = 1;
nodes = (
"364 1255 LINE",
"486 1323 OFFCURVE",
"708 1554 OFFCURVE",
"746 1620 CURVE",
"638 1729 LINE",
"315 1304 LINE"
);
},
{
closed = 1;
nodes = (
"561 -518 CURVE SMOOTH",
"790 -518 OFFCURVE",
"944 -341 OFFCURVE",
"985 2 CURVE SMOOTH",
"1119 1138 LINE",
"1080 1159 LINE",
"824 1117 LINE",
"811 1052 LINE",
"951 1012 LINE",
"842 58 LINE SMOOTH",
"811 -205 OFFCURVE",
"738 -432 OFFCURVE",
"536 -432 CURVE SMOOTH",
"508 -432 OFFCURVE",
"467 -424 OFFCURVE",
"449 -415 CURVE",
"421 -481 LINE",
"443 -505 OFFCURVE",
"497 -518 OFFCURVE"
);
}
);
width = 1280;
},
{
components = (
{
name = acute;
transform = "{1, 0, 0, 1, 942, 0}";
}
);
layerId = "ECCAD73A-D96E-4C88-9DA5-23DA0E7E9E34";
paths = (
{
closed = 1;
nodes = (
"110 129 CURVE SMOOTH",
"97 42 OFFCURVE",
"167 -20 OFFCURVE",
"309 -20 CURVE SMOOTH",
"484 -20 OFFCURVE",
"581 94 OFFCURVE",
"605 124 CURVE",
"577 197 LINE",
"531 163 OFFCURVE",
"508 151 OFFCURVE",
"485 151 CURVE SMOOTH",
"455 151 OFFCURVE",
"443 178 OFFCURVE",
"450 227 CURVE SMOOTH",
"578 1139 LINE",
"523 1163 LINE",
"123 1111 LINE",
"107 1022 LINE",
"222 958 LINE",
"171 574 OFFCURVE",
"134 288 OFFCURVE"
);
},
{
closed = 1;
nodes = (
"406 1231 LINE",
"525 1277 OFFCURVE",
"776 1488 OFFCURVE",
"812 1556 CURVE",
"620 1743 LINE",
"303 1312 LINE"
);
},
{
closed = 1;
nodes = (
"594 -528 CURVE SMOOTH",
"842 -528 OFFCURVE",
"1070 -347 OFFCURVE",
"1114 0 CURVE SMOOTH",
"1251 1139 LINE",
"1199 1163 LINE",
"748 1112 LINE",
"727 1031 LINE",
"893 980 LINE",
"788 65 LINE SMOOTH",
"761 -170 OFFCURVE",
"724 -382 OFFCURVE",
"535 -382 CURVE SMOOTH",
"525 -382 OFFCURVE",
"479 -376 OFFCURVE",
"461 -370 CURVE",
"423 -491 LINE",
"450 -516 OFFCURVE",
"514 -528 OFFCURVE"
);
}
);
width = 1325;
}
);
userData = {
com.typemytype.robofont.mark = (
1,
0.6000,
0.704,
1
);
};
},
